<svg width="56" height="46" viewBox="0 0 56 46" fill="none" xmlns="http://www.w3.org/2000/svg">
<path fill-rule="evenodd" clip-rule="evenodd" d="M27.4268 13.4014C27.771 13.1605 28.229 13.1605 28.5732 13.4014L37.5732 19.7012C37.8405 19.8883 38 20.1943 38 20.5205V32.1114L37.9951 32.2022C37.9526 32.6204 37.6203 32.9526 37.2021 32.9952L37.1113 33H30.5928L30.4736 32.9883C30.2033 32.9333 30 32.6938 30 32.4073V27C30 25.8955 29.1046 25 28 25C26.8954 25 26 25.8955 26 27V32.4073C26 32.7345 25.7345 33 25.4072 33H18.8887C18.4286 32.9999 18.0505 32.6503 18.0049 32.2022L18 32.1114V20.5205C18 20.1943 18.1595 19.8883 18.4268 19.7012L27.4268 13.4014ZM19.5 20.7813V31.5H24.5V27C24.5 25.067 26.067 23.5 28 23.5C29.933 23.5 31.5 25.067 31.5 27V31.5H36.5V20.7813L28 14.8301L19.5 20.7813Z" fill="#21262A"/>
</svg>
