<svg width="56" height="46" viewBox="0 0 56 46" fill="none" xmlns="http://www.w3.org/2000/svg">
<path d="M10 11C10 7.68629 12.6863 5 16 5H40C43.3137 5 46 7.68629 46 11V35C46 38.3137 43.3137 41 40 41H16C12.6863 41 10 38.3137 10 35V11Z" fill="#002B21"/>
<path d="M19 13.25C19.4142 13.25 19.75 13.5858 19.75 14V30C19.75 30.6904 20.3096 31.25 21 31.25H37C37.4142 31.25 37.75 31.5858 37.75 32C37.75 32.4142 37.4142 32.75 37 32.75H21C19.4812 32.75 18.25 31.5188 18.25 30V14C18.25 13.5858 18.5858 13.25 19 13.25Z" fill="white"/>
<path d="M35.5 14C36.3284 14 37 14.6716 37 15.5C37 16.3284 36.3284 17 35.5 17L35.498 16.999L30.6494 25.376C30.5233 25.5938 30.2961 25.734 30.0449 25.749C29.7937 25.764 29.5515 25.6514 29.4004 25.4502L27.0557 22.3242L22.6357 29.3975C22.4162 29.7486 21.9538 29.8553 21.6025 29.6357C21.2514 29.4162 21.1448 28.9538 21.3643 28.6025L26.3643 20.6025L26.417 20.5273C26.5514 20.3616 26.7517 20.2603 26.9678 20.251C27.2147 20.2405 27.4512 20.3522 27.5996 20.5498L29.9189 23.6416L34.2002 16.2471C34.0734 16.027 34 15.7722 34 15.5C34 14.6716 34.6716 14 35.5 14Z" fill="white"/>
</svg>
