<svg width="74" height="64" viewBox="0 0 74 64" fill="none" xmlns="http://www.w3.org/2000/svg">
<g clip-path="url(#clip0_473_5847)">
<rect x="28" y="14" width="18" height="18" rx="9" stroke="#21262A" stroke-width="1.2"/>
<path d="M41.2097 27.6452L41.2097 18.5L36.9989 21.2581L32.7904 18.5L32.7904 27.6452L36.9989 24.8871L41.2097 27.6452Z" fill="#21262A"/>
</g>
<path d="M7.57966 52.912L6.72766 55H5.40766L9.09166 46.504H10.1717L13.8197 55H12.4757L11.6117 52.912H7.57966ZM9.59566 47.884L7.99966 51.868H11.1797L9.59566 47.884ZM19.6509 50.092L18.8349 50.752C18.5949 50.38 18.0669 50.104 17.5269 50.104C16.3509 50.104 15.6669 51.064 15.6669 52.156C15.6669 53.236 16.3509 54.208 17.5389 54.208C18.1149 54.208 18.6069 53.968 18.9069 53.584L19.6629 54.268C19.1829 54.82 18.4509 55.156 17.5389 55.156C15.7869 55.156 14.4789 53.968 14.4789 52.156C14.4789 50.368 15.7749 49.156 17.5149 49.156C18.3189 49.156 19.1829 49.48 19.6509 50.092ZM25.5806 50.092L24.7646 50.752C24.5246 50.38 23.9966 50.104 23.4566 50.104C22.2806 50.104 21.5966 51.064 21.5966 52.156C21.5966 53.236 22.2806 54.208 23.4686 54.208C24.0446 54.208 24.5366 53.968 24.8366 53.584L25.5926 54.268C25.1126 54.82 24.3806 55.156 23.4686 55.156C21.7166 55.156 20.4086 53.968 20.4086 52.156C20.4086 50.368 21.7046 49.156 23.4446 49.156C24.2486 49.156 25.1126 49.48 25.5806 50.092ZM32.4703 52.144C32.4703 53.896 31.1383 55.156 29.3983 55.156C27.6583 55.156 26.3383 53.896 26.3383 52.144C26.3383 50.392 27.6583 49.156 29.3983 49.156C31.1383 49.156 32.4703 50.392 32.4703 52.144ZM31.2943 52.144C31.2943 51.064 30.6223 50.092 29.3983 50.092C28.1863 50.092 27.5023 51.064 27.5023 52.144C27.5023 53.224 28.1863 54.208 29.3983 54.208C30.6223 54.208 31.2943 53.224 31.2943 52.144ZM39.1105 55H38.0425C38.0185 54.712 37.9945 54.304 37.9945 54.064H37.9705C37.6825 54.664 36.9385 55.156 36.1105 55.156C34.6465 55.156 33.9865 54.112 33.9865 52.84V49.312H35.1145V52.456C35.1145 53.392 35.3665 54.208 36.4105 54.208C37.3105 54.208 37.9345 53.464 37.9345 52.336V49.312H39.0625V53.776C39.0625 54.076 39.0745 54.628 39.1105 55ZM40.9709 49.312H42.0389C42.0629 49.6 42.0869 50.008 42.0869 50.248H42.1229C42.3989 49.636 43.1549 49.156 43.9709 49.156C45.4349 49.156 46.0949 50.2 46.0949 51.472V55H44.9669V51.844C44.9669 50.92 44.7149 50.104 43.6709 50.104C42.7829 50.104 42.1469 50.848 42.1469 51.976V55H41.0189V50.536C41.0189 50.236 41.0069 49.684 40.9709 49.312ZM50.7873 49.312V50.236H49.2753V53.2C49.2753 53.884 49.5153 54.16 50.0793 54.16C50.2833 54.16 50.5473 54.112 50.7393 54.016L50.7753 54.94C50.5113 55.036 50.1633 55.096 49.8153 55.096C48.7473 55.096 48.1593 54.496 48.1593 53.32V50.236H47.0673V49.312H48.1593V47.68H49.2753V49.312H50.7873ZM53.0925 49.312V55H51.9645V49.312H53.0925ZM53.2845 47.26C53.2845 47.668 52.9365 47.98 52.5285 47.98C52.1205 47.98 51.7845 47.656 51.7845 47.26C51.7845 46.852 52.1205 46.528 52.5285 46.528C52.9365 46.528 53.2845 46.84 53.2845 47.26ZM55.0099 49.312H56.0779C56.1019 49.6 56.1259 50.008 56.1259 50.248H56.1619C56.4379 49.636 57.1939 49.156 58.0099 49.156C59.4739 49.156 60.1339 50.2 60.1339 51.472V55H59.0059V51.844C59.0059 50.92 58.7539 50.104 57.7099 50.104C56.8219 50.104 56.1859 50.848 56.1859 51.976V55H55.0579V50.536C55.0579 50.236 55.0459 49.684 55.0099 49.312ZM61.7663 56.848L62.4863 55.972C62.9783 56.524 63.7823 56.896 64.5623 56.896C66.0623 56.896 66.5663 55.972 66.5663 54.796V54.064H66.5423C66.1223 54.7 65.3423 55.048 64.5383 55.048C62.7983 55.048 61.6703 53.752 61.6703 52.12C61.6703 50.488 62.7863 49.156 64.5263 49.156C65.3423 49.156 66.1463 49.516 66.5783 50.224H66.6023V49.312H67.6943V54.712C67.6943 56.368 66.9143 57.88 64.5503 57.88C63.5663 57.88 62.4743 57.496 61.7663 56.848ZM62.8343 52.096C62.8343 53.14 63.5303 54.1 64.7183 54.1C65.8823 54.1 66.6503 53.224 66.6503 52.096C66.6503 51.016 65.8703 50.092 64.7183 50.092C63.5303 50.092 62.8343 51.004 62.8343 52.096Z" fill="#21262A"/>
<defs>
<clipPath id="clip0_473_5847">
<rect x="27" y="13" width="20" height="20" rx="10" fill="white"/>
</clipPath>
</defs>
</svg>
