<svg width="74" height="64" viewBox="0 0 74 64" fill="none" xmlns="http://www.w3.org/2000/svg">
<path fill-rule="evenodd" clip-rule="evenodd" d="M44.4381 13.0127C44.8011 13.0711 45.108 13.3266 45.2272 13.6836L47.5612 20.6836C47.777 21.3311 47.2945 22 46.6119 22H45.9996V32C45.9996 32.5523 45.5519 33 44.9996 33H37.5924L37.4733 32.9883C37.2031 32.9331 36.9996 32.6937 36.9996 32.4072V27C36.9996 25.8954 36.1042 25 34.9996 25C33.8952 25.0002 32.9996 25.8955 32.9996 27V32.4072C32.9996 32.7345 32.7341 33 32.4069 33H28.5553L28.443 32.9883C28.1901 32.9362 27.9996 32.7126 27.9996 32.4443V22H27.3873L27.2614 21.9922C26.6471 21.9161 26.2359 21.2905 26.4381 20.6836L28.7721 13.6836C28.9083 13.2755 29.2902 13.0002 29.7203 13H44.2789L44.4381 13.0127ZM29.4996 31.5H31.4996V27C31.4996 25.0671 33.0668 23.5002 34.9996 23.5C36.9326 23.5 38.4996 25.067 38.4996 27V31.5H44.4996V22H29.4996V31.5ZM41.6598 20.5H45.9186L43.9186 14.5H40.3737L41.6598 20.5ZM33.8737 20.5H40.1256L38.8395 14.5H35.1598L33.8737 20.5ZM28.0807 20.5H32.3395L33.6256 14.5H30.0807L28.0807 20.5Z" fill="#21262A"/>
<path d="M12.0504 52.912L11.1984 55H9.87836L13.5624 46.504H14.6424L18.2904 55H16.9464L16.0824 52.912H12.0504ZM14.0664 47.884L12.4704 51.868H15.6504L14.0664 47.884ZM20.4496 54.148V57.88H19.3216V49.312H20.4256V50.2H20.4616C20.8336 49.6 21.5776 49.156 22.5136 49.156C24.2056 49.156 25.3576 50.464 25.3576 52.144C25.3576 53.812 24.2416 55.156 22.4896 55.156C21.6856 55.156 20.9056 54.784 20.4856 54.148H20.4496ZM24.1936 52.144C24.1936 51.076 23.5336 50.092 22.2976 50.092C21.1456 50.092 20.3776 51.064 20.3776 52.156C20.3776 53.248 21.1456 54.208 22.2976 54.208C23.5336 54.208 24.1936 53.212 24.1936 52.144ZM28.0551 54.148V57.88H26.9271V49.312H28.0311V50.2H28.0671C28.4391 49.6 29.1831 49.156 30.1191 49.156C31.8111 49.156 32.9631 50.464 32.9631 52.144C32.9631 53.812 31.8471 55.156 30.0951 55.156C29.2911 55.156 28.5111 54.784 28.0911 54.148H28.0551ZM31.7991 52.144C31.7991 51.076 31.1391 50.092 29.9031 50.092C28.7511 50.092 27.9831 51.064 27.9831 52.156C27.9831 53.248 28.7511 54.208 29.9031 54.208C31.1391 54.208 31.7991 53.212 31.7991 52.144ZM41.3845 50.092L40.6045 50.752C40.3525 50.344 39.8605 50.044 39.2845 50.044C38.7685 50.044 38.2285 50.248 38.2285 50.788C38.2285 51.268 38.6605 51.448 39.5245 51.64C40.6045 51.88 41.4325 52.324 41.4325 53.32C41.4325 54.664 40.3165 55.156 39.1645 55.156C38.3005 55.156 37.4125 54.82 36.8725 54.136L37.6765 53.452C37.9765 53.896 38.5525 54.244 39.1885 54.244C39.7525 54.244 40.3165 54.04 40.3165 53.416C40.3165 52.888 39.8005 52.696 38.8285 52.468C38.0725 52.288 37.1725 51.964 37.1725 50.896C37.1725 49.672 38.2405 49.156 39.3205 49.156C40.1245 49.156 40.9765 49.48 41.3845 50.092ZM45.6486 49.312V50.236H44.1366V53.2C44.1366 53.884 44.3766 54.16 44.9406 54.16C45.1446 54.16 45.4086 54.112 45.6006 54.016L45.6366 54.94C45.3726 55.036 45.0246 55.096 44.6766 55.096C43.6086 55.096 43.0206 54.496 43.0206 53.32V50.236H41.9286V49.312H43.0206V47.68H44.1366V49.312H45.6486ZM52.5738 52.144C52.5738 53.896 51.2418 55.156 49.5018 55.156C47.7618 55.156 46.4418 53.896 46.4418 52.144C46.4418 50.392 47.7618 49.156 49.5018 49.156C51.2418 49.156 52.5738 50.392 52.5738 52.144ZM51.3978 52.144C51.3978 51.064 50.7258 50.092 49.5018 50.092C48.2898 50.092 47.6058 51.064 47.6058 52.144C47.6058 53.224 48.2898 54.208 49.5018 54.208C50.7258 54.208 51.3978 53.224 51.3978 52.144ZM54.138 50.536C54.138 50.236 54.126 49.684 54.09 49.312H55.158C55.182 49.6 55.206 50.032 55.206 50.272H55.242C55.554 49.612 56.214 49.156 56.982 49.156C57.138 49.156 57.294 49.168 57.426 49.204L57.378 50.248C57.234 50.212 57.042 50.188 56.862 50.188C55.782 50.188 55.266 51.064 55.266 52.012V55H54.138V50.536ZM59.0547 51.652H62.4387C62.4147 50.752 61.8867 50.044 60.8427 50.044C59.8707 50.044 59.1267 50.764 59.0547 51.652ZM63.5787 52.108C63.5787 52.228 63.5787 52.36 63.5667 52.492H59.0547C59.0907 53.464 59.9067 54.22 60.9027 54.22C61.6707 54.22 62.2347 53.836 62.5587 53.356L63.3507 53.992C62.7387 54.784 61.9107 55.156 60.9027 55.156C59.1747 55.156 57.9027 53.956 57.9027 52.168C57.9027 50.392 59.1747 49.156 60.8427 49.156C62.5227 49.156 63.5787 50.296 63.5787 52.108Z" fill="#21262A"/>
</svg>
