<svg width="74" height="44" viewBox="0 0 74 44" fill="none" xmlns="http://www.w3.org/2000/svg">
<path fill-rule="evenodd" clip-rule="evenodd" d="M44.4381 12.0127C44.8011 12.0711 45.108 12.3266 45.2272 12.6836L47.5612 19.6836C47.777 20.3311 47.2945 21 46.6119 21H45.9996V31C45.9996 31.5523 45.5519 32 44.9996 32H37.5924L37.4733 31.9883C37.2031 31.9331 36.9996 31.6937 36.9996 31.4072V26C36.9996 24.8954 36.1042 24 34.9996 24C33.8952 24.0002 32.9996 24.8955 32.9996 26V31.4072C32.9996 31.7345 32.7341 32 32.4069 32H28.5553L28.443 31.9883C28.1901 31.9362 27.9996 31.7126 27.9996 31.4443V21H27.3873L27.2614 20.9922C26.6471 20.9161 26.2359 20.2905 26.4381 19.6836L28.7721 12.6836C28.9083 12.2755 29.2902 12.0002 29.7203 12H44.2789L44.4381 12.0127ZM29.4996 30.5H31.4996V26C31.4996 24.0671 33.0668 22.5002 34.9996 22.5C36.9326 22.5 38.4996 24.067 38.4996 26V30.5H44.4996V21H29.4996V30.5ZM41.6598 19.5H45.9186L43.9186 13.5H40.3737L41.6598 19.5ZM33.8737 19.5H40.1256L38.8395 13.5H35.1598L33.8737 19.5ZM28.0807 19.5H32.3395L33.6256 13.5H30.0807L28.0807 19.5Z" fill="#21262A"/>
</svg>
