<svg width="74" height="64" viewBox="0 0 74 64" fill="none" xmlns="http://www.w3.org/2000/svg">
<g clip-path="url(#clip0_497_90171)">
<rect x="27.8064" y="14" width="18" height="18" rx="9" stroke="#21262A" stroke-width="1.2"/>
<path d="M39.2742 18.0645C40.6371 18.0645 41.7419 19.1694 41.7419 20.5323C41.7419 21.8952 40.6371 23 39.2742 23C40.6371 23 41.7419 24.1048 41.7419 25.4677C41.7419 26.8306 40.6371 27.9355 39.2742 27.9355C37.9326 27.9355 36.8411 26.8649 36.8073 25.5314L36.8065 25.4677C36.8065 26.8306 35.7016 27.9355 34.3387 27.9355C32.9758 27.9355 31.871 26.8306 31.871 25.4677C31.871 24.1261 32.9416 23.0346 34.2751 23.0008L34.3387 23C32.9758 23 31.871 21.8952 31.871 20.5323C31.871 19.1694 32.9758 18.0645 34.3387 18.0645C35.7016 18.0645 36.8065 19.1694 36.8065 20.5323C36.8065 19.1694 37.9113 18.0645 39.2742 18.0645Z" fill="#21262A"/>
</g>
<path d="M14.7254 53.032L15.6734 53.68C15.0134 54.58 13.9214 55.216 12.4334 55.216C9.82942 55.216 7.95742 53.356 7.95742 50.74C7.95742 48.088 9.90142 46.288 12.4814 46.288C13.6454 46.288 14.9054 46.744 15.5294 47.608L14.5934 48.328C14.1854 47.752 13.3574 47.332 12.4814 47.332C10.5134 47.332 9.25342 48.88 9.25342 50.74C9.25342 52.648 10.4894 54.16 12.4454 54.16C13.3934 54.16 14.2214 53.764 14.7254 53.032ZM21.9015 55H20.8335C20.8095 54.712 20.7855 54.304 20.7855 54.064H20.7615C20.4735 54.664 19.7295 55.156 18.9015 55.156C17.4375 55.156 16.7775 54.112 16.7775 52.84V49.312H17.9055V52.456C17.9055 53.392 18.1575 54.208 19.2015 54.208C20.1015 54.208 20.7255 53.464 20.7255 52.336V49.312H21.8535V53.776C21.8535 54.076 21.8655 54.628 21.9015 55ZM27.6619 50.092L26.8819 50.752C26.6299 50.344 26.1379 50.044 25.5619 50.044C25.0459 50.044 24.5059 50.248 24.5059 50.788C24.5059 51.268 24.9379 51.448 25.8019 51.64C26.8819 51.88 27.7099 52.324 27.7099 53.32C27.7099 54.664 26.5939 55.156 25.4419 55.156C24.5779 55.156 23.6899 54.82 23.1499 54.136L23.9539 53.452C24.2539 53.896 24.8299 54.244 25.4659 54.244C26.0299 54.244 26.5939 54.04 26.5939 53.416C26.5939 52.888 26.0779 52.696 25.1059 52.468C24.3499 52.288 23.4499 51.964 23.4499 50.896C23.4499 49.672 24.5179 49.156 25.5979 49.156C26.4019 49.156 27.2539 49.48 27.6619 50.092ZM31.9259 49.312V50.236H30.4139V53.2C30.4139 53.884 30.6539 54.16 31.2179 54.16C31.4219 54.16 31.6859 54.112 31.8779 54.016L31.9139 54.94C31.6499 55.036 31.3019 55.096 30.9539 55.096C29.8859 55.096 29.2979 54.496 29.2979 53.32V50.236H28.2059V49.312H29.2979V47.68H30.4139V49.312H31.9259ZM38.8511 52.144C38.8511 53.896 37.5191 55.156 35.7791 55.156C34.0391 55.156 32.7191 53.896 32.7191 52.144C32.7191 50.392 34.0391 49.156 35.7791 49.156C37.5191 49.156 38.8511 50.392 38.8511 52.144ZM37.6751 52.144C37.6751 51.064 37.0031 50.092 35.7791 50.092C34.5671 50.092 33.8831 51.064 33.8831 52.144C33.8831 53.224 34.5671 54.208 35.7791 54.208C37.0031 54.208 37.6751 53.224 37.6751 52.144ZM41.5194 50.248C41.8074 49.648 42.4674 49.156 43.3314 49.156C44.0874 49.156 44.7474 49.492 45.0954 50.296C45.4794 49.564 46.2234 49.156 47.0274 49.156C48.4914 49.156 49.1514 50.2 49.1514 51.472V55H48.0234V51.844C48.0234 50.92 47.7474 50.104 46.7634 50.104C45.7314 50.104 45.3234 51.04 45.3234 51.928V55H44.1954V51.616C44.1954 50.728 43.8954 50.104 42.9954 50.104C42.1674 50.104 41.5434 50.848 41.5434 51.976V55H40.4154V50.536C40.4154 50.236 40.4034 49.684 40.3674 49.312H41.4354C41.4594 49.6 41.4834 50.008 41.4834 50.248H41.5194ZM51.836 51.652H55.22C55.196 50.752 54.668 50.044 53.624 50.044C52.652 50.044 51.908 50.764 51.836 51.652ZM56.36 52.108C56.36 52.228 56.36 52.36 56.348 52.492H51.836C51.872 53.464 52.688 54.22 53.684 54.22C54.452 54.22 55.016 53.836 55.34 53.356L56.132 53.992C55.52 54.784 54.692 55.156 53.684 55.156C51.956 55.156 50.684 53.956 50.684 52.168C50.684 50.392 51.956 49.156 53.624 49.156C55.304 49.156 56.36 50.296 56.36 52.108ZM57.9349 50.536C57.9349 50.236 57.9229 49.684 57.8869 49.312H58.9549C58.9789 49.6 59.0029 50.032 59.0029 50.272H59.0389C59.3509 49.612 60.0109 49.156 60.7789 49.156C60.9349 49.156 61.0909 49.168 61.2229 49.204L61.1749 50.248C61.0309 50.212 60.8389 50.188 60.6589 50.188C59.5789 50.188 59.0629 51.064 59.0629 52.012V55H57.9349V50.536ZM66.1345 50.092L65.3545 50.752C65.1025 50.344 64.6105 50.044 64.0345 50.044C63.5185 50.044 62.9785 50.248 62.9785 50.788C62.9785 51.268 63.4105 51.448 64.2745 51.64C65.3545 51.88 66.1825 52.324 66.1825 53.32C66.1825 54.664 65.0665 55.156 63.9145 55.156C63.0505 55.156 62.1625 54.82 61.6225 54.136L62.4265 53.452C62.7265 53.896 63.3025 54.244 63.9385 54.244C64.5025 54.244 65.0665 54.04 65.0665 53.416C65.0665 52.888 64.5505 52.696 63.5785 52.468C62.8225 52.288 61.9225 51.964 61.9225 50.896C61.9225 49.672 62.9905 49.156 64.0705 49.156C64.8745 49.156 65.7265 49.48 66.1345 50.092Z" fill="#21262A"/>
<defs>
<clipPath id="clip0_497_90171">
<rect x="27" y="13" width="20" height="20" rx="10" fill="white"/>
</clipPath>
</defs>
</svg>
