<svg width="74" height="64" viewBox="0 0 74 64" fill="none" xmlns="http://www.w3.org/2000/svg">
<g clip-path="url(#clip0_473_6311)">
<rect x="28" y="14" width="18" height="18" rx="9" stroke="#21262A" stroke-width="1.2"/>
<path d="M32.9354 18.2097H39.1774L41.9354 23L39.1774 27.7903H32.9354L35.6935 23L32.9354 18.2097Z" fill="#21262A"/>
</g>
<path d="M13.0462 51.112V53.944H17.4862V55H11.8582V46.504H17.3062V47.548H13.0462V50.092H17.0542V51.112H13.0462ZM18.1172 55L20.3972 52.012L18.3212 49.312H19.7132L21.1052 51.268L22.5092 49.312H23.8292L21.7772 52L24.0692 55H22.6652L21.0812 52.78L19.4732 55H18.1172ZM26.2621 54.148V57.88H25.1341V49.312H26.2381V50.2H26.2741C26.6461 49.6 27.3901 49.156 28.3261 49.156C30.0181 49.156 31.1701 50.464 31.1701 52.144C31.1701 53.812 30.0541 55.156 28.3021 55.156C27.4981 55.156 26.7181 54.784 26.2981 54.148H26.2621ZM30.0061 52.144C30.0061 51.076 29.3461 50.092 28.1101 50.092C26.9581 50.092 26.1901 51.064 26.1901 52.156C26.1901 53.248 26.9581 54.208 28.1101 54.208C29.3461 54.208 30.0061 53.212 30.0061 52.144ZM33.5196 51.652H36.9036C36.8796 50.752 36.3516 50.044 35.3076 50.044C34.3356 50.044 33.5916 50.764 33.5196 51.652ZM38.0436 52.108C38.0436 52.228 38.0436 52.36 38.0316 52.492H33.5196C33.5556 53.464 34.3716 54.22 35.3676 54.22C36.1356 54.22 36.6996 53.836 37.0236 53.356L37.8156 53.992C37.2036 54.784 36.3756 55.156 35.3676 55.156C33.6396 55.156 32.3676 53.956 32.3676 52.168C32.3676 50.392 33.6396 49.156 35.3076 49.156C36.9876 49.156 38.0436 50.296 38.0436 52.108ZM39.5705 49.312H40.6385C40.6625 49.6 40.6865 50.008 40.6865 50.248H40.7225C40.9985 49.636 41.7545 49.156 42.5705 49.156C44.0345 49.156 44.6945 50.2 44.6945 51.472V55H43.5665V51.844C43.5665 50.92 43.3145 50.104 42.2705 50.104C41.3825 50.104 40.7465 50.848 40.7465 51.976V55H39.6185V50.536C39.6185 50.236 39.6065 49.684 39.5705 49.312ZM50.4549 50.092L49.6749 50.752C49.4229 50.344 48.9309 50.044 48.3549 50.044C47.8389 50.044 47.2989 50.248 47.2989 50.788C47.2989 51.268 47.7309 51.448 48.5949 51.64C49.6749 51.88 50.5029 52.324 50.5029 53.32C50.5029 54.664 49.3869 55.156 48.2349 55.156C47.3709 55.156 46.4829 54.82 45.9429 54.136L46.7469 53.452C47.0469 53.896 47.6229 54.244 48.2589 54.244C48.8229 54.244 49.3869 54.04 49.3869 53.416C49.3869 52.888 48.8709 52.696 47.8989 52.468C47.1429 52.288 46.2429 51.964 46.2429 50.896C46.2429 49.672 47.3109 49.156 48.3909 49.156C49.1949 49.156 50.0469 49.48 50.4549 50.092ZM52.7149 51.652H56.0989C56.0749 50.752 55.5469 50.044 54.5029 50.044C53.5309 50.044 52.7869 50.764 52.7149 51.652ZM57.2389 52.108C57.2389 52.228 57.2389 52.36 57.2269 52.492H52.7149C52.7509 53.464 53.5669 54.22 54.5629 54.22C55.3309 54.22 55.8949 53.836 56.2189 53.356L57.0109 53.992C56.3989 54.784 55.5709 55.156 54.5629 55.156C52.8349 55.156 51.5629 53.956 51.5629 52.168C51.5629 50.392 52.8349 49.156 54.5029 49.156C56.1829 49.156 57.2389 50.296 57.2389 52.108ZM62.6658 50.092L61.8858 50.752C61.6338 50.344 61.1418 50.044 60.5658 50.044C60.0498 50.044 59.5098 50.248 59.5098 50.788C59.5098 51.268 59.9418 51.448 60.8058 51.64C61.8858 51.88 62.7138 52.324 62.7138 53.32C62.7138 54.664 61.5978 55.156 60.4458 55.156C59.5818 55.156 58.6938 54.82 58.1538 54.136L58.9578 53.452C59.2578 53.896 59.8338 54.244 60.4698 54.244C61.0338 54.244 61.5978 54.04 61.5978 53.416C61.5978 52.888 61.0818 52.696 60.1098 52.468C59.3538 52.288 58.4538 51.964 58.4538 50.896C58.4538 49.672 59.5218 49.156 60.6018 49.156C61.4058 49.156 62.2578 49.48 62.6658 50.092Z" fill="#21262A"/>
<defs>
<clipPath id="clip0_473_6311">
<rect x="27" y="13" width="20" height="20" rx="10" fill="white"/>
</clipPath>
</defs>
</svg>
