<svg width="20" height="20" viewBox="0 0 20 20" fill="none" xmlns="http://www.w3.org/2000/svg">
<g clip-path="url(#clip0_520_108)">
<rect x="1" y="1" width="18" height="18" rx="9" stroke="#21262A" stroke-width="1.2"/>
<path d="M10.0001 4.91937C12.806 4.91937 15.0807 6.1217 15.0807 7.60486C15.0807 8.65046 13.9502 9.55644 12.3 10C13.9502 10.4436 15.0807 11.3496 15.0807 12.3952C15.0807 13.8783 12.806 15.0807 10.0001 15.0807C7.19412 15.0807 4.91943 13.8783 4.91943 12.3952C4.91943 11.3496 6.04991 10.4436 7.70004 10C6.04991 9.55642 4.91943 8.65043 4.91943 7.60486C4.91943 6.1217 7.19412 4.91937 10.0001 4.91937Z" fill="#21262A"/>
</g>
<defs>
<clipPath id="clip0_520_108">
<rect width="20" height="20" rx="10" fill="white"/>
</clipPath>
</defs>
</svg>
