<svg width="74" height="64" viewBox="0 0 74 64" fill="none" xmlns="http://www.w3.org/2000/svg">
<g clip-path="url(#clip0_473_6431)">
<rect x="28" y="14" width="18" height="18" rx="9" stroke="#21262A" stroke-width="1.2"/>
<path d="M38.3065 28.5161C41.2097 25.4677 41.2097 20.5322 38.3065 17.4839L32.3549 23L38.3065 28.5161Z" fill="#21262A"/>
</g>
<path d="M11.7257 46.504L14.2697 53.032H14.2937L16.8017 46.504H18.6497V55H17.4617V47.896H17.4377L14.6177 55H13.8617L11.0537 47.896H11.0297V55H9.8777V46.504H11.7257ZM24.1975 51.472V51.316C24.1975 50.476 23.6335 50.068 22.7935 50.068C22.1575 50.068 21.5575 50.344 21.1735 50.728L20.5735 50.008C21.1255 49.48 21.9775 49.156 22.9015 49.156C24.5335 49.156 25.2775 50.128 25.2775 51.388V53.872C25.2775 54.256 25.3015 54.724 25.3615 55H24.3415C24.2815 54.748 24.2455 54.448 24.2455 54.184H24.2095C23.8015 54.796 23.1535 55.144 22.3015 55.144C21.4015 55.144 20.2375 54.7 20.2375 53.392C20.2375 51.676 22.2775 51.472 24.1975 51.472ZM24.1975 52.288H23.9215C22.8055 52.288 21.3895 52.408 21.3895 53.368C21.3895 54.04 21.9895 54.256 22.5535 54.256C23.6095 54.256 24.1975 53.548 24.1975 52.588V52.288ZM27.1615 50.536C27.1615 50.236 27.1495 49.684 27.1135 49.312H28.1815C28.2055 49.6 28.2295 50.032 28.2295 50.272H28.2655C28.5775 49.612 29.2375 49.156 30.0055 49.156C30.1615 49.156 30.3175 49.168 30.4495 49.204L30.4015 50.248C30.2575 50.212 30.0655 50.188 29.8855 50.188C28.8055 50.188 28.2895 51.064 28.2895 52.012V55H27.1615V50.536ZM32.6611 45.928V51.784H32.6971L35.0851 49.312H36.5971L33.9331 51.892L36.8251 55H35.2651L32.6971 52.048H32.6611V55H31.5331V45.928H32.6611ZM38.4063 51.652H41.7903C41.7663 50.752 41.2383 50.044 40.1943 50.044C39.2223 50.044 38.4783 50.764 38.4063 51.652ZM42.9303 52.108C42.9303 52.228 42.9303 52.36 42.9183 52.492H38.4063C38.4423 53.464 39.2583 54.22 40.2543 54.22C41.0223 54.22 41.5863 53.836 41.9103 53.356L42.7023 53.992C42.0903 54.784 41.2623 55.156 40.2543 55.156C38.5263 55.156 37.2543 53.956 37.2543 52.168C37.2543 50.392 38.5263 49.156 40.1943 49.156C41.8743 49.156 42.9303 50.296 42.9303 52.108ZM47.2892 49.312V50.236H45.7772V53.2C45.7772 53.884 46.0172 54.16 46.5812 54.16C46.7852 54.16 47.0492 54.112 47.2412 54.016L47.2772 54.94C47.0132 55.036 46.6652 55.096 46.3172 55.096C45.2492 55.096 44.6612 54.496 44.6612 53.32V50.236H43.5692V49.312H44.6612V47.68H45.7772V49.312H47.2892ZM49.5944 49.312V55H48.4664V49.312H49.5944ZM49.7864 47.26C49.7864 47.668 49.4384 47.98 49.0304 47.98C48.6224 47.98 48.2864 47.656 48.2864 47.26C48.2864 46.852 48.6224 46.528 49.0304 46.528C49.4384 46.528 49.7864 46.84 49.7864 47.26ZM51.5119 49.312H52.5799C52.6039 49.6 52.6279 50.008 52.6279 50.248H52.6639C52.9399 49.636 53.6959 49.156 54.5119 49.156C55.9759 49.156 56.6359 50.2 56.6359 51.472V55H55.5079V51.844C55.5079 50.92 55.2559 50.104 54.2119 50.104C53.3239 50.104 52.6879 50.848 52.6879 51.976V55H51.5599V50.536C51.5599 50.236 51.5479 49.684 51.5119 49.312ZM58.2683 56.848L58.9883 55.972C59.4803 56.524 60.2843 56.896 61.0643 56.896C62.5643 56.896 63.0683 55.972 63.0683 54.796V54.064H63.0443C62.6243 54.7 61.8443 55.048 61.0403 55.048C59.3003 55.048 58.1723 53.752 58.1723 52.12C58.1723 50.488 59.2883 49.156 61.0283 49.156C61.8443 49.156 62.6483 49.516 63.0803 50.224H63.1043V49.312H64.1963V54.712C64.1963 56.368 63.4163 57.88 61.0523 57.88C60.0683 57.88 58.9763 57.496 58.2683 56.848ZM59.3363 52.096C59.3363 53.14 60.0323 54.1 61.2203 54.1C62.3843 54.1 63.1523 53.224 63.1523 52.096C63.1523 51.016 62.3723 50.092 61.2203 50.092C60.0323 50.092 59.3363 51.004 59.3363 52.096Z" fill="#21262A"/>
<defs>
<clipPath id="clip0_473_6431">
<rect x="27" y="13" width="20" height="20" rx="10" fill="white"/>
</clipPath>
</defs>
</svg>
