<svg width="74" height="64" viewBox="0 0 74 64" fill="none" xmlns="http://www.w3.org/2000/svg">
<g clip-path="url(#clip0_473_6451)">
<rect x="28" y="14" width="18" height="18" rx="9" stroke="#21262A" stroke-width="1.2"/>
<path d="M32.9354 18.2097H39.1774C42.1882 20.6936 42.1882 25.3064 39.1774 27.7903H32.9354C35.9462 25.3064 35.9462 20.6936 32.9354 18.2097Z" fill="#21262A"/>
</g>
<path d="M19.6746 55V46.504H22.2666C24.1026 46.504 25.3026 47.212 25.3026 48.868C25.3026 50.572 23.9706 51.268 22.2066 51.268H20.8626V55H19.6746ZM20.8626 47.512V50.26H22.1226C23.2866 50.26 24.1026 49.876 24.1026 48.868C24.1026 47.848 23.2626 47.512 22.1466 47.512H20.8626ZM29.6233 51.472V51.316C29.6233 50.476 29.0593 50.068 28.2193 50.068C27.5833 50.068 26.9833 50.344 26.5993 50.728L25.9993 50.008C26.5513 49.48 27.4033 49.156 28.3273 49.156C29.9593 49.156 30.7033 50.128 30.7033 51.388V53.872C30.7033 54.256 30.7273 54.724 30.7873 55H29.7673C29.7073 54.748 29.6713 54.448 29.6713 54.184H29.6353C29.2273 54.796 28.5793 55.144 27.7273 55.144C26.8273 55.144 25.6633 54.7 25.6633 53.392C25.6633 51.676 27.7033 51.472 29.6233 51.472ZM29.6233 52.288H29.3473C28.2313 52.288 26.8153 52.408 26.8153 53.368C26.8153 54.04 27.4153 54.256 27.9793 54.256C29.0353 54.256 29.6233 53.548 29.6233 52.588V52.288ZM32.9832 49.312L34.7472 53.776H34.7712L36.3432 49.312H37.5432L34.7832 56.344C34.4112 57.292 33.9312 57.88 32.8152 57.88C32.5752 57.88 32.3232 57.856 32.0712 57.796L32.1792 56.8C32.3592 56.86 32.5632 56.896 32.7432 56.896C33.3312 56.896 33.5592 56.56 33.7992 55.948L34.1592 55L31.7232 49.312H32.9832ZM38.6341 50.536C38.6341 50.236 38.6221 49.684 38.5861 49.312H39.6541C39.6781 49.6 39.7021 50.032 39.7021 50.272H39.7381C40.0501 49.612 40.7101 49.156 41.4781 49.156C41.6341 49.156 41.7901 49.168 41.9221 49.204L41.8741 50.248C41.7301 50.212 41.5381 50.188 41.3581 50.188C40.2781 50.188 39.7621 51.064 39.7621 52.012V55H38.6341V50.536ZM48.5308 52.144C48.5308 53.896 47.1988 55.156 45.4588 55.156C43.7188 55.156 42.3988 53.896 42.3988 52.144C42.3988 50.392 43.7188 49.156 45.4588 49.156C47.1988 49.156 48.5308 50.392 48.5308 52.144ZM47.3548 52.144C47.3548 51.064 46.6828 50.092 45.4588 50.092C44.2468 50.092 43.5628 51.064 43.5628 52.144C43.5628 53.224 44.2468 54.208 45.4588 54.208C46.6828 54.208 47.3548 53.224 47.3548 52.144ZM51.247 45.928V55H50.119V45.928H51.247ZM54.3642 45.928V55H53.2362V45.928H54.3642Z" fill="#21262A"/>
<defs>
<clipPath id="clip0_473_6451">
<rect x="27" y="13" width="20" height="20" rx="10" fill="white"/>
</clipPath>
</defs>
</svg>
