<svg width="74" height="64" viewBox="0 0 74 64" fill="none" xmlns="http://www.w3.org/2000/svg">
<g clip-path="url(#clip0_473_6347)">
<rect x="28" y="14" width="18" height="18" rx="9" stroke="#21262A" stroke-width="1.2"/>
<path d="M41.3548 27.2097H32.6451V24.4516H35.5484V21.6936H38.4516V18.7903H41.3548V27.2097Z" fill="#21262A"/>
</g>
<path d="M28.764 47.26L27.924 48.076C27.588 47.608 26.976 47.284 26.268 47.284C25.5 47.284 24.612 47.704 24.612 48.664C24.612 49.588 25.392 49.84 26.352 50.152C27.492 50.512 28.848 50.944 28.848 52.636C28.848 54.4 27.42 55.216 25.908 55.216C24.84 55.216 23.76 54.796 23.112 53.98L24.036 53.2C24.432 53.788 25.152 54.196 25.932 54.196C26.724 54.196 27.636 53.752 27.636 52.744C27.636 51.712 26.7 51.436 25.62 51.1C24.54 50.764 23.412 50.272 23.412 48.712C23.412 47.02 24.924 46.288 26.328 46.288C27.312 46.288 28.236 46.672 28.764 47.26ZM34.012 51.472V51.316C34.012 50.476 33.448 50.068 32.608 50.068C31.972 50.068 31.372 50.344 30.988 50.728L30.388 50.008C30.94 49.48 31.792 49.156 32.716 49.156C34.348 49.156 35.092 50.128 35.092 51.388V53.872C35.092 54.256 35.116 54.724 35.176 55H34.156C34.096 54.748 34.06 54.448 34.06 54.184H34.024C33.616 54.796 32.968 55.144 32.116 55.144C31.216 55.144 30.052 54.7 30.052 53.392C30.052 51.676 32.092 51.472 34.012 51.472ZM34.012 52.288H33.736C32.62 52.288 31.204 52.408 31.204 53.368C31.204 54.04 31.804 54.256 32.368 54.256C33.424 54.256 34.012 53.548 34.012 52.588V52.288ZM38.1279 45.928V55H36.9999V45.928H38.1279ZM40.8731 51.652H44.2571C44.2331 50.752 43.7051 50.044 42.6611 50.044C41.6891 50.044 40.9451 50.764 40.8731 51.652ZM45.3971 52.108C45.3971 52.228 45.3971 52.36 45.3851 52.492H40.8731C40.9091 53.464 41.7251 54.22 42.7211 54.22C43.4891 54.22 44.0531 53.836 44.3771 53.356L45.1691 53.992C44.5571 54.784 43.7291 55.156 42.7211 55.156C40.9931 55.156 39.7211 53.956 39.7211 52.168C39.7211 50.392 40.9931 49.156 42.6611 49.156C44.3411 49.156 45.3971 50.296 45.3971 52.108ZM50.824 50.092L50.044 50.752C49.792 50.344 49.3 50.044 48.724 50.044C48.208 50.044 47.668 50.248 47.668 50.788C47.668 51.268 48.1 51.448 48.964 51.64C50.044 51.88 50.872 52.324 50.872 53.32C50.872 54.664 49.756 55.156 48.604 55.156C47.74 55.156 46.852 54.82 46.312 54.136L47.116 53.452C47.416 53.896 47.992 54.244 48.628 54.244C49.192 54.244 49.756 54.04 49.756 53.416C49.756 52.888 49.24 52.696 48.268 52.468C47.512 52.288 46.612 51.964 46.612 50.896C46.612 49.672 47.68 49.156 48.76 49.156C49.564 49.156 50.416 49.48 50.824 50.092Z" fill="#21262A"/>
<defs>
<clipPath id="clip0_473_6347">
<rect x="27" y="13" width="20" height="20" rx="10" fill="white"/>
</clipPath>
</defs>
</svg>
