<svg width="74" height="64" viewBox="0 0 74 64" fill="none" xmlns="http://www.w3.org/2000/svg">
<path d="M37 19.6691C37.9205 19.6704 38.6678 18.9254 38.6691 18.0049C38.6705 17.0844 37.9255 16.3371 37.005 16.3357C36.0845 16.3343 35.3372 17.0794 35.3358 17.9999C35.3344 18.9204 36.0795 19.6677 37 19.6691Z" fill="#393A3D"/>
<path d="M37 24.6691C37.9205 24.6704 38.6678 23.9254 38.6691 23.0049C38.6705 22.0844 37.9255 21.3371 37.005 21.3357C36.0845 21.3343 35.3372 22.0794 35.3358 22.9999C35.3344 23.9204 36.0795 24.6677 37 24.6691Z" fill="#393A3D"/>
<path d="M37 29.6691C37.9205 29.6704 38.6678 28.9254 38.6691 28.0049C38.6705 27.0844 37.9255 26.3371 37.005 26.3357C36.0845 26.3343 35.3372 27.0794 35.3358 27.9999C35.3344 28.9204 36.0795 29.6677 37 29.6691Z" fill="#393A3D"/>
<path d="M10.2667 46.504L12.8107 53.032H12.8347L15.3427 46.504H17.1907V55H16.0027V47.896H15.9787L13.1587 55H12.4027L9.59472 47.896H9.57072V55H8.41872V46.504H10.2667ZM24.9586 52.144C24.9586 53.896 23.6266 55.156 21.8866 55.156C20.1466 55.156 18.8266 53.896 18.8266 52.144C18.8266 50.392 20.1466 49.156 21.8866 49.156C23.6266 49.156 24.9586 50.392 24.9586 52.144ZM23.7826 52.144C23.7826 51.064 23.1106 50.092 21.8866 50.092C20.6746 50.092 19.9906 51.064 19.9906 52.144C19.9906 53.224 20.6746 54.208 21.8866 54.208C23.1106 54.208 23.7826 53.224 23.7826 52.144ZM26.5228 50.536C26.5228 50.236 26.5108 49.684 26.4748 49.312H27.5428C27.5668 49.6 27.5908 50.032 27.5908 50.272H27.6268C27.9388 49.612 28.5988 49.156 29.3668 49.156C29.5228 49.156 29.6788 49.168 29.8108 49.204L29.7628 50.248C29.6188 50.212 29.4268 50.188 29.2468 50.188C28.1668 50.188 27.6508 51.064 27.6508 52.012V55H26.5228V50.536ZM31.4395 51.652H34.8235C34.7995 50.752 34.2715 50.044 33.2275 50.044C32.2555 50.044 31.5115 50.764 31.4395 51.652ZM35.9635 52.108C35.9635 52.228 35.9635 52.36 35.9515 52.492H31.4395C31.4755 53.464 32.2915 54.22 33.2875 54.22C34.0555 54.22 34.6195 53.836 34.9435 53.356L35.7355 53.992C35.1235 54.784 34.2955 55.156 33.2875 55.156C31.5595 55.156 30.2875 53.956 30.2875 52.168C30.2875 50.392 31.5595 49.156 33.2275 49.156C34.9075 49.156 35.9635 50.296 35.9635 52.108ZM44.0784 51.472V51.316C44.0784 50.476 43.5144 50.068 42.6744 50.068C42.0384 50.068 41.4384 50.344 41.0544 50.728L40.4544 50.008C41.0064 49.48 41.8584 49.156 42.7824 49.156C44.4144 49.156 45.1584 50.128 45.1584 51.388V53.872C45.1584 54.256 45.1824 54.724 45.2424 55H44.2224C44.1624 54.748 44.1264 54.448 44.1264 54.184H44.0904C43.6824 54.796 43.0344 55.144 42.1824 55.144C41.2824 55.144 40.1184 54.7 40.1184 53.392C40.1184 51.676 42.1584 51.472 44.0784 51.472ZM44.0784 52.288H43.8024C42.6864 52.288 41.2704 52.408 41.2704 53.368C41.2704 54.04 41.8704 54.256 42.4344 54.256C43.4904 54.256 44.0784 53.548 44.0784 52.588V52.288ZM48.1703 54.148V57.88H47.0423V49.312H48.1463V50.2H48.1823C48.5543 49.6 49.2983 49.156 50.2343 49.156C51.9263 49.156 53.0783 50.464 53.0783 52.144C53.0783 53.812 51.9623 55.156 50.2103 55.156C49.4063 55.156 48.6263 54.784 48.2063 54.148H48.1703ZM51.9143 52.144C51.9143 51.076 51.2543 50.092 50.0183 50.092C48.8663 50.092 48.0983 51.064 48.0983 52.156C48.0983 53.248 48.8663 54.208 50.0183 54.208C51.2543 54.208 51.9143 53.212 51.9143 52.144ZM55.7758 54.148V57.88H54.6478V49.312H55.7518V50.2H55.7878C56.1598 49.6 56.9038 49.156 57.8398 49.156C59.5318 49.156 60.6838 50.464 60.6838 52.144C60.6838 53.812 59.5678 55.156 57.8158 55.156C57.0118 55.156 56.2318 54.784 55.8118 54.148H55.7758ZM59.5198 52.144C59.5198 51.076 58.8598 50.092 57.6238 50.092C56.4718 50.092 55.7038 51.064 55.7038 52.156C55.7038 53.248 56.4718 54.208 57.6238 54.208C58.8598 54.208 59.5198 53.212 59.5198 52.144ZM66.1053 50.092L65.3253 50.752C65.0733 50.344 64.5813 50.044 64.0053 50.044C63.4893 50.044 62.9493 50.248 62.9493 50.788C62.9493 51.268 63.3813 51.448 64.2453 51.64C65.3253 51.88 66.1533 52.324 66.1533 53.32C66.1533 54.664 65.0373 55.156 63.8853 55.156C63.0213 55.156 62.1333 54.82 61.5933 54.136L62.3973 53.452C62.6973 53.896 63.2733 54.244 63.9093 54.244C64.4733 54.244 65.0373 54.04 65.0373 53.416C65.0373 52.888 64.5213 52.696 63.5493 52.468C62.7933 52.288 61.8933 51.964 61.8933 50.896C61.8933 49.672 62.9613 49.156 64.0413 49.156C64.8453 49.156 65.6973 49.48 66.1053 50.092Z" fill="#21262A"/>
</svg>
