<svg width="74" height="64" viewBox="0 0 74 64" fill="none" xmlns="http://www.w3.org/2000/svg">
<g clip-path="url(#clip0_473_6487)">
<rect width="18" height="18" rx="9" transform="matrix(-1 0 0 1 46 14)" stroke="#21262A" stroke-width="1.2"/>
<path d="M37.871 20.8226L37.1452 18.7903H32.7904V27.2097H41.2097V20.8226H37.871Z" fill="#21262A"/>
</g>
<path d="M27.3498 47.548V55H26.1618V47.548H23.4378V46.504H30.0738V47.548H27.3498ZM32.1452 49.312V55H31.0172V49.312H32.1452ZM32.3372 47.26C32.3372 47.668 31.9892 47.98 31.5812 47.98C31.1732 47.98 30.8372 47.656 30.8372 47.26C30.8372 46.852 31.1732 46.528 31.5812 46.528C31.9892 46.528 32.3372 46.84 32.3372 47.26ZM35.2147 50.248C35.5027 49.648 36.1627 49.156 37.0267 49.156C37.7827 49.156 38.4427 49.492 38.7907 50.296C39.1747 49.564 39.9187 49.156 40.7227 49.156C42.1867 49.156 42.8467 50.2 42.8467 51.472V55H41.7187V51.844C41.7187 50.92 41.4427 50.104 40.4587 50.104C39.4267 50.104 39.0187 51.04 39.0187 51.928V55H37.8907V51.616C37.8907 50.728 37.5907 50.104 36.6907 50.104C35.8627 50.104 35.2387 50.848 35.2387 51.976V55H34.1107V50.536C34.1107 50.236 34.0987 49.684 34.0627 49.312H35.1307C35.1547 49.6 35.1787 50.008 35.1787 50.248H35.2147ZM45.5313 51.652H48.9153C48.8913 50.752 48.3633 50.044 47.3193 50.044C46.3473 50.044 45.6033 50.764 45.5313 51.652ZM50.0553 52.108C50.0553 52.228 50.0553 52.36 50.0433 52.492H45.5313C45.5673 53.464 46.3833 54.22 47.3793 54.22C48.1473 54.22 48.7113 53.836 49.0353 53.356L49.8273 53.992C49.2153 54.784 48.3873 55.156 47.3793 55.156C45.6513 55.156 44.3793 53.956 44.3793 52.168C44.3793 50.392 45.6513 49.156 47.3193 49.156C48.9993 49.156 50.0553 50.296 50.0553 52.108Z" fill="#21262A"/>
<defs>
<clipPath id="clip0_473_6487">
<rect x="27" y="13" width="20" height="20" rx="10" fill="white"/>
</clipPath>
</defs>
</svg>
