<svg width="23" height="24" viewBox="0 0 23 24" fill="none" xmlns="http://www.w3.org/2000/svg">
<path d="M12.9737 12.1938L13.0957 23.4005H9.07202L9.19397 12.1938H12.9737Z" fill="#1C0265"/>
<path d="M12.4199 10.843L20.3452 18.6821L17.4965 21.5567L9.74854 13.5439L12.4199 10.843Z" fill="#4988F0"/>
<path d="M11.0846 10.2846L22.169 10.167V14.2294L11.0846 14.1061V10.2846Z" fill="#98C2F5"/>
<path d="M9.74854 10.8433L17.5021 2.83604L20.3452 5.71057L12.4199 13.5441L9.74854 10.8433Z" fill="#C0DDF6"/>
<path d="M11.0844 14.1045L0 14.2278V10.1598L11.0844 10.2831V14.1045Z" fill="#1B4BE7"/>
<path d="M12.4195 13.5439L4.66599 21.5567L1.82288 18.6821L9.74821 10.843L12.4195 13.5439Z" fill="#1E27BE"/>
<circle cx="11.0816" cy="2.81195" r="2.81195" fill="#1C0265"/>
<path d="M12.3942 10.8183C12.751 11.1658 12.9742 11.6529 12.9742 12.1934C12.974 13.2485 12.128 14.1037 11.0844 14.1038C10.5626 14.1038 10.0904 13.8896 9.74844 13.5439L9.74787 13.5451L1.82251 5.70568L4.67167 2.83089L12.3942 10.8183Z" fill="#236CFF"/>
</svg>
