<svg width="24" height="24" viewBox="0 0 24 24" fill="none" xmlns="http://www.w3.org/2000/svg">
<path fill-rule="evenodd" clip-rule="evenodd" d="M18 2C19.1046 2 20 2.89543 20 4V21C20 21.7726 19.1729 22.2346 18.5264 21.8818L18.4004 21.7998L12 17L5.59961 21.7998C4.94038 22.294 4 21.824 4 21V4C4 2.89543 4.89543 2 6 2H18ZM6 3.5C5.72386 3.5 5.5 3.72386 5.5 4V19.999L11.0996 15.7998C11.6329 15.3998 12.3671 15.3998 12.9004 15.7998L18.5 19.999V4C18.5 3.72386 18.2761 3.5 18 3.5H6Z" fill="#21262A"/>
</svg>
