<svg width="24" height="24" viewBox="0 0 24 24" fill="none" xmlns="http://www.w3.org/2000/svg">
<path d="M18.014 15.991C17.8825 15.9909 17.7522 15.965 17.6307 15.9145C17.5092 15.8641 17.3989 15.7901 17.306 15.697L12.021 10.397L6.72101 15.682C6.62863 15.7773 6.51818 15.8534 6.3961 15.9056C6.27402 15.9578 6.14277 15.9852 6.00999 15.9862C5.87722 15.9871 5.74558 15.9616 5.62276 15.9112C5.49994 15.8607 5.3884 15.7863 5.29464 15.6923C5.20088 15.5983 5.12679 15.4865 5.07668 15.3636C5.02658 15.2406 5.00146 15.1089 5.0028 14.9761C5.00414 14.8433 5.0319 14.7122 5.08448 14.5902C5.13705 14.4683 5.21338 14.3581 5.30901 14.266L11.317 8.27496C11.5045 8.08749 11.7588 7.98218 12.024 7.98218C12.2892 7.98218 12.5435 8.08749 12.731 8.27496L18.723 14.284C18.8625 14.4239 18.9575 14.6021 18.9958 14.796C19.0341 14.9898 19.0142 15.1907 18.9384 15.3733C18.8627 15.5558 18.7345 15.7118 18.5702 15.8216C18.4058 15.9313 18.2126 15.9899 18.015 15.99L18.014 15.991Z" fill="#21262A"/>
</svg>
