<svg width="24" height="24" viewBox="0 0 24 24" fill="none" xmlns="http://www.w3.org/2000/svg">
<path d="M9.00899 19.013C8.81086 19.0136 8.61704 18.9552 8.4521 18.8455C8.28717 18.7357 8.15857 18.5794 8.08261 18.3964C8.00665 18.2134 7.98676 18.012 8.02546 17.8177C8.06416 17.6234 8.15971 17.4449 8.29999 17.305L13.6 12.02L8.31899 6.72001C8.22621 6.62703 8.15265 6.51669 8.10251 6.39529C8.05238 6.27389 8.02665 6.1438 8.02678 6.01245C8.02692 5.8811 8.05293 5.75106 8.10333 5.62977C8.15372 5.50847 8.22751 5.39829 8.32049 5.30551C8.41346 5.21273 8.5238 5.13917 8.64521 5.08904C8.76661 5.0389 8.8967 5.01317 9.02805 5.01331C9.1594 5.01345 9.28943 5.03945 9.41073 5.08985C9.53202 5.14024 9.64221 5.21403 9.73499 5.30701L15.726 11.316C15.9135 11.5035 16.0188 11.7578 16.0188 12.023C16.0188 12.2882 15.9135 12.5425 15.726 12.73L9.71499 18.721C9.62238 18.8138 9.51233 18.8874 9.39116 18.9375C9.26999 18.9877 9.14011 19.0133 9.00899 19.013Z" fill="#21262A"/>
</svg>
