<svg width="24" height="24" viewBox="0 0 24 24" fill="none" xmlns="http://www.w3.org/2000/svg">
<path d="M12.014 16.018C11.8824 16.018 11.7522 15.992 11.6307 15.9415C11.5092 15.8911 11.3989 15.8172 11.306 15.724L5.314 9.715C5.22109 9.62203 5.1474 9.51166 5.09714 9.39021C5.04688 9.26875 5.02104 9.13859 5.02109 9.00715C5.02113 8.87571 5.04707 8.74556 5.09741 8.62414C5.14776 8.50273 5.22152 8.39241 5.3145 8.2995C5.40747 8.20659 5.51784 8.1329 5.63929 8.08265C5.76075 8.03239 5.89091 8.00655 6.02235 8.00659C6.15379 8.00664 6.28394 8.03257 6.40536 8.08292C6.52677 8.13326 6.63709 8.20703 6.73 8.3L12.016 13.6L17.316 8.315C17.5038 8.12763 17.7583 8.02252 18.0236 8.0228C18.2888 8.02308 18.5431 8.12873 18.7305 8.3165C18.9179 8.50427 19.023 8.75879 19.0227 9.02406C19.0224 9.28933 18.9168 9.54363 18.729 9.731L12.72 15.726C12.5326 15.9129 12.2787 16.0179 12.014 16.018Z" fill="#21262A"/>
</svg>
