<svg width="24" height="24" viewBox="0 0 24 24" fill="none" xmlns="http://www.w3.org/2000/svg">
<path d="M15.009 19.022C14.8775 19.022 14.7472 18.996 14.6257 18.9455C14.5042 18.8951 14.3939 18.8211 14.301 18.728L8.31001 12.72C8.21703 12.6271 8.14328 12.5168 8.09295 12.3954C8.04263 12.274 8.01672 12.1439 8.01672 12.0125C8.01672 11.8811 8.04263 11.7509 8.09295 11.6295C8.14328 11.5081 8.21703 11.3979 8.31001 11.305L14.319 5.31398C14.5068 5.12647 14.7614 5.02124 15.0267 5.02142C15.2921 5.02161 15.5465 5.12721 15.734 5.31498C15.9215 5.50275 16.0268 5.75732 16.0266 6.02269C16.0264 6.28805 15.9208 6.54247 15.733 6.72998L10.433 12.015L15.718 17.315C15.8575 17.4549 15.9525 17.6331 15.9908 17.827C16.0291 18.0209 16.0092 18.2218 15.9334 18.4043C15.8577 18.5868 15.7295 18.7428 15.5652 18.8526C15.4008 18.9623 15.2076 19.0209 15.01 19.021L15.009 19.022Z" fill="#21262A"/>
</svg>
