<svg width="24" height="24" viewBox="0 0 24 24" fill="none" xmlns="http://www.w3.org/2000/svg">
<path fill-rule="evenodd" clip-rule="evenodd" d="M15 2C16.6569 2 18 3.34315 18 5V6H19C20.6569 6 22 7.34315 22 9V10C22 10.5523 21.5523 11 21 11C20.4477 11 20 10.5523 20 10V9C20 8.44772 19.5523 8 19 8H18V15C18 16.6569 16.6569 18 15 18H8V19C8 19.5523 8.44772 20 9 20H10C10.5523 20 11 20.4477 11 21C11 21.5523 10.5523 22 10 22H9C7.34315 22 6 20.6569 6 19V18H5C3.34315 18 2 16.6569 2 15V5C2 3.34315 3.34315 2 5 2H15ZM5 4C4.44772 4 4 4.44772 4 5V15C4 15.5523 4.44772 16 5 16H15C15.5523 16 16 15.5523 16 15V5C16 4.44772 15.5523 4 15 4H5Z" fill="#393A3D"/>
<path d="M16 20C16.5523 20 17 20.4477 17 21C17 21.5523 16.5523 22 16 22H13C12.4477 22 12 21.5523 12 21C12 20.4477 12.4477 20 13 20H16Z" fill="#393A3D"/>
<path d="M21 18C21.5523 18 22 18.4477 22 19C22 20.6569 20.6569 22 19 22C18.4477 22 18 21.5523 18 21C18 20.4823 18.3933 20.0562 18.8975 20.0049L19.1025 19.9951C19.573 19.9472 19.9472 19.573 19.9951 19.1025L20.0049 18.8975C20.0562 18.3933 20.4823 18 21 18Z" fill="#393A3D"/>
<path d="M21 12C21.5523 12 22 12.4477 22 13V16C22 16.5523 21.5523 17 21 17C20.4477 17 20 16.5523 20 16V13C20 12.4477 20.4477 12 21 12Z" fill="#393A3D"/>
</svg>
