<svg width="74" height="44" viewBox="0 0 74 44" fill="none" xmlns="http://www.w3.org/2000/svg">
<path d="M37 18.25C37.4142 18.25 37.75 18.5858 37.75 19V21.25H40C40.4142 21.25 40.75 21.5858 40.75 22C40.75 22.4142 40.4142 22.75 40 22.75H37.75V25C37.75 25.4142 37.4142 25.75 37 25.75C36.5858 25.75 36.25 25.4142 36.25 25V22.75H34C33.5858 22.75 33.25 22.4142 33.25 22C33.25 21.5858 33.5858 21.25 34 21.25H36.25V19C36.25 18.5858 36.5858 18.25 37 18.25Z" fill="#21262A"/>
<path fill-rule="evenodd" clip-rule="evenodd" d="M37 12C42.5228 12 47 16.4771 47 22C47 27.5228 42.5228 32 37 32C31.4771 32 27 27.5228 27 22C27 16.4771 31.4771 12 37 12ZM37 13.5C32.3056 13.5 28.5 17.3056 28.5 22C28.5 26.6944 32.3056 30.5 37 30.5C41.6944 30.5 45.5 26.6944 45.5 22C45.5 17.3056 41.6944 13.5 37 13.5Z" fill="#21262A"/>
</svg>
