<svg width="74" height="64" viewBox="0 0 74 64" fill="none" xmlns="http://www.w3.org/2000/svg">
<path d="M37 19.25C37.4142 19.25 37.75 19.5858 37.75 20V22.25H40C40.4142 22.25 40.75 22.5858 40.75 23C40.75 23.4142 40.4142 23.75 40 23.75H37.75V26C37.75 26.4142 37.4142 26.75 37 26.75C36.5858 26.75 36.25 26.4142 36.25 26V23.75H34C33.5858 23.75 33.25 23.4142 33.25 23C33.25 22.5858 33.5858 22.25 34 22.25H36.25V20C36.25 19.5858 36.5858 19.25 37 19.25Z" fill="#21262A"/>
<path fill-rule="evenodd" clip-rule="evenodd" d="M37 13C42.5228 13 47 17.4771 47 23C47 28.5228 42.5228 33 37 33C31.4771 33 27 28.5228 27 23C27 17.4771 31.4771 13 37 13ZM37 14.5C32.3056 14.5 28.5 18.3056 28.5 23C28.5 27.6944 32.3056 31.5 37 31.5C41.6944 31.5 45.5 27.6944 45.5 23C45.5 18.3056 41.6944 14.5 37 14.5Z" fill="#21262A"/>
<path d="M26.0399 53.032L26.9879 53.68C26.3279 54.58 25.2359 55.216 23.7479 55.216C21.1439 55.216 19.2719 53.356 19.2719 50.74C19.2719 48.088 21.2159 46.288 23.7959 46.288C24.9599 46.288 26.2199 46.744 26.8439 47.608L25.9079 48.328C25.4999 47.752 24.6719 47.332 23.7959 47.332C21.8279 47.332 20.5679 48.88 20.5679 50.74C20.5679 52.648 21.8039 54.16 23.7599 54.16C24.7079 54.16 25.5359 53.764 26.0399 53.032ZM28.14 50.536C28.14 50.236 28.128 49.684 28.092 49.312H29.16C29.184 49.6 29.208 50.032 29.208 50.272H29.244C29.556 49.612 30.216 49.156 30.984 49.156C31.14 49.156 31.296 49.168 31.428 49.204L31.38 50.248C31.236 50.212 31.044 50.188 30.864 50.188C29.784 50.188 29.268 51.064 29.268 52.012V55H28.14V50.536ZM33.0567 51.652H36.4407C36.4167 50.752 35.8887 50.044 34.8447 50.044C33.8727 50.044 33.1287 50.764 33.0567 51.652ZM37.5807 52.108C37.5807 52.228 37.5807 52.36 37.5687 52.492H33.0567C33.0927 53.464 33.9087 54.22 34.9047 54.22C35.6727 54.22 36.2367 53.836 36.5607 53.356L37.3527 53.992C36.7407 54.784 35.9127 55.156 34.9047 55.156C33.1767 55.156 31.9047 53.956 31.9047 52.168C31.9047 50.392 33.1767 49.156 34.8447 49.156C36.5247 49.156 37.5807 50.296 37.5807 52.108ZM42.6253 51.472V51.316C42.6253 50.476 42.0613 50.068 41.2213 50.068C40.5853 50.068 39.9853 50.344 39.6013 50.728L39.0013 50.008C39.5533 49.48 40.4053 49.156 41.3293 49.156C42.9613 49.156 43.7053 50.128 43.7053 51.388V53.872C43.7053 54.256 43.7293 54.724 43.7893 55H42.7693C42.7093 54.748 42.6733 54.448 42.6733 54.184H42.6373C42.2293 54.796 41.5813 55.144 40.7293 55.144C39.8293 55.144 38.6653 54.7 38.6653 53.392C38.6653 51.676 40.7053 51.472 42.6253 51.472ZM42.6253 52.288H42.3493C41.2333 52.288 39.8173 52.408 39.8173 53.368C39.8173 54.04 40.4173 54.256 40.9813 54.256C42.0373 54.256 42.6253 53.548 42.6253 52.588V52.288ZM48.256 49.312V50.236H46.744V53.2C46.744 53.884 46.984 54.16 47.548 54.16C47.752 54.16 48.016 54.112 48.208 54.016L48.244 54.94C47.98 55.036 47.632 55.096 47.284 55.096C46.216 55.096 45.628 54.496 45.628 53.32V50.236H44.536V49.312H45.628V47.68H46.744V49.312H48.256ZM50.2012 51.652H53.5852C53.5612 50.752 53.0332 50.044 51.9892 50.044C51.0172 50.044 50.2732 50.764 50.2012 51.652ZM54.7252 52.108C54.7252 52.228 54.7252 52.36 54.7132 52.492H50.2012C50.2372 53.464 51.0532 54.22 52.0492 54.22C52.8172 54.22 53.3812 53.836 53.7052 53.356L54.4972 53.992C53.8852 54.784 53.0572 55.156 52.0492 55.156C50.3212 55.156 49.0492 53.956 49.0492 52.168C49.0492 50.392 50.3212 49.156 51.9892 49.156C53.6692 49.156 54.7252 50.296 54.7252 52.108Z" fill="#21262A"/>
</svg>
