<svg width="74" height="44" viewBox="0 0 74 44" fill="none" xmlns="http://www.w3.org/2000/svg">
<path fill-rule="evenodd" clip-rule="evenodd" d="M33 24C34.3976 24 35.569 24.9565 35.9023 26.25H46C46.4142 26.25 46.75 26.5858 46.75 27C46.75 27.4142 46.4142 27.75 46 27.75H35.9023C35.569 29.0435 34.3976 30 33 30C31.6024 30 30.431 29.0435 30.0977 27.75H28C27.5858 27.75 27.25 27.4142 27.25 27C27.25 26.5858 27.5858 26.25 28 26.25H30.0977C30.431 24.9565 31.6024 24 33 24ZM33 25.5C32.1716 25.5 31.5 26.1716 31.5 27C31.5 27.8284 32.1716 28.5 33 28.5C33.8284 28.5 34.5 27.8284 34.5 27C34.5 26.1716 33.8284 25.5 33 25.5Z" fill="#393A3D"/>
<path fill-rule="evenodd" clip-rule="evenodd" d="M41 14C42.3976 14 43.569 14.9565 43.9023 16.25H46C46.4142 16.25 46.75 16.5858 46.75 17C46.75 17.4142 46.4142 17.75 46 17.75H43.9023C43.569 19.0435 42.3976 20 41 20C39.6024 20 38.431 19.0435 38.0977 17.75H28C27.5858 17.75 27.25 17.4142 27.25 17C27.25 16.5858 27.5858 16.25 28 16.25H38.0977C38.431 14.9565 39.6024 14 41 14ZM41 15.5C40.1716 15.5 39.5 16.1716 39.5 17C39.5 17.8284 40.1716 18.5 41 18.5C41.8284 18.5 42.5 17.8284 42.5 17C42.5 16.1716 41.8284 15.5 41 15.5Z" fill="#393A3D"/>
</svg>
