<svg width="24" height="24" viewBox="0 0 24 24" fill="none" xmlns="http://www.w3.org/2000/svg">
<path d="M21.782 9.375L17.782 4.375C17.6882 4.2578 17.5691 4.16323 17.4338 4.09832C17.2984 4.0334 17.1501 3.99979 17 4H6.99999C6.85002 3.99994 6.70196 4.03362 6.56677 4.09853C6.43158 4.16344 6.31272 4.25793 6.21899 4.375L2.21899 9.375C2.06523 9.56721 1.98776 9.80938 2.00142 10.0551C2.01507 10.3009 2.11889 10.533 2.29299 10.707L11.293 19.707C11.4805 19.8945 11.7348 19.9998 12 19.9998C12.2652 19.9998 12.5195 19.8945 12.707 19.707L21.707 10.707C21.8812 10.5331 21.9852 10.3011 21.9991 10.0553C22.0129 9.80957 21.9356 9.56733 21.782 9.375V9.375ZM18.92 9H15.72L14.72 6H16.52L18.92 9ZM8.27999 11L9.71299 15.3L5.41399 11H8.27999ZM13.613 11L12 15.839L10.387 11H13.613ZM10.388 9L11.388 6H12.608L13.608 9H10.388ZM15.721 11H18.586L14.286 15.3L15.721 11ZM7.48099 6H9.28099L8.28099 9H5.08099L7.48099 6Z" fill="#393A3D"/>
</svg>
