<svg width="24" height="24" viewBox="0 0 24 24" fill="none" xmlns="http://www.w3.org/2000/svg">
<path d="M8.05114 16.4042C8.12507 16.3907 8.18821 16.3439 8.22849 16.2805C8.93786 15.1633 10.5945 15.1769 11.2744 16.3457L14.51 21.9069C14.5794 22.0263 14.5389 22.1793 14.4195 22.2487L13.3389 22.877L9.97754 17.0996C9.86424 16.9052 9.59141 16.9084 9.48242 17.1064L6.52454 22.4829C6.43324 22.6489 6.19772 22.657 6.09525 22.4976L2.79395 17.3652L8.05114 16.4042Z" fill="#21262A"/>
<path d="M21.7891 14.5977L15.4844 15.9316C15.2773 15.9755 15.174 16.2422 15.3262 16.4219L19.4453 21.2844C19.5684 21.4298 19.4902 21.654 19.3033 21.6912L13.3389 22.877L14.1643 17.5042C14.1753 17.4327 14.1539 17.3604 14.1106 17.3024C13.3389 16.2699 13.8754 14.7398 15.1738 14.4648L21.2339 13.1817C21.369 13.1531 21.5017 13.2394 21.5303 13.3745L21.7891 14.5977Z" fill="#21262A"/>
<path d="M7.45699 10.4032C7.49038 10.4706 7.55277 10.5185 7.62494 10.5397C8.89183 10.9126 9.33178 12.5104 8.4248 13.4902L4.06418 18.2005C3.97046 18.3018 3.81243 18.308 3.71109 18.2143L3.34375 17.875L2.79395 17.3652L7.32422 12.4717C7.48637 12.2965 7.38836 12.0204 7.17773 11.9727L1.25 10.6276C1.06372 10.5853 0.991741 10.3582 1.11965 10.2164L5.15039 5.74609L7.45699 10.4032Z" fill="#21262A"/>
<path d="M17.002 3.96973L16.1982 10.7197C16.1701 10.957 16.3951 11.1086 16.583 11.0361L22.3256 8.82121C22.5053 8.75187 22.6927 8.90336 22.6625 9.09364L21.7891 14.5977L17.2192 12.4801C17.1578 12.4516 17.0874 12.4502 17.0229 12.471C15.7851 12.8701 14.5537 11.8367 14.708 10.542L15.4831 4.04027C15.4994 3.90315 15.6239 3.80526 15.761 3.82162L17.002 3.96973Z" fill="#21262A"/>
<path d="M13.1972 7.85192C13.1441 7.90602 13.1195 7.98131 13.1237 8.05696C13.1955 9.3643 11.8647 10.3474 10.6211 9.79883L4.77367 7.21908C4.64734 7.16335 4.59012 7.01575 4.64586 6.88942L5.15039 5.74609L11.2266 8.42676C11.4157 8.51018 11.6529 8.35924 11.624 8.11523L10.894 2.00159C10.8717 1.81443 11.0566 1.67079 11.2324 1.73878L17.002 3.96973L13.1972 7.85192Z" fill="#21262A"/>
<path d="M5.375 6.625L4.07895 9.5L8 11L8.5 12.5L3.5 17.5L6.05257 19.6842L10 16L12 19L13.8684 21.579C15.7045 21.9541 15.4795 20.8354 17.3157 21.2105L15 17.5L14.5 15.5L20.8125 14.5625L22.25 9.5L20.8125 10.0625C19.3125 10.5625 16.9 12 16.5 12C16.1 12 15.6667 11.3333 15.5 11L16.5 4.375L12.5 3.73685V7.75833L12 9.5L5.375 6.625Z" fill="#21262A"/>
</svg>
