<svg width="24" height="24" viewBox="0 0 24 24" fill="none" xmlns="http://www.w3.org/2000/svg">
<path d="M8.16797 16.3828C8.83881 15.1635 10.5743 15.1423 11.2744 16.3457L14.6357 22.123L13.3389 22.877L9.97754 17.0996C9.86424 16.9052 9.59141 16.9084 9.48242 17.1064L6.32227 22.8506L5.66504 22.4893L5.00781 22.127L8.16797 16.3828Z" fill="#21262A"/>
<path d="M21.7891 14.5977L15.4844 15.9316C15.2773 15.9755 15.174 16.2422 15.3262 16.4219L19.7197 21.6084L18.5752 22.5781L14.1816 17.3916C13.3081 16.3604 13.8374 14.7478 15.1738 14.4648L21.4785 13.1299L21.7891 14.5977Z" fill="#21262A"/>
<path d="M7.50977 10.5098C8.86448 10.8171 9.35874 12.4812 8.4248 13.4902L3.89453 18.3838L3.34375 17.875L2.79395 17.3652L7.32422 12.4717C7.48637 12.2965 7.38836 12.0204 7.17773 11.9727L0.833984 10.5332L1.16602 9.07031L7.50977 10.5098Z" fill="#21262A"/>
<path d="M17.002 3.96973L16.1982 10.7197C16.1701 10.957 16.3951 11.1086 16.583 11.0361L22.7305 8.66504L23.2695 10.0645L17.123 12.4355C15.8525 12.9256 14.5495 11.8716 14.708 10.542L15.5127 3.79199L17.002 3.96973Z" fill="#21262A"/>
<path d="M13.1133 7.9375C13.2761 9.30344 11.9023 10.364 10.6211 9.79883L4.54492 7.11816L5.15039 5.74609L11.2266 8.42676C11.4157 8.51018 11.6529 8.35924 11.624 8.11523L10.8447 1.58887L12.335 1.41113L13.1133 7.9375Z" fill="#21262A"/>
</svg>
