<svg width="24" height="24" viewBox="0 0 24 24" fill="none" xmlns="http://www.w3.org/2000/svg">
<path d="M19 20.25C19.4142 20.25 19.75 20.5858 19.75 21C19.75 21.4142 19.4142 21.75 19 21.75H5C4.58579 21.75 4.25 21.4142 4.25 21C4.25 20.5858 4.58579 20.25 5 20.25H19Z" fill="#21262A"/>
<path fill-rule="evenodd" clip-rule="evenodd" d="M20.2041 6.01074C21.2128 6.113 22 6.96435 22 8V16L21.9893 16.2041C21.8938 17.1457 21.1457 17.8938 20.2041 17.9893L20 18H4C2.96435 18 2.113 17.2128 2.01074 16.2041L2 16V8C2 6.89543 2.89543 6 4 6H20L20.2041 6.01074ZM4 7.5C3.72386 7.5 3.5 7.72386 3.5 8V16C3.5 16.2761 3.72386 16.5 4 16.5H20C20.2761 16.5 20.5 16.2761 20.5 16V8C20.5 7.72386 20.2761 7.5 20 7.5H4Z" fill="#21262A"/>
<path d="M19 2.25C19.4142 2.25 19.75 2.58579 19.75 3C19.75 3.41421 19.4142 3.75 19 3.75H5C4.58579 3.75 4.25 3.41421 4.25 3C4.25 2.58579 4.58579 2.25 5 2.25H19Z" fill="#21262A"/>
</svg>
