<svg width="24" height="24" viewBox="0 0 24 24" fill="none" xmlns="http://www.w3.org/2000/svg">
<path d="M20.025 7.99397L4.02499 7.96997C3.75977 7.96997 3.50542 7.86461 3.31788 7.67708C3.13034 7.48954 3.02499 7.23519 3.02499 6.96997C3.02499 6.70475 3.13034 6.4504 3.31788 6.26286C3.50542 6.07533 3.75977 5.96997 4.02499 5.96997L20.025 5.99397C20.2902 5.99397 20.5446 6.09933 20.7321 6.28686C20.9196 6.4744 21.025 6.72875 21.025 6.99397C21.025 7.25919 20.9196 7.51354 20.7321 7.70108C20.5446 7.88861 20.2902 7.99397 20.025 7.99397Z" fill="#21262A"/>
<path d="M20.018 12.994L4.01799 12.97C3.75277 12.97 3.49842 12.8646 3.31088 12.6771C3.12334 12.4895 3.01799 12.2352 3.01799 11.97C3.01799 11.7048 3.12334 11.4504 3.31088 11.2629C3.49842 11.0753 3.75277 10.97 4.01799 10.97L20.018 10.994C20.2832 10.994 20.5376 11.0993 20.7251 11.2869C20.9126 11.4744 21.018 11.7288 21.018 11.994C21.018 12.2592 20.9126 12.5135 20.7251 12.7011C20.5376 12.8886 20.2832 12.994 20.018 12.994Z" fill="#21262A"/>
<path d="M20.011 17.994L4.01099 17.97C3.74577 17.97 3.49142 17.8646 3.30388 17.6771C3.11634 17.4895 3.01099 17.2352 3.01099 16.97C3.01099 16.7048 3.11634 16.4504 3.30388 16.2629C3.49142 16.0753 3.74577 15.97 4.01099 15.97L20.011 15.994C20.2762 15.994 20.5306 16.0993 20.7181 16.2869C20.9056 16.4744 21.011 16.7288 21.011 16.994C21.011 17.2592 20.9056 17.5135 20.7181 17.7011C20.5306 17.8886 20.2762 17.994 20.011 17.994Z" fill="#21262A"/>
</svg>
