<svg width="24" height="24" viewBox="0 0 24 24" fill="none" xmlns="http://www.w3.org/2000/svg">
<path d="M11 22H3C2.46957 22 1.96086 21.7893 1.58579 21.4142C1.21071 21.0391 1 20.5304 1 20V19.19C1.00022 18.3458 1.24619 17.5199 1.70789 16.8132C2.16958 16.1064 2.82704 15.5494 3.6 15.21C2.99514 14.4438 2.6661 13.4962 2.666 12.52V10.85C2.66955 9.70445 3.12441 8.60646 3.932 7.794C4.7558 7.00279 5.85337 6.56035 6.99559 6.55904C8.13781 6.55774 9.23639 6.99767 10.062 7.787C10.8712 8.60141 11.3268 9.70194 11.33 10.85V12.52C11.3316 13.4967 11.0032 14.4454 10.398 15.212C11.1713 15.5505 11.8293 16.1071 12.2914 16.8135C12.7535 17.52 12.9997 18.3458 13 19.19V20C13 20.5304 12.7893 21.0391 12.4142 21.4142C12.0391 21.7893 11.5304 22 11 22ZM7 8.52C6.69395 8.51974 6.39084 8.57982 6.10804 8.69683C5.82523 8.81383 5.56827 8.98544 5.35185 9.20185C5.13544 9.41827 4.96383 9.67523 4.84683 9.95804C4.72982 10.2408 4.66974 10.5439 4.67 10.85V12.52C4.66836 12.9272 4.77431 13.3277 4.97712 13.6808C5.17994 14.0339 5.47243 14.3272 5.825 14.531C5.97746 14.619 6.10398 14.7457 6.19177 14.8983C6.27956 15.0509 6.32552 15.224 6.325 15.4V15.85C6.325 16.1152 6.21964 16.3696 6.03211 16.5571C5.84457 16.7446 5.59022 16.85 5.325 16.85C4.70683 16.8534 4.11519 17.1016 3.67948 17.5401C3.24377 17.9786 2.99946 18.5718 3 19.19V20H11V19.19C11.0005 18.571 10.7555 17.977 10.3188 17.5383C9.88196 17.0997 9.28904 16.8521 8.67 16.85C8.40478 16.85 8.15043 16.7446 7.96289 16.5571C7.77536 16.3696 7.67 16.1152 7.67 15.85V15.4C7.67013 15.2226 7.71743 15.0485 7.80705 14.8954C7.89667 14.7424 8.02539 14.6159 8.18 14.529C8.35788 14.425 8.52243 14.2998 8.67 14.156C9.09546 13.718 9.33239 13.1307 9.33 12.52V10.85C9.33026 10.5439 9.27018 10.2408 9.15318 9.95804C9.03617 9.67523 8.86456 9.41827 8.64815 9.20185C8.43173 8.98544 8.17477 8.81383 7.89196 8.69683C7.60916 8.57982 7.30605 8.51974 7 8.52Z" fill="#393A3D"/>
<path d="M13 14C12.8296 13.9999 12.6621 13.9563 12.5133 13.8733C12.3645 13.7902 12.2394 13.6706 12.1498 13.5256C12.0602 13.3806 12.0092 13.2152 12.0015 13.045C11.9939 12.8748 12.0298 12.7054 12.106 12.553L13.106 10.553C13.189 10.3869 13.3166 10.2472 13.4745 10.1496C13.6324 10.0519 13.8143 10.0001 14 10H20.33C20.5076 9.99974 20.6779 9.92906 20.8035 9.80347C20.9291 9.67788 20.9997 9.50761 21 9.33V4.67C20.9997 4.49239 20.9291 4.32212 20.8035 4.19653C20.6779 4.07094 20.5076 4.00026 20.33 4H11.67C11.4924 4.00026 11.3221 4.07094 11.1965 4.19653C11.0709 4.32212 11.0003 4.49239 11 4.67V5C11 5.26522 10.8946 5.51957 10.7071 5.70711C10.5196 5.89464 10.2652 6 10 6C9.73478 6 9.48043 5.89464 9.29289 5.70711C9.10536 5.51957 9 5.26522 9 5V4.67C9.00053 3.96203 9.282 3.28322 9.78261 2.78261C10.2832 2.282 10.962 2.00053 11.67 2H20.33C21.038 2.00053 21.7168 2.282 22.2174 2.78261C22.718 3.28322 22.9995 3.96203 23 4.67V9.33C22.9995 10.038 22.718 10.7168 22.2174 11.2174C21.7168 11.718 21.038 11.9995 20.33 12H14.618L13.9 13.447C13.8166 13.614 13.688 13.7543 13.529 13.852C13.3699 13.9498 13.1867 14.001 13 14Z" fill="#393A3D"/>
<path d="M13 8C13.5523 8 14 7.55228 14 7C14 6.44772 13.5523 6 13 6C12.4477 6 12 6.44772 12 7C12 7.55228 12.4477 8 13 8Z" fill="#393A3D"/>
<path d="M16 8C16.5523 8 17 7.55228 17 7C17 6.44772 16.5523 6 16 6C15.4477 6 15 6.44772 15 7C15 7.55228 15.4477 8 16 8Z" fill="#393A3D"/>
<path d="M19 8C19.5523 8 20 7.55228 20 7C20 6.44772 19.5523 6 19 6C18.4477 6 18 6.44772 18 7C18 7.55228 18.4477 8 19 8Z" fill="#393A3D"/>
</svg>
