<svg width="74" height="44" viewBox="0 0 74 44" fill="none" xmlns="http://www.w3.org/2000/svg">
<path d="M28 12.25C28.4142 12.25 28.75 12.5858 28.75 13V29C28.75 29.6904 29.3096 30.25 30 30.25H46C46.4142 30.25 46.75 30.5858 46.75 31C46.75 31.4142 46.4142 31.75 46 31.75H30C28.4812 31.75 27.25 30.5188 27.25 29V13C27.25 12.5858 27.5858 12.25 28 12.25Z" fill="#21262A"/>
<path d="M44.5 13C45.3284 13 46 13.6716 46 14.5C46 15.3284 45.3284 16 44.5 16L44.498 15.999L39.6494 24.376C39.5233 24.5938 39.2961 24.734 39.0449 24.749C38.7937 24.764 38.5515 24.6514 38.4004 24.4502L36.0557 21.3242L31.6357 28.3975C31.4162 28.7486 30.9538 28.8553 30.6025 28.6357C30.2514 28.4162 30.1448 27.9538 30.3643 27.6025L35.3643 19.6025L35.417 19.5273C35.5514 19.3616 35.7517 19.2603 35.9678 19.251C36.2147 19.2405 36.4512 19.3522 36.5996 19.5498L38.9189 22.6416L43.2002 15.2471C43.0734 15.027 43 14.7722 43 14.5C43 13.6716 43.6716 13 44.5 13Z" fill="#21262A"/>
</svg>
