<svg width="24" height="24" viewBox="0 0 24 24" fill="none" xmlns="http://www.w3.org/2000/svg">
<path d="M12.9997 2C14.104 2.00038 14.9997 2.89565 14.9997 4V4.58301C15.7963 4.9055 16.5285 5.35285 17.1726 5.89941L17.6355 5.63379L17.8171 5.54102C18.7415 5.12603 19.8484 5.46985 20.3659 6.36621L21.3659 8.09766C21.9172 9.05302 21.5915 10.277 20.6355 10.8301L19.9607 11.2178C19.986 11.4748 19.9997 11.7356 19.9997 12C19.9997 12.4887 19.9542 12.9667 19.8698 13.4307L20.2224 13.6338C21.1184 14.1514 21.4636 15.2591 21.0485 16.1836L20.9548 16.3662L19.9548 18.0977C19.4026 19.0538 18.1791 19.382 17.2224 18.8301L16.654 18.502C16.1444 18.8673 15.5897 19.1741 14.9997 19.4131V20C14.9997 21.1044 14.104 21.9996 12.9997 22H10.9997C9.89574 21.9997 8.99971 21.1047 8.99971 20V19.4131C8.40975 19.1741 7.85509 18.8673 7.34542 18.502L6.77901 18.8301C5.82235 19.3822 4.59781 19.0537 4.04561 18.0977L3.04659 16.3662C2.49436 15.4095 2.8218 14.1859 3.77803 13.6338L4.1296 13.4297C4.04522 12.9661 3.99971 12.4884 3.99971 12C3.99971 11.7357 4.0134 11.4748 4.03878 11.2178L3.3669 10.8301C2.41113 10.278 2.08118 9.05454 2.6335 8.09766L3.6335 6.36621C4.18576 5.41007 5.4094 5.0818 6.36592 5.63379L6.82589 5.89941C7.47007 5.35263 8.20294 4.90557 8.99971 4.58301V4C8.99971 2.89525 9.89574 2.0003 10.9997 2H12.9997ZM11.9997 9C10.3429 9 8.99971 10.3431 8.99971 12C8.99971 13.6569 10.3429 15 11.9997 15C13.6566 15 14.9997 13.6569 14.9997 12C14.9997 10.3431 13.6566 9 11.9997 9Z" fill="#21262A"/>
</svg>
