<svg width="74" height="44" viewBox="0 0 74 44" fill="none" xmlns="http://www.w3.org/2000/svg">
<path fill-rule="evenodd" clip-rule="evenodd" d="M36.0522 12.846C36.3563 11.9349 37.6445 11.9349 37.9487 12.846L39.9438 18.8294C39.9694 18.9056 40.0293 18.9634 40.103 18.9876L40.1811 19.0003H45.8803C46.8524 19.0009 47.2522 20.2483 46.4613 20.8137L42.1459 23.8967C42.0591 23.9589 42.0216 24.0689 42.0522 24.1712L44.0024 30.6721C44.2813 31.6031 43.2112 32.3266 42.4574 31.7708L42.3862 31.7122L37.1655 27.1448C37.0712 27.0623 36.9296 27.0624 36.8354 27.1448L31.6147 31.7122C30.8593 32.3729 29.7102 31.6334 29.9985 30.6721L31.9487 24.1712C31.9715 24.0946 31.9561 24.0134 31.9106 23.9514L31.8549 23.8967L27.5395 20.8137C26.7482 20.2483 27.148 19.0006 28.1205 19.0003H33.8197C33.9004 19.0001 33.9747 18.9611 34.0209 18.8987L34.0571 18.8294L36.0522 12.846ZM35.4809 19.304C35.2427 20.0183 34.5727 20.5001 33.8197 20.5003H29.6811L32.727 22.676C33.3357 23.1113 33.6012 23.8859 33.3862 24.6028L31.935 29.4387L35.8481 26.0159L35.975 25.9143C36.5859 25.472 37.415 25.4719 38.0258 25.9143L38.1528 26.0159L42.0649 29.4387L40.6147 24.6028C40.3996 23.8858 40.6648 23.1113 41.2738 22.676L44.3197 20.5003H40.1811C39.428 20.5003 38.7583 20.0183 38.5199 19.304L37.0004 14.7444L35.4809 19.304Z" fill="#21262A"/>
</svg>
