<svg width="74" height="64" viewBox="0 0 74 64" fill="none" xmlns="http://www.w3.org/2000/svg">
<path fill-rule="evenodd" clip-rule="evenodd" d="M36.0522 13.846C36.3563 12.9349 37.6445 12.9349 37.9487 13.846L39.9438 19.8294C39.9694 19.9056 40.0293 19.9634 40.103 19.9876L40.1811 20.0003H45.8803C46.8524 20.0009 47.2522 21.2483 46.4613 21.8137L42.1459 24.8967C42.0591 24.9589 42.0216 25.0689 42.0522 25.1712L44.0024 31.6721C44.2813 32.6031 43.2112 33.3266 42.4574 32.7708L42.3862 32.7122L37.1655 28.1448C37.0712 28.0623 36.9296 28.0624 36.8354 28.1448L31.6147 32.7122C30.8593 33.3729 29.7102 32.6334 29.9985 31.6721L31.9487 25.1712C31.9715 25.0946 31.9561 25.0134 31.9106 24.9514L31.8549 24.8967L27.5395 21.8137C26.7482 21.2483 27.148 20.0006 28.1205 20.0003H33.8197C33.9004 20.0001 33.9747 19.9611 34.0209 19.8987L34.0571 19.8294L36.0522 13.846ZM35.4809 20.304C35.2427 21.0183 34.5727 21.5001 33.8197 21.5003H29.6811L32.727 23.676C33.3357 24.1113 33.6012 24.8859 33.3862 25.6028L31.935 30.4387L35.8481 27.0159L35.975 26.9143C36.5859 26.472 37.415 26.4719 38.0258 26.9143L38.1528 27.0159L42.0649 30.4387L40.6147 25.6028C40.3996 24.8858 40.6648 24.1113 41.2738 23.676L44.3197 21.5003H40.1811C39.428 21.5003 38.7583 21.0183 38.5199 20.304L37.0004 15.7444L35.4809 20.304Z" fill="#21262A"/>
<path d="M17.3382 47.26L16.4982 48.076C16.1622 47.608 15.5502 47.284 14.8422 47.284C14.0742 47.284 13.1862 47.704 13.1862 48.664C13.1862 49.588 13.9662 49.84 14.9262 50.152C16.0662 50.512 17.4222 50.944 17.4222 52.636C17.4222 54.4 15.9942 55.216 14.4822 55.216C13.4142 55.216 12.3342 54.796 11.6862 53.98L12.6102 53.2C13.0062 53.788 13.7262 54.196 14.5062 54.196C15.2982 54.196 16.2102 53.752 16.2102 52.744C16.2102 51.712 15.2742 51.436 14.1942 51.1C13.1142 50.764 11.9862 50.272 11.9862 48.712C11.9862 47.02 13.4982 46.288 14.9022 46.288C15.8862 46.288 16.8102 46.672 17.3382 47.26ZM20.1982 50.176H20.2222C20.4862 49.612 21.2062 49.156 22.0222 49.156C23.4862 49.156 24.1462 50.2 24.1462 51.472V55H23.0182V51.856C23.0182 50.932 22.7782 50.116 21.7342 50.116C20.8462 50.116 20.1982 50.86 20.1982 51.988V55H19.0702V45.928H20.1982V50.176ZM31.814 52.144C31.814 53.896 30.482 55.156 28.742 55.156C27.002 55.156 25.682 53.896 25.682 52.144C25.682 50.392 27.002 49.156 28.742 49.156C30.482 49.156 31.814 50.392 31.814 52.144ZM30.638 52.144C30.638 51.064 29.966 50.092 28.742 50.092C27.53 50.092 26.846 51.064 26.846 52.144C26.846 53.224 27.53 54.208 28.742 54.208C29.966 54.208 30.638 53.224 30.638 52.144ZM33.3783 50.536C33.3783 50.236 33.3663 49.684 33.3303 49.312H34.3983C34.4223 49.6 34.4463 50.032 34.4463 50.272H34.4823C34.7943 49.612 35.4543 49.156 36.2223 49.156C36.3783 49.156 36.5343 49.168 36.6663 49.204L36.6183 50.248C36.4743 50.212 36.2823 50.188 36.1023 50.188C35.0223 50.188 34.5063 51.064 34.5063 52.012V55H33.3783V50.536ZM40.3693 49.312V50.236H38.8573V53.2C38.8573 53.884 39.0973 54.16 39.6613 54.16C39.8653 54.16 40.1293 54.112 40.3213 54.016L40.3573 54.94C40.0933 55.036 39.7453 55.096 39.3973 55.096C38.3293 55.096 37.7413 54.496 37.7413 53.32V50.236H36.6493V49.312H37.7413V47.68H38.8573V49.312H40.3693ZM46.3345 50.092L45.5185 50.752C45.2785 50.38 44.7505 50.104 44.2105 50.104C43.0345 50.104 42.3505 51.064 42.3505 52.156C42.3505 53.236 43.0345 54.208 44.2225 54.208C44.7985 54.208 45.2905 53.968 45.5905 53.584L46.3465 54.268C45.8665 54.82 45.1345 55.156 44.2225 55.156C42.4705 55.156 41.1625 53.968 41.1625 52.156C41.1625 50.368 42.4585 49.156 44.1985 49.156C45.0025 49.156 45.8665 49.48 46.3345 50.092ZM52.5402 55H51.4722C51.4482 54.712 51.4242 54.304 51.4242 54.064H51.4002C51.1122 54.664 50.3682 55.156 49.5402 55.156C48.0762 55.156 47.4162 54.112 47.4162 52.84V49.312H48.5442V52.456C48.5442 53.392 48.7962 54.208 49.8402 54.208C50.7402 54.208 51.3642 53.464 51.3642 52.336V49.312H52.4922V53.776C52.4922 54.076 52.5042 54.628 52.5402 55ZM57.2326 49.312V50.236H55.7206V53.2C55.7206 53.884 55.9606 54.16 56.5246 54.16C56.7286 54.16 56.9926 54.112 57.1846 54.016L57.2206 54.94C56.9566 55.036 56.6086 55.096 56.2606 55.096C55.1926 55.096 54.6046 54.496 54.6046 53.32V50.236H53.5126V49.312H54.6046V47.68H55.7206V49.312H57.2326ZM62.2498 50.092L61.4698 50.752C61.2178 50.344 60.7258 50.044 60.1498 50.044C59.6338 50.044 59.0938 50.248 59.0938 50.788C59.0938 51.268 59.5258 51.448 60.3898 51.64C61.4698 51.88 62.2978 52.324 62.2978 53.32C62.2978 54.664 61.1818 55.156 60.0298 55.156C59.1658 55.156 58.2778 54.82 57.7378 54.136L58.5418 53.452C58.8418 53.896 59.4178 54.244 60.0538 54.244C60.6178 54.244 61.1818 54.04 61.1818 53.416C61.1818 52.888 60.6658 52.696 59.6938 52.468C58.9378 52.288 58.0378 51.964 58.0378 50.896C58.0378 49.672 59.1058 49.156 60.1858 49.156C60.9898 49.156 61.8418 49.48 62.2498 50.092Z" fill="#21262A"/>
</svg>
