<svg width="24" height="24" viewBox="0 0 24 24" fill="none" xmlns="http://www.w3.org/2000/svg">
<path d="M13.4266 11.2131C13.6707 10.969 14.0663 10.9691 14.3104 11.2131C14.5545 11.4571 14.5545 11.8528 14.3104 12.0968L11.9537 14.4536C11.8365 14.5709 11.6775 14.6367 11.5118 14.6367C11.346 14.6365 11.187 14.5709 11.0699 14.4536L9.89148 13.2752C9.6475 13.0312 9.64747 12.6355 9.89148 12.3914C10.1355 12.1474 10.5312 12.1474 10.7753 12.3914L11.5118 13.1279L13.4266 11.2131Z" fill="#21262A"/>
<path fill-rule="evenodd" clip-rule="evenodd" d="M12 3.66667C13.1666 3.66667 14.1727 4.35184 14.6392 5.34148L17 5.33334C17.9205 5.33334 18.6667 6.07953 18.6667 7.00001V18.6667C18.6667 19.5872 17.9205 20.3333 17 20.3333H7.00004C6.07957 20.3333 5.33337 19.5872 5.33337 18.6667V7.00001C5.33337 6.13713 5.98885 5.42774 6.82914 5.34229L7.00004 5.33334L9.36007 5.34148C9.82649 4.35167 10.8333 3.66667 12 3.66667ZM14.9167 7.13917L14.9135 7.20997C14.8802 7.53677 14.6201 7.79688 14.2933 7.83008L14.2225 7.83334H9.77755C9.41812 7.8332 9.1222 7.56004 9.08663 7.20997L9.08337 7.13917V6.58985L7.00004 6.58334C6.77023 6.58334 6.58337 6.76957 6.58337 7.00001V18.6667C6.58337 18.8968 6.76992 19.0833 7.00004 19.0833H17C17.2301 19.0833 17.4167 18.8968 17.4167 18.6667V7.00001C17.4167 6.79823 17.2737 6.63011 17.0839 6.59148L17 6.58334H14.9167V7.13917ZM12 4.91667C11.0795 4.91667 10.3334 5.66286 10.3334 6.58334H13.6667C13.6667 5.66286 12.9205 4.91667 12 4.91667Z" fill="#21262A"/>
</svg>
