<svg width="24" height="24" viewBox="0 0 24 24" fill="none" xmlns="http://www.w3.org/2000/svg">
<path d="M8 11H5C4.20435 11 3.44129 10.6839 2.87868 10.1213C2.31607 9.55871 2 8.79565 2 8V5C2 4.20435 2.31607 3.44129 2.87868 2.87868C3.44129 2.31607 4.20435 2 5 2H8C8.79565 2 9.55871 2.31607 10.1213 2.87868C10.6839 3.44129 11 4.20435 11 5V8C11 8.79565 10.6839 9.55871 10.1213 10.1213C9.55871 10.6839 8.79565 11 8 11ZM5 4C4.73478 4 4.48043 4.10536 4.29289 4.29289C4.10536 4.48043 4 4.73478 4 5V8C4 8.26522 4.10536 8.51957 4.29289 8.70711C4.48043 8.89464 4.73478 9 5 9H8C8.26522 9 8.51957 8.89464 8.70711 8.70711C8.89464 8.51957 9 8.26522 9 8V5C9 4.73478 8.89464 4.48043 8.70711 4.29289C8.51957 4.10536 8.26522 4 8 4H5Z" fill="#21262A"/>
<path d="M19 11H16C15.2044 11 14.4413 10.6839 13.8787 10.1213C13.3161 9.55871 13 8.79565 13 8V5C13 4.20435 13.3161 3.44129 13.8787 2.87868C14.4413 2.31607 15.2044 2 16 2H19C19.7956 2 20.5587 2.31607 21.1213 2.87868C21.6839 3.44129 22 4.20435 22 5V8C22 8.79565 21.6839 9.55871 21.1213 10.1213C20.5587 10.6839 19.7956 11 19 11ZM16 4C15.7348 4 15.4804 4.10536 15.2929 4.29289C15.1054 4.48043 15 4.73478 15 5V8C15 8.26522 15.1054 8.51957 15.2929 8.70711C15.4804 8.89464 15.7348 9 16 9H19C19.2652 9 19.5196 8.89464 19.7071 8.70711C19.8946 8.51957 20 8.26522 20 8V5C20 4.73478 19.8946 4.48043 19.7071 4.29289C19.5196 4.10536 19.2652 4 19 4H16Z" fill="#21262A"/>
<path d="M8 22H5C4.20435 22 3.44129 21.6839 2.87868 21.1213C2.31607 20.5587 2 19.7956 2 19V16C2 15.2044 2.31607 14.4413 2.87868 13.8787C3.44129 13.3161 4.20435 13 5 13H8C8.79565 13 9.55871 13.3161 10.1213 13.8787C10.6839 14.4413 11 15.2044 11 16V19C11 19.7956 10.6839 20.5587 10.1213 21.1213C9.55871 21.6839 8.79565 22 8 22ZM5 15C4.73478 15 4.48043 15.1054 4.29289 15.2929C4.10536 15.4804 4 15.7348 4 16V19C4 19.2652 4.10536 19.5196 4.29289 19.7071C4.48043 19.8946 4.73478 20 5 20H8C8.26522 20 8.51957 19.8946 8.70711 19.7071C8.89464 19.5196 9 19.2652 9 19V16C9 15.7348 8.89464 15.4804 8.70711 15.2929C8.51957 15.1054 8.26522 15 8 15H5Z" fill="#21262A"/>
<path d="M19 22H16C15.2044 22 14.4413 21.6839 13.8787 21.1213C13.3161 20.5587 13 19.7956 13 19V16C13 15.2044 13.3161 14.4413 13.8787 13.8787C14.4413 13.3161 15.2044 13 16 13H19C19.7956 13 20.5587 13.3161 21.1213 13.8787C21.6839 14.4413 22 15.2044 22 16V19C22 19.7956 21.6839 20.5587 21.1213 21.1213C20.5587 21.6839 19.7956 22 19 22ZM16 15C15.7348 15 15.4804 15.1054 15.2929 15.2929C15.1054 15.4804 15 15.7348 15 16V19C15 19.2652 15.1054 19.5196 15.2929 19.7071C15.4804 19.8946 15.7348 20 16 20H19C19.2652 20 19.5196 19.8946 19.7071 19.7071C19.8946 19.5196 20 19.2652 20 19V16C20 15.7348 19.8946 15.4804 19.7071 15.2929C19.5196 15.1054 19.2652 15 19 15H16Z" fill="#21262A"/>
</svg>
