<svg width="24" height="24" viewBox="0 0 24 24" fill="none" xmlns="http://www.w3.org/2000/svg">
<path d="M8 11H5C4.20435 11 3.44129 10.6839 2.87868 10.1213C2.31607 9.55871 2 8.79565 2 8V5C2 4.20435 2.31607 3.44129 2.87868 2.87868C3.44129 2.31607 4.20435 2 5 2H8C8.79565 2 9.55871 2.31607 10.1213 2.87868C10.6839 3.44129 11 4.20435 11 5V8C11 8.79565 10.6839 9.55871 10.1213 10.1213C9.55871 10.6839 8.79565 11 8 11Z" fill="#21262A"/>
<path d="M19 11H16C15.2044 11 14.4413 10.6839 13.8787 10.1213C13.3161 9.55871 13 8.79565 13 8V5C13 4.20435 13.3161 3.44129 13.8787 2.87868C14.4413 2.31607 15.2044 2 16 2H19C19.7956 2 20.5587 2.31607 21.1213 2.87868C21.6839 3.44129 22 4.20435 22 5V8C22 8.79565 21.6839 9.55871 21.1213 10.1213C20.5587 10.6839 19.7956 11 19 11Z" fill="#21262A"/>
<path d="M8 22H5C4.20435 22 3.44129 21.6839 2.87868 21.1213C2.31607 20.5587 2 19.7956 2 19V16C2 15.2044 2.31607 14.4413 2.87868 13.8787C3.44129 13.3161 4.20435 13 5 13H8C8.79565 13 9.55871 13.3161 10.1213 13.8787C10.6839 14.4413 11 15.2044 11 16V19C11 19.7956 10.6839 20.5587 10.1213 21.1213C9.55871 21.6839 8.79565 22 8 22Z" fill="#21262A"/>
<path d="M19 22H16C15.2044 22 14.4413 21.6839 13.8787 21.1213C13.3161 20.5587 13 19.7956 13 19V16C13 15.2044 13.3161 14.4413 13.8787 13.8787C14.4413 13.3161 15.2044 13 16 13H19C19.7956 13 20.5587 13.3161 21.1213 13.8787C21.6839 14.4413 22 15.2044 22 16V19C22 19.7956 21.6839 20.5587 21.1213 21.1213C20.5587 21.6839 19.7956 22 19 22Z" fill="#21262A"/>
</svg>
