<svg width="74" height="64" viewBox="0 0 74 64" fill="none" xmlns="http://www.w3.org/2000/svg">
<path d="M19 11C19 7.68629 21.6863 5 25 5H49C52.3137 5 55 7.68629 55 11V35C55 38.3137 52.3137 41 49 41H25C21.6863 41 19 38.3137 19 35V11Z" fill="#002B21"/>
<path d="M28 13.25C28.4142 13.25 28.75 13.5858 28.75 14V30C28.75 30.6904 29.3096 31.25 30 31.25H46C46.4142 31.25 46.75 31.5858 46.75 32C46.75 32.4142 46.4142 32.75 46 32.75H30C28.4812 32.75 27.25 31.5188 27.25 30V14C27.25 13.5858 27.5858 13.25 28 13.25Z" fill="white"/>
<path d="M44.5 14C45.3284 14 46 14.6716 46 15.5C46 16.3284 45.3284 17 44.5 17L44.498 16.999L39.6494 25.376C39.5233 25.5938 39.2961 25.734 39.0449 25.749C38.7937 25.764 38.5515 25.6514 38.4004 25.4502L36.0557 22.3242L31.6357 29.3975C31.4162 29.7486 30.9538 29.8553 30.6025 29.6357C30.2514 29.4162 30.1448 28.9538 30.3643 28.6025L35.3643 20.6025L35.417 20.5273C35.5514 20.3616 35.7517 20.2603 35.9678 20.251C36.2147 20.2405 36.4512 20.3522 36.5996 20.5498L38.9189 23.6416L43.2002 16.2471C43.0734 16.027 43 15.7722 43 15.5C43 14.6716 43.6716 14 44.5 14Z" fill="white"/>
<path d="M16.5083 55V46.504H19.4603C21.0563 46.504 22.5923 47.14 22.5923 48.94C22.5923 50.164 21.8363 50.968 20.6483 51.232L22.9163 55H21.0923L19.1243 51.4H18.0203V55H16.5083ZM18.0203 50.164H19.2563C20.1083 50.164 21.0803 49.96 21.0803 48.928C21.0803 48.004 20.1683 47.776 19.3883 47.776H18.0203V50.164ZM24.9465 51.544H27.8985C27.8985 50.8 27.4785 50.152 26.5425 50.152C25.6905 50.152 25.0065 50.74 24.9465 51.544ZM29.3385 52.192C29.3385 52.324 29.3385 52.444 29.3265 52.576H24.9465C25.0065 53.392 25.7505 53.992 26.5905 53.992C27.3105 53.992 27.7905 53.704 28.1145 53.248L29.0745 54.016C28.5105 54.784 27.6945 55.168 26.6025 55.168C24.8265 55.168 23.5065 54.028 23.5065 52.156C23.5065 50.296 24.8145 49.072 26.5545 49.072C28.1625 49.072 29.3385 50.116 29.3385 52.192ZM30.7331 49.24H32.1131V50.044H32.1491C32.4371 49.588 33.0851 49.072 34.1411 49.072C35.7851 49.072 36.9371 50.392 36.9371 52.096C36.9371 53.776 35.8571 55.168 34.1051 55.168C33.3011 55.168 32.5691 54.808 32.1971 54.232H32.1731V57.88H30.7331V49.24ZM35.4731 52.096C35.4731 51.196 34.9331 50.248 33.8171 50.248C32.7611 50.248 32.1251 51.22 32.1251 52.12C32.1251 53.02 32.7611 53.968 33.8171 53.968C34.9331 53.968 35.4731 52.996 35.4731 52.096ZM37.9909 52.096C37.9909 50.284 39.3829 49.072 41.1229 49.072C42.8629 49.072 44.2549 50.284 44.2549 52.096C44.2549 53.908 42.8629 55.168 41.1229 55.168C39.3829 55.168 37.9909 53.908 37.9909 52.096ZM39.4549 52.096C39.4549 52.996 39.9829 53.968 41.1229 53.968C42.2629 53.968 42.7909 52.996 42.7909 52.096C42.7909 51.196 42.2629 50.248 41.1229 50.248C39.9829 50.248 39.4549 51.196 39.4549 52.096ZM45.6511 55V49.24H47.0311V50.2H47.0551C47.3671 49.54 47.9791 49.072 48.7351 49.072C48.8431 49.072 48.9871 49.084 49.0831 49.108V50.428C48.8911 50.38 48.7711 50.368 48.6391 50.368C47.3431 50.368 47.0911 51.496 47.0911 51.916V55H45.6511ZM50.0616 50.392H49.0536V49.24H50.0616V47.572H51.4776V49.24H52.9176V50.392H51.4776V53.068C51.4776 53.584 51.5976 53.956 52.2336 53.956C52.4256 53.956 52.6776 53.92 52.8456 53.836L52.8936 54.964C52.6416 55.06 52.2576 55.12 51.9336 55.12C50.4096 55.12 50.0616 54.184 50.0616 53.08V50.392ZM58.0517 49.948L57.1157 50.776C56.8637 50.44 56.3837 50.152 55.8557 50.152C55.3997 50.152 54.9317 50.32 54.9317 50.776C54.9317 51.22 55.3757 51.34 56.1797 51.532C57.0317 51.736 58.0397 52.12 58.0397 53.248C58.0397 54.652 56.8997 55.168 55.6397 55.168C54.7517 55.168 53.8277 54.832 53.2757 54.22L54.2237 53.332C54.5357 53.74 55.0757 54.052 55.6997 54.052C56.1197 54.052 56.6237 53.884 56.6237 53.368C56.6237 52.888 56.1797 52.744 55.3037 52.54C54.4517 52.336 53.5997 51.988 53.5997 50.908C53.5997 49.624 54.7517 49.072 55.8917 49.072C56.7197 49.072 57.5837 49.36 58.0517 49.948Z" fill="#21262A"/>
</svg>
