<svg width="74" height="64" viewBox="0 0 74 64" fill="none" xmlns="http://www.w3.org/2000/svg">
<path d="M19 11C19 7.68629 21.6863 5 25 5H49C52.3137 5 55 7.68629 55 11V35C55 38.3137 52.3137 41 49 41H25C21.6863 41 19 38.3137 19 35V11Z" fill="#005244"/>
<path d="M28 13.25C28.4142 13.25 28.75 13.5858 28.75 14V30C28.75 30.6904 29.3096 31.25 30 31.25H46C46.4142 31.25 46.75 31.5858 46.75 32C46.75 32.4142 46.4142 32.75 46 32.75H30C28.4812 32.75 27.25 31.5188 27.25 30V14C27.25 13.5858 27.5858 13.25 28 13.25Z" fill="white"/>
<path d="M44.5 14C45.3284 14 46 14.6716 46 15.5C46 16.3284 45.3284 17 44.5 17L44.498 16.999L39.6494 25.376C39.5233 25.5938 39.2961 25.734 39.0449 25.749C38.7937 25.764 38.5515 25.6514 38.4004 25.4502L36.0557 22.3242L31.6357 29.3975C31.4162 29.7486 30.9538 29.8553 30.6025 29.6357C30.2514 29.4162 30.1448 28.9538 30.3643 28.6025L35.3643 20.6025L35.417 20.5273C35.5514 20.3616 35.7517 20.2603 35.9678 20.251C36.2147 20.2405 36.4512 20.3522 36.5996 20.5498L38.9189 23.6416L43.2002 16.2471C43.0734 16.027 43 15.7722 43 15.5C43 14.6716 43.6716 14 44.5 14Z" fill="white"/>
<path d="M17.9563 51.22V55H16.7683V46.504H19.4923C21.1363 46.504 22.5163 47.128 22.5163 48.856C22.5163 50.104 21.6643 50.896 20.4523 51.1L22.8283 55H21.3883L19.2283 51.22H17.9563ZM17.9563 47.512V50.224H19.3243C20.4403 50.224 21.3163 49.876 21.3163 48.856C21.3163 47.836 20.4403 47.512 19.4083 47.512H17.9563ZM24.7188 51.652H28.1028C28.0788 50.752 27.5508 50.044 26.5068 50.044C25.5348 50.044 24.7908 50.764 24.7188 51.652ZM29.2428 52.108C29.2428 52.228 29.2428 52.36 29.2308 52.492H24.7188C24.7548 53.464 25.5708 54.22 26.5668 54.22C27.3348 54.22 27.8988 53.836 28.2228 53.356L29.0148 53.992C28.4028 54.784 27.5748 55.156 26.5668 55.156C24.8388 55.156 23.5668 53.956 23.5668 52.168C23.5668 50.392 24.8388 49.156 26.5068 49.156C28.1868 49.156 29.2428 50.296 29.2428 52.108ZM31.9457 54.148V57.88H30.8177V49.312H31.9217V50.2H31.9577C32.3297 49.6 33.0737 49.156 34.0097 49.156C35.7017 49.156 36.8537 50.464 36.8537 52.144C36.8537 53.812 35.7377 55.156 33.9857 55.156C33.1817 55.156 32.4017 54.784 31.9817 54.148H31.9457ZM35.6897 52.144C35.6897 51.076 35.0297 50.092 33.7937 50.092C32.6417 50.092 31.8737 51.064 31.8737 52.156C31.8737 53.248 32.6417 54.208 33.7937 54.208C35.0297 54.208 35.6897 53.212 35.6897 52.144ZM44.1832 52.144C44.1832 53.896 42.8512 55.156 41.1112 55.156C39.3712 55.156 38.0512 53.896 38.0512 52.144C38.0512 50.392 39.3712 49.156 41.1112 49.156C42.8512 49.156 44.1832 50.392 44.1832 52.144ZM43.0072 52.144C43.0072 51.064 42.3352 50.092 41.1112 50.092C39.8992 50.092 39.2152 51.064 39.2152 52.144C39.2152 53.224 39.8992 54.208 41.1112 54.208C42.3352 54.208 43.0072 53.224 43.0072 52.144ZM45.7474 50.536C45.7474 50.236 45.7354 49.684 45.6994 49.312H46.7674C46.7914 49.6 46.8154 50.032 46.8154 50.272H46.8514C47.1634 49.612 47.8234 49.156 48.5914 49.156C48.7474 49.156 48.9034 49.168 49.0354 49.204L48.9874 50.248C48.8434 50.212 48.6514 50.188 48.4714 50.188C47.3914 50.188 46.8754 51.064 46.8754 52.012V55H45.7474V50.536ZM52.7384 49.312V50.236H51.2264V53.2C51.2264 53.884 51.4664 54.16 52.0304 54.16C52.2344 54.16 52.4984 54.112 52.6904 54.016L52.7264 54.94C52.4624 55.036 52.1144 55.096 51.7664 55.096C50.6984 55.096 50.1104 54.496 50.1104 53.32V50.236H49.0184V49.312H50.1104V47.68H51.2264V49.312H52.7384ZM57.7556 50.092L56.9756 50.752C56.7236 50.344 56.2316 50.044 55.6556 50.044C55.1396 50.044 54.5996 50.248 54.5996 50.788C54.5996 51.268 55.0316 51.448 55.8956 51.64C56.9756 51.88 57.8036 52.324 57.8036 53.32C57.8036 54.664 56.6876 55.156 55.5356 55.156C54.6716 55.156 53.7836 54.82 53.2436 54.136L54.0476 53.452C54.3476 53.896 54.9236 54.244 55.5596 54.244C56.1236 54.244 56.6876 54.04 56.6876 53.416C56.6876 52.888 56.1716 52.696 55.1996 52.468C54.4436 52.288 53.5436 51.964 53.5436 50.896C53.5436 49.672 54.6116 49.156 55.6916 49.156C56.4956 49.156 57.3476 49.48 57.7556 50.092Z" fill="#21262A"/>
</svg>
