<svg width="20" height="20" viewBox="0 0 20 20" fill="none" xmlns="http://www.w3.org/2000/svg">
<g clip-path="url(#clip0_487_89639)">
<rect x="0.806396" y="1" width="18" height="18" rx="9" stroke="white" stroke-width="1.2"/>
<path d="M12.2741 5.06451C13.637 5.06451 14.7418 6.16936 14.7418 7.53226C14.7418 8.89515 13.637 10 12.2741 10C13.637 10 14.7418 11.1048 14.7418 12.4677C14.7418 13.8306 13.637 14.9355 12.2741 14.9355C10.9325 14.9355 9.84095 13.8649 9.80718 12.5314L9.80633 12.4677C9.80633 13.8306 8.70149 14.9355 7.33859 14.9355C5.9757 14.9355 4.87085 13.8306 4.87085 12.4677C4.87085 11.1261 5.94146 10.0346 7.27494 10.0008L7.33859 10C5.9757 10 4.87085 8.89515 4.87085 7.53226C4.87085 6.16936 5.9757 5.06451 7.33859 5.06451C8.70149 5.06451 9.80633 6.16936 9.80633 7.53226C9.80633 6.16936 10.9112 5.06451 12.2741 5.06451Z" fill="white"/>
</g>
<defs>
<clipPath id="clip0_487_89639">
<rect width="20" height="20" rx="10" fill="white"/>
</clipPath>
</defs>
</svg>
