<svg width="32" height="32" viewBox="0 0 32 32" fill="none" xmlns="http://www.w3.org/2000/svg">
<path d="M0 16C0 7.16344 7.16344 0 16 0V0C24.8366 0 32 7.16344 32 16V16C32 24.8366 24.8366 32 16 32V32C7.16344 32 0 24.8366 0 16V16Z" fill="#0B0B26"/>
<path d="M16 0.5C24.5604 0.5 31.5 7.43959 31.5 16C31.5 24.5604 24.5604 31.5 16 31.5C7.43959 31.5 0.5 24.5604 0.5 16C0.5 7.43959 7.43959 0.5 16 0.5Z" stroke="white" stroke-opacity="0.4"/>
<path d="M17.1942 12.9656C17.3316 12.9849 17.9604 12.9861 18.1264 12.9831C18.6805 12.9731 19.3167 13.0067 19.8614 12.9819C20.3549 12.9874 20.8483 12.9879 21.3418 12.9834C22.3583 12.9782 23.1424 12.982 23.9557 13.7054C25.2513 14.8577 25.3378 16.8505 24.1309 18.1002C24.1258 18.1039 24.1206 18.1075 24.1154 18.1113C24.0129 18.2419 23.8989 18.3448 23.7811 18.4608C22.8947 19.3332 22.0363 20.243 21.1412 21.1054C20.8284 21.4589 20.3446 21.9186 20.004 22.2552L18.2165 24.0376L16.4997 25.7643C15.8504 26.4139 14.9437 27.4041 13.9613 27.4596C13.9508 27.4602 13.9403 27.4606 13.9297 27.4606C13.7849 27.4939 13.5909 27.4913 13.441 27.5C12.0316 27.5826 10.8608 26.6395 10.4785 25.2768C10.3553 24.9252 10.3797 24.5298 10.3965 24.1621C10.4453 23.7677 10.7346 22.9838 10.9904 22.7214C11.8261 21.864 12.2944 20.9932 11.5896 19.8712C11.29 19.3942 10.8216 19.1219 10.25 18.996C10.5643 18.867 10.9261 18.8469 11.2493 18.6768C11.8377 18.3672 12.3349 17.7975 12.8042 17.3266L14.0605 16.0638C14.248 15.874 15.2083 14.8598 15.4054 14.6954C15.6189 14.4424 15.4055 14.7145 15.652 14.4697C16.1242 14.001 16.6255 13.4705 17.1113 13.0283L17.18 12.9644L17.1942 12.9656Z" fill="#7436E9"/>
<path d="M17.1942 12.9656C17.3316 12.9849 17.9604 12.9861 18.1264 12.9831C18.6805 12.9731 19.3167 13.0067 19.8614 12.9819C20.3548 12.9874 20.8483 12.9879 21.3418 12.9834C22.3583 12.9782 23.1424 12.982 23.9557 13.7054C25.2513 14.8577 25.3378 16.8505 24.1309 18.1002C24.1257 18.1039 24.1206 18.1075 24.1154 18.1113C24.0129 18.2419 23.8989 18.3448 23.7811 18.4608C22.8947 19.3332 22.0363 20.243 21.1412 21.1054C21.1626 20.9109 21.2509 20.8702 21.3837 20.7619C20.5322 20.0345 17.9882 19.9188 17.1942 19.1191C16.4516 18.3711 12.8129 18.8232 12.0409 18.1002C11.6886 17.7703 14.7139 15.4217 14.7139 15.4217C14.7139 15.4217 15.4055 14.7145 15.652 14.4697C16.1242 14.001 16.6255 13.4705 17.1113 13.0283L17.18 12.9644L17.1942 12.9656Z" fill="#C442A8" fill-opacity="0.8"/>
<path d="M19.8615 12.9818C20.3549 12.9874 20.8484 12.9879 21.3418 12.9834C22.3584 12.9782 23.1424 12.982 23.9557 13.7054C25.2514 14.8577 25.3379 16.8505 24.131 18.1002C24.1258 18.1039 24.1206 18.1075 24.1154 18.1113L24.0799 18.0736L23.9897 18.0723C23.9117 18.0222 23.9936 17.8174 23.9587 17.765C23.7085 17.3514 23.2455 17.0437 22.9546 16.679C22.2629 15.8119 21.4365 15.1068 20.7283 14.2596C20.4679 13.9481 19.9786 13.4998 19.811 13.131C19.8133 13.0165 19.7967 13.0534 19.8615 12.9818Z" fill="#E25478"/>
<path d="M10.4786 25.2768C10.3554 24.9252 10.3797 24.5298 10.3966 24.1621C10.5875 24.5582 10.5758 24.7035 10.5124 25.1208C10.5738 25.1161 10.6353 25.1101 10.6965 25.1029C10.724 25.133 11.0507 25.5005 11.0474 25.4995C11.3616 25.5973 11.5423 25.8471 11.7883 26.0579C11.8831 26.1391 12.0396 26.2498 12.1172 26.3363C12.3815 26.6306 12.5197 26.9556 12.8772 27.1642C12.9312 27.1957 12.888 27.3382 12.9777 27.4238C13.3357 27.4222 13.5738 27.4237 13.9298 27.4606C13.7849 27.4939 13.5909 27.4913 13.4411 27.5C12.0317 27.5826 10.8608 26.6395 10.4786 25.2768Z" fill="#2243F7"/>
<path d="M12.7396 8.81007L11.6243 9.94192C11.8684 9.75418 13.396 8.13181 13.6284 7.90343C14.1373 7.40329 14.6462 6.90068 15.1503 6.3975C16.3268 5.22298 17.0543 4.23334 18.8783 4.45289C19.6403 4.54919 20.3324 4.945 20.8019 5.55283C21.3089 6.20741 21.5366 7.03584 21.4354 7.85761C21.2845 9.05152 20.4908 9.64947 19.6959 10.4369L17.9319 12.2108C17.7993 12.344 17.2771 12.837 17.1943 12.9656L17.18 12.9644L17.1113 13.0283C16.6255 13.4705 16.1242 14.001 15.652 14.4697C15.4055 14.7145 14.9274 15.1687 14.7139 15.4217C14.5168 15.5862 14.248 15.874 14.0605 16.0638L12.8042 17.3266C12.3349 17.7975 11.8377 18.3672 11.2493 18.6768C10.9261 18.8469 10.5643 18.867 10.25 18.996C10.2251 18.998 10.2001 18.9993 10.1751 18.9999C9.99429 19.0034 9.81139 18.9763 9.63368 18.9652C7.60094 18.8392 6.33583 16.715 7.07326 14.8453C7.39313 14.0343 7.93246 13.6361 8.52694 13.0236C9.01035 12.5254 9.52942 12.0361 10.0121 11.5345C10.1114 11.4709 10.7204 10.8482 10.8344 10.7336L12.679 8.88475L12.7396 8.81007Z" fill="#5073F8"/>
<path d="M10.25 18.996C10.2251 18.998 10.2001 18.9993 10.1751 18.9999C9.99429 19.0034 9.81139 18.9763 9.63368 18.9652C7.60094 18.8392 6.33583 16.715 7.07326 14.8453C7.39313 14.0343 7.93246 13.6361 8.52694 13.0235C9.01035 12.5254 9.52942 12.0361 10.0121 11.5345C10.1231 11.6265 15.2342 6.16226 15.3372 6.30265C16.1531 7.41477 13.1344 10.8663 14.0605 11.8808C15.1666 13.7572 19.8165 13.8553 17.5065 16.7116C15.1965 19.5679 12.8042 17.3266 12.8042 17.3266C12.3349 17.7975 11.8377 18.3672 11.2493 18.6768C10.9261 18.8469 10.5643 18.867 10.25 18.996Z" fill="#EAEEFD" fill-opacity="0.3"/>
</svg>
