<svg width="152" height="24" viewBox="0 0 152 24" fill="none" xmlns="http://www.w3.org/2000/svg">
<path d="M6 0.5H146C149.038 0.500002 151.5 2.96244 151.5 6V18C151.5 21.0376 149.038 23.5 146 23.5H6C2.96244 23.5 0.5 21.0376 0.5 18V6C0.5 2.96243 2.96243 0.5 6 0.5Z" stroke="#003E31"/>
<path d="M44.5 11.3333H43.1667V10C43.1667 9.8232 43.0965 9.65363 42.9714 9.52861C42.8464 9.40358 42.6768 9.33335 42.5 9.33335C42.3232 9.33335 42.1537 9.40358 42.0286 9.52861C41.9036 9.65363 41.8334 9.8232 41.8334 10V11.3333H40.5C40.3232 11.3333 40.1537 11.4036 40.0286 11.5286C39.9036 11.6536 39.8334 11.8232 39.8334 12C39.8334 12.1768 39.9036 12.3464 40.0286 12.4714C40.1537 12.5964 40.3232 12.6667 40.5 12.6667H41.8334V14C41.8334 14.1768 41.9036 14.3464 42.0286 14.4714C42.1537 14.5964 42.3232 14.6667 42.5 14.6667C42.6768 14.6667 42.8464 14.5964 42.9714 14.4714C43.0965 14.3464 43.1667 14.1768 43.1667 14V12.6667H44.5C44.6768 12.6667 44.8464 12.5964 44.9714 12.4714C45.0965 12.3464 45.1667 12.1768 45.1667 12C45.1667 11.8232 45.0965 11.6536 44.9714 11.5286C44.8464 11.4036 44.6768 11.3333 44.5 11.3333Z" fill="#003E31"/>
<path d="M42.51 5.33335H42.5C41.6246 5.33269 40.7575 5.50448 39.9484 5.8389C39.1393 6.17333 38.404 6.66384 37.7845 7.28243C36.5333 8.53174 35.8297 10.2269 35.8284 11.995C35.827 13.7631 36.5282 15.4593 37.7775 16.7105C39.0268 17.9617 40.7219 18.6654 42.49 18.6667H42.5C44.2681 18.668 45.9644 17.9669 47.2155 16.7176C48.4667 15.4683 49.1704 13.7731 49.1717 12.005C49.173 10.2369 48.4719 8.54068 47.2226 7.2895C45.9733 6.03832 44.2781 5.33467 42.51 5.33335ZM42.5 17.3333H42.492C41.0775 17.3323 39.7214 16.7694 38.722 15.7684C37.7225 14.7675 37.1616 13.4105 37.1627 11.996C37.1638 10.5815 37.7267 9.22539 38.7276 8.22595C39.7286 7.2265 41.0855 6.66562 42.5 6.66668H42.508C43.9225 6.66774 45.2787 7.23066 46.2781 8.2316C47.2775 9.23255 47.8384 10.5895 47.8374 12.004C47.8363 13.4185 47.2734 14.7746 46.2724 15.7741C45.2715 16.7735 43.9145 17.3344 42.5 17.3333Z" fill="#003E31"/>
<path d="M61.9676 15.032L62.9156 15.68C62.2556 16.58 61.1636 17.216 59.6756 17.216C57.0716 17.216 55.1996 15.356 55.1996 12.74C55.1996 10.088 57.1436 8.288 59.7236 8.288C60.8876 8.288 62.1476 8.744 62.7716 9.608L61.8356 10.328C61.4276 9.752 60.5996 9.332 59.7236 9.332C57.7556 9.332 56.4956 10.88 56.4956 12.74C56.4956 14.648 57.7316 16.16 59.6876 16.16C60.6356 16.16 61.4636 15.764 61.9676 15.032ZM64.0677 12.536C64.0677 12.236 64.0557 11.684 64.0197 11.312H65.0877C65.1117 11.6 65.1357 12.032 65.1357 12.272H65.1717C65.4837 11.612 66.1437 11.156 66.9117 11.156C67.0677 11.156 67.2237 11.168 67.3557 11.204L67.3077 12.248C67.1637 12.212 66.9717 12.188 66.7917 12.188C65.7117 12.188 65.1957 13.064 65.1957 14.012V17H64.0677V12.536ZM68.9844 13.652H72.3684C72.3444 12.752 71.8164 12.044 70.7724 12.044C69.8004 12.044 69.0564 12.764 68.9844 13.652ZM73.5084 14.108C73.5084 14.228 73.5084 14.36 73.4964 14.492H68.9844C69.0204 15.464 69.8364 16.22 70.8324 16.22C71.6004 16.22 72.1644 15.836 72.4884 15.356L73.2804 15.992C72.6684 16.784 71.8404 17.156 70.8324 17.156C69.1044 17.156 67.8324 15.956 67.8324 14.168C67.8324 12.392 69.1044 11.156 70.7724 11.156C72.4524 11.156 73.5084 12.296 73.5084 14.108ZM78.553 13.472V13.316C78.553 12.476 77.989 12.068 77.149 12.068C76.513 12.068 75.913 12.344 75.529 12.728L74.929 12.008C75.481 11.48 76.333 11.156 77.257 11.156C78.889 11.156 79.633 12.128 79.633 13.388V15.872C79.633 16.256 79.657 16.724 79.717 17H78.697C78.637 16.748 78.601 16.448 78.601 16.184H78.565C78.157 16.796 77.509 17.144 76.657 17.144C75.757 17.144 74.593 16.7 74.593 15.392C74.593 13.676 76.633 13.472 78.553 13.472ZM78.553 14.288H78.277C77.161 14.288 75.745 14.408 75.745 15.368C75.745 16.04 76.345 16.256 76.909 16.256C77.965 16.256 78.553 15.548 78.553 14.588V14.288ZM84.1837 11.312V12.236H82.6717V15.2C82.6717 15.884 82.9117 16.16 83.4757 16.16C83.6797 16.16 83.9437 16.112 84.1357 16.016L84.1717 16.94C83.9077 17.036 83.5597 17.096 83.2117 17.096C82.1437 17.096 81.5557 16.496 81.5557 15.32V12.236H80.4637V11.312H81.5557V9.68H82.6717V11.312H84.1837ZM86.129 13.652H89.513C89.489 12.752 88.961 12.044 87.917 12.044C86.945 12.044 86.201 12.764 86.129 13.652ZM90.653 14.108C90.653 14.228 90.653 14.36 90.641 14.492H86.129C86.165 15.464 86.981 16.22 87.977 16.22C88.745 16.22 89.309 15.836 89.633 15.356L90.425 15.992C89.813 16.784 88.985 17.156 87.977 17.156C86.249 17.156 84.977 15.956 84.977 14.168C84.977 12.392 86.249 11.156 87.917 11.156C89.597 11.156 90.653 12.296 90.653 14.108ZM95.1799 11.312H96.2479C96.2719 11.6 96.2959 12.008 96.2959 12.248H96.3319C96.6079 11.636 97.3639 11.156 98.1799 11.156C99.6439 11.156 100.304 12.2 100.304 13.472V17H99.1759V13.844C99.1759 12.92 98.9239 12.104 97.8799 12.104C96.9919 12.104 96.3559 12.848 96.3559 13.976V17H95.2279V12.536C95.2279 12.236 95.2159 11.684 95.1799 11.312ZM102.992 13.652H106.376C106.352 12.752 105.824 12.044 104.78 12.044C103.808 12.044 103.064 12.764 102.992 13.652ZM107.516 14.108C107.516 14.228 107.516 14.36 107.504 14.492H102.992C103.028 15.464 103.844 16.22 104.84 16.22C105.608 16.22 106.172 15.836 106.496 15.356L107.288 15.992C106.676 16.784 105.848 17.156 104.84 17.156C103.112 17.156 101.84 15.956 101.84 14.168C101.84 12.392 103.112 11.156 104.78 11.156C106.46 11.156 107.516 12.296 107.516 14.108ZM108.287 11.312H109.511L110.795 15.656H110.819L112.175 11.312H113.363L114.743 15.656H114.767L116.051 11.312H117.239L115.355 17H114.179L112.775 12.728H112.751L111.359 17H110.183L108.287 11.312Z" fill="#003E31"/>
</svg>
