<svg width="24" height="24" viewBox="0 0 24 24" fill="none" xmlns="http://www.w3.org/2000/svg">
<path fill-rule="evenodd" clip-rule="evenodd" d="M6.4443 2.6853C8.08879 1.58649 10.0222 1 12 1C14.6513 1.00291 17.1931 2.05742 19.0679 3.93215C20.9426 5.80688 21.9971 8.34873 22 11C22 12.9778 21.4135 14.9112 20.3147 16.5557C19.9665 17.0768 19.5718 17.5615 19.1369 18.0046C20.1776 18.075 21 18.9414 21 20V21C21 22.1046 20.1046 23 19 23H5C3.89543 23 3 22.1046 3 21V20C3 18.9414 3.82238 18.075 4.8631 18.0046C3.50051 16.6163 2.57192 14.8601 2.19215 12.9509C1.8063 11.0111 2.00433 9.00043 2.76121 7.17317C3.51809 5.3459 4.79981 3.78412 6.4443 2.6853ZM15.8492 18H8.14943C8.10204 17.9737 8.0549 17.9469 8.00801 17.9196V17.646C8.00853 17.0274 8.2541 16.4342 8.69096 15.9962C9.12782 15.5582 9.7204 15.3111 10.339 15.309C10.6042 15.309 10.8586 15.2036 11.0461 15.0161C11.2336 14.8286 11.339 14.5742 11.339 14.309V13.86C11.3397 13.6838 11.2938 13.5105 11.206 13.3577C11.1182 13.205 10.9916 13.0781 10.839 12.99C10.4866 12.7857 10.1944 12.492 9.99189 12.1385C9.78943 11.785 9.68391 11.3843 9.686 10.977V9.307C9.6873 8.69406 9.92936 8.10616 10.36 7.67C10.8004 7.23086 11.3961 6.98295 12.018 6.98C12.324 6.98039 12.6269 7.04105 12.9094 7.15851C13.192 7.27597 13.4486 7.44792 13.6647 7.66456C13.8808 7.8812 14.0521 8.13828 14.1688 8.42112C14.2855 8.70396 14.3454 9.00702 14.345 9.313V10.983C14.3464 11.594 14.1084 12.1813 13.682 12.619C13.535 12.7624 13.3707 12.887 13.193 12.99C13.0379 13.0767 12.9087 13.2032 12.8187 13.3565C12.7287 13.5098 12.6812 13.6843 12.681 13.862V14.312C12.681 14.5772 12.7864 14.8316 12.9739 15.0191C13.1614 15.2066 13.4158 15.312 13.681 15.312C14.3001 15.3149 14.8928 15.5634 15.3289 16.0028C15.765 16.4423 16.0089 17.0369 16.007 17.656V17.91C15.9547 17.9406 15.9021 17.9706 15.8492 18ZM16.746 14.593C17.2589 15.1161 17.6296 15.7615 17.823 16.468L17.825 16.467C18.8962 15.3302 19.6111 13.9046 19.8816 12.3662C20.1521 10.8278 19.9664 9.24386 19.3472 7.8098C18.7281 6.37575 17.7027 5.15431 16.3975 4.29619C15.0923 3.43806 13.5645 2.98079 12.0025 2.98079C10.4405 2.98079 8.91267 3.43806 7.6075 4.29619C6.30233 5.15431 5.27693 6.37575 4.65779 7.8098C4.03865 9.24386 3.85288 10.8278 4.12338 12.3662C4.39388 13.9046 5.10882 15.3302 6.18 16.467C6.3549 15.8492 6.66438 15.2777 7.08624 14.7936C7.5081 14.3095 8.03188 13.9247 8.62 13.667C8.01601 12.8998 7.68836 11.9514 7.69 10.975V9.306C7.69133 8.15805 8.14855 7.05763 8.96112 6.24675C9.77369 5.43587 10.8751 4.98094 12.023 4.982C12.5918 4.98252 13.1548 5.09512 13.68 5.31334C14.2052 5.53157 14.6823 5.85115 15.084 6.25382C15.4856 6.6565 15.804 7.13437 16.0209 7.66014C16.2378 8.1859 16.3489 8.74926 16.348 9.318V10.988C16.3487 11.9637 16.0196 12.911 15.414 13.676C15.9114 13.8957 16.3633 14.2067 16.746 14.593Z" fill="#393A3D"/>
</svg>
