<svg width="36" height="36" viewBox="0 0 36 36" fill="none" xmlns="http://www.w3.org/2000/svg">
<path d="M18 32C25.7329 32 32 25.7312 32 18C32 10.2671 25.7312 4 18 4C10.2688 3.9983 4 10.2671 4 17.9983C4 25.7312 10.2688 32 18 32Z" fill="#003E31"/>
<path d="M17.2248 12.5532V27.1763C16.1082 27.1761 15.2031 26.271 15.2029 25.1545V14.5761H13.3334C11.4453 14.5761 9.91102 16.1104 9.91102 17.9985C9.91112 19.8865 11.4453 21.4209 13.3334 21.4209H14.1114V23.4427H13.3334C10.3251 23.4427 7.88816 21.0068 7.88806 17.9985C7.88806 14.9935 10.325 12.5532 13.3334 12.5532H17.2248Z" fill="white"/>
<path d="M18.7776 8.81959C19.8945 8.81959 20.8006 9.72568 20.8006 10.8425V21.4209H22.6701C24.5581 21.4209 26.0924 19.8865 26.0925 17.9985C26.0925 16.1104 24.5582 14.5762 22.6701 14.5761H21.892V12.5532H22.6701C25.6785 12.5532 28.1143 14.9901 28.1143 17.9985C28.1142 21.0034 25.6784 23.4427 22.6701 23.4427H18.7776V8.81959Z" fill="white"/>
</svg>
