<svg width="600" height="400" viewBox="0 0 600 400" fill="none" xmlns="http://www.w3.org/2000/svg">
<rect x="0.5" y="0.5" width="599" height="399" rx="7.5" fill="#F8FAFB"/>
<rect x="0.5" y="0.5" width="599" height="399" rx="7.5" stroke="#C3CED5"/>
<rect x="53" y="32" width="539" height="360" rx="6" fill="white"/>
<rect x="66.5" y="40.5" width="513" height="339" rx="5.5" fill="#E0EDFF" stroke="#205EA3" stroke-dasharray="6 6"/>
<circle cx="24.5" cy="44" r="8" fill="#2B3135" fill-opacity="0.15"/>
<rect x="8" y="56" width="33" height="16" rx="4" fill="#2B3135" fill-opacity="0.15"/>
<circle cx="24.5" cy="176" r="8" fill="#2B3135" fill-opacity="0.15"/>
<rect x="8" y="188" width="33" height="16" rx="4" fill="#2B3135" fill-opacity="0.15"/>
<circle cx="24.5" cy="88" r="8" fill="#2B3135" fill-opacity="0.15"/>
<rect x="8" y="100" width="33" height="16" rx="4" fill="#2B3135" fill-opacity="0.15"/>
<circle cx="24.5" cy="220" r="8" fill="#2B3135" fill-opacity="0.15"/>
<rect x="8" y="232" width="33" height="16" rx="4" fill="#2B3135" fill-opacity="0.15"/>
<circle cx="24.5" cy="132" r="8" fill="#2B3135" fill-opacity="0.15"/>
<rect x="8" y="144" width="33" height="16" rx="4" fill="#2B3135" fill-opacity="0.15"/>
<circle cx="24.5" cy="264" r="8" fill="#2B3135" fill-opacity="0.15"/>
<rect x="8" y="276" width="33" height="16" rx="4" fill="#2B3135" fill-opacity="0.15"/>
<circle cx="24.5" cy="364" r="8" fill="#2B3135" fill-opacity="0.15"/>
<rect x="8" y="376" width="33" height="16" rx="4" fill="#2B3135" fill-opacity="0.15"/>
<circle cx="581" cy="16" r="8" fill="#2B3135" fill-opacity="0.15"/>
<circle cx="525" cy="16" r="8" fill="#2B3135" fill-opacity="0.15"/>
<circle cx="553" cy="16" r="8" fill="#2B3135" fill-opacity="0.15"/>
<circle cx="497" cy="16" r="8" fill="#2B3135" fill-opacity="0.15"/>
<circle cx="24" cy="16" r="8" fill="#2B3135" fill-opacity="0.15"/>
<rect x="241" y="8" width="118" height="16" rx="4" fill="#2B3135" fill-opacity="0.1"/>
</svg>
