<svg width="74" height="64" viewBox="0 0 74 64" fill="none" xmlns="http://www.w3.org/2000/svg">
<path d="M19 20C19 16.6863 21.6863 14 25 14H49C52.3137 14 55 16.6863 55 20V44C55 47.3137 52.3137 50 49 50H25C21.6863 50 19 47.3137 19 44V20Z" fill="#005244"/>
<path fill-rule="evenodd" clip-rule="evenodd" d="M44.4382 22.0127C44.8013 22.0711 45.1082 22.3266 45.2273 22.6836L47.5613 29.6836C47.7771 30.3311 47.2946 31 46.6121 31H45.9998V41C45.9998 41.5523 45.552 42 44.9998 42H37.5925L37.4734 41.9883C37.2033 41.9331 36.9998 41.6937 36.9998 41.4072V36C36.9998 34.8954 36.1043 34 34.9998 34C33.8953 34.0002 32.9998 34.8955 32.9998 36V41.4072C32.9998 41.7345 32.7343 42 32.407 42H28.5554L28.4431 41.9883C28.1903 41.9362 27.9998 41.7126 27.9998 41.4443V31H27.3875L27.2615 30.9922C26.6472 30.9161 26.236 30.2905 26.4382 29.6836L28.7722 22.6836C28.9084 22.2755 29.2903 22.0002 29.7205 22H44.2791L44.4382 22.0127ZM29.4998 40.5H31.4998V36C31.4998 34.0671 33.0669 32.5002 34.9998 32.5C36.9328 32.5 38.4998 34.067 38.4998 36V40.5H44.4998V31H29.4998V40.5ZM41.6599 29.5H45.9187L43.9187 23.5H40.3738L41.6599 29.5ZM33.8738 29.5H40.1257L38.8396 23.5H35.1599L33.8738 29.5ZM28.0808 29.5H32.3396L33.6257 23.5H30.0808L28.0808 29.5Z" fill="white"/>
</svg>
