<svg width="24" height="24" viewBox="0 0 24 24" fill="none" xmlns="http://www.w3.org/2000/svg">
<path fill-rule="evenodd" clip-rule="evenodd" d="M19.4382 2.0127C19.8013 2.07112 20.1082 2.32664 20.2273 2.68359L22.5613 9.68359C22.7771 10.3311 22.2946 11 21.6121 11H20.9998V21C20.9998 21.5523 20.552 22 19.9998 22H12.5925L12.4734 21.9883C12.2033 21.9331 11.9998 21.6937 11.9998 21.4072V16C11.9998 14.8954 11.1043 14 9.99976 14C8.89533 14.0002 7.99976 14.8955 7.99976 16V21.4072C7.99976 21.7345 7.73427 22 7.40699 22H3.55543L3.44312 21.9883C3.19026 21.9362 2.99976 21.7126 2.99976 21.4443V11H2.38746L2.26148 10.9922C1.64723 10.9161 1.23601 10.2905 1.43824 9.68359L3.77222 2.68359C3.90838 2.27552 4.29028 2.00015 4.72047 2H19.2791L19.4382 2.0127ZM4.49976 20.5H6.49976V16C6.49976 14.0671 8.06691 12.5002 9.99976 12.5C11.9328 12.5 13.4998 14.067 13.4998 16V20.5H19.4998V11H4.49976V20.5ZM16.6599 9.5H20.9187L18.9187 3.5H15.3738L16.6599 9.5ZM8.87379 9.5H15.1257L13.8396 3.5H10.1599L8.87379 9.5ZM3.08082 9.5H7.33961L8.62574 3.5H5.08082L3.08082 9.5Z" fill="white"/>
</svg>
