<svg width="24" height="24" viewBox="0 0 24 24" fill="none" xmlns="http://www.w3.org/2000/svg">
<path fill-rule="evenodd" clip-rule="evenodd" d="M8 14C9.39761 14 10.569 14.9565 10.9023 16.25H21C21.4142 16.25 21.75 16.5858 21.75 17C21.75 17.4142 21.4142 17.75 21 17.75H10.9023C10.569 19.0435 9.39761 20 8 20C6.60239 20 5.43095 19.0435 5.09766 17.75H3C2.58579 17.75 2.25 17.4142 2.25 17C2.25 16.5858 2.58579 16.25 3 16.25H5.09766C5.43095 14.9565 6.60239 14 8 14ZM8 15.5C7.17157 15.5 6.5 16.1716 6.5 17C6.5 17.8284 7.17157 18.5 8 18.5C8.82843 18.5 9.5 17.8284 9.5 17C9.5 16.1716 8.82843 15.5 8 15.5Z" fill="white"/>
<path fill-rule="evenodd" clip-rule="evenodd" d="M16 4C17.3976 4 18.569 4.95646 18.9023 6.25H21C21.4142 6.25 21.75 6.58579 21.75 7C21.75 7.41421 21.4142 7.75 21 7.75H18.9023C18.569 9.04354 17.3976 10 16 10C14.6024 10 13.431 9.04354 13.0977 7.75H3C2.58579 7.75 2.25 7.41421 2.25 7C2.25 6.58579 2.58579 6.25 3 6.25H13.0977C13.431 4.95646 14.6024 4 16 4ZM16 5.5C15.1716 5.5 14.5 6.17157 14.5 7C14.5 7.82843 15.1716 8.5 16 8.5C16.8284 8.5 17.5 7.82843 17.5 7C17.5 6.17157 16.8284 5.5 16 5.5Z" fill="white"/>
</svg>
