<svg width="24" height="24" viewBox="0 0 24 24" fill="none" xmlns="http://www.w3.org/2000/svg">
<path fill-rule="evenodd" clip-rule="evenodd" d="M11.4268 2.40141C11.771 2.16055 12.229 2.16055 12.5732 2.40141L21.5732 8.70121C21.8405 8.88832 22 9.1943 22 9.52055V21.1114L21.9951 21.2022C21.9526 21.6204 21.6203 21.9526 21.2021 21.9952L21.1113 22H14.5928L14.4736 21.9883C14.2033 21.9333 14 21.6938 14 21.4073V16C14 14.8955 13.1046 14 12 14C10.8954 14 10 14.8955 10 16V21.4073C9.99999 21.7345 9.7345 22 9.40723 22H2.88867C2.4286 21.9999 2.05049 21.6503 2.00488 21.2022L2 21.1114V9.52055C2.00005 9.1943 2.15948 8.88832 2.42676 8.70121L11.4268 2.40141ZM3.5 9.78129V20.5H8.5V16C8.5 14.067 10.067 12.5 12 12.5C13.933 12.5 15.5 14.067 15.5 16V20.5H20.5V9.78129L12 3.83012L3.5 9.78129Z" fill="white"/>
</svg>
