<svg width="20" height="20" viewBox="0 0 20 20" fill="none" xmlns="http://www.w3.org/2000/svg">
<path d="M9.99992 11.6667C10.9204 11.6667 11.6666 10.9205 11.6666 10C11.6666 9.07952 10.9204 8.33333 9.99992 8.33333C9.07944 8.33333 8.33325 9.07952 8.33325 10C8.33325 10.9205 9.07944 11.6667 9.99992 11.6667Z" fill="#393A3D"/>
<path d="M4.99992 11.6667C5.92039 11.6667 6.66659 10.9205 6.66659 10C6.66659 9.07952 5.92039 8.33333 4.99992 8.33333C4.07944 8.33333 3.33325 9.07952 3.33325 10C3.33325 10.9205 4.07944 11.6667 4.99992 11.6667Z" fill="#393A3D"/>
<path d="M14.9999 11.6667C15.9204 11.6667 16.6666 10.9205 16.6666 10C16.6666 9.07952 15.9204 8.33333 14.9999 8.33333C14.0794 8.33333 13.3333 9.07952 13.3333 10C13.3333 10.9205 14.0794 11.6667 14.9999 11.6667Z" fill="#393A3D"/>
</svg>
