<svg width="24" height="24" viewBox="0 0 24 24" fill="none" xmlns="http://www.w3.org/2000/svg">
<path d="M3 2.25C3.41421 2.25 3.75 2.58579 3.75 3V19C3.75 19.6904 4.30964 20.25 5 20.25H21C21.4142 20.25 21.75 20.5858 21.75 21C21.75 21.4142 21.4142 21.75 21 21.75H5C3.48122 21.75 2.25 20.5188 2.25 19V3C2.25 2.58579 2.58579 2.25 3 2.25Z" fill="white"/>
<path d="M19.5 3C20.3284 3 21 3.67157 21 4.5C21 5.32843 20.3284 6 19.5 6L19.498 5.99902L14.6494 14.376C14.5233 14.5938 14.2961 14.734 14.0449 14.749C13.7937 14.764 13.5515 14.6514 13.4004 14.4502L11.0557 11.3242L6.63574 18.3975C6.4162 18.7486 5.95376 18.8553 5.60254 18.6357C5.25137 18.4162 5.14476 17.9538 5.36426 17.6025L10.3643 9.60254L10.417 9.52734C10.5514 9.36159 10.7517 9.26027 10.9678 9.25098C11.2147 9.24049 11.4512 9.35216 11.5996 9.5498L13.9189 12.6416L18.2002 5.24707C18.0734 5.02698 18 4.77222 18 4.5C18 3.67157 18.6716 3 19.5 3Z" fill="white"/>
</svg>
