<svg width="20" height="20" viewBox="0 0 20 20" fill="none" xmlns="http://www.w3.org/2000/svg">
<path d="M18.0834 16.9167L13.5917 12.425C14.6456 11.0796 15.147 9.38299 14.9937 7.68081C14.8404 5.97864 14.044 4.39892 12.7667 3.2634C11.4894 2.12789 9.82725 1.52199 8.11884 1.56913C6.41043 1.61626 4.78424 2.31287 3.57148 3.51708C2.35873 4.7213 1.65064 6.34252 1.59144 8.05056C1.53223 9.7586 2.12637 11.425 3.25283 12.7103C4.37928 13.9956 5.95334 14.8031 7.65439 14.9684C9.35544 15.1337 11.0555 14.6444 12.4084 13.6L16.9001 18.1C16.9775 18.1781 17.0697 18.2401 17.1712 18.2824C17.2728 18.3247 17.3817 18.3465 17.4917 18.3465C17.6017 18.3465 17.7107 18.3247 17.8122 18.2824C17.9138 18.2401 18.0059 18.1781 18.0834 18.1C18.1615 18.0226 18.2235 17.9304 18.2658 17.8288C18.3081 17.7273 18.3299 17.6184 18.3299 17.5084C18.3299 17.3983 18.3081 17.2894 18.2658 17.1879C18.2235 17.0863 18.1615 16.9942 18.0834 16.9167V16.9167ZM4.79172 11.8667C4.09301 11.1672 3.61736 10.2763 3.42489 9.30653C3.23241 8.33678 3.33175 7.33173 3.71036 6.41842C4.08896 5.50512 4.72982 4.72455 5.55195 4.17539C6.37407 3.62623 7.34055 3.33312 8.32922 3.33312C9.31789 3.33312 10.2844 3.62623 11.1065 4.17539C11.9286 4.72455 12.5695 5.50512 12.9481 6.41842C13.3267 7.33173 13.426 8.33678 13.2336 9.30653C13.0411 10.2763 12.5654 11.1672 11.8667 11.8667C11.4024 12.3316 10.8509 12.7004 10.2439 12.952C9.63693 13.2036 8.9863 13.3331 8.32922 13.3331C7.67214 13.3331 7.02151 13.2036 6.41452 12.952C5.80753 12.7004 5.25609 12.3316 4.79172 11.8667V11.8667Z" fill="white"/>
</svg>
