<svg width="24" height="24" viewBox="0 0 24 24" fill="none" xmlns="http://www.w3.org/2000/svg">
<path fill-rule="evenodd" clip-rule="evenodd" d="M11.0523 2.84597C11.3564 1.93487 12.6447 1.93487 12.9488 2.84597L14.9439 8.82937C14.9695 8.90565 15.0294 8.96346 15.1031 8.98757L15.1812 9.00027H20.8804C21.8525 9.00095 22.2524 10.2483 21.4615 10.8137L17.146 13.8968C17.0592 13.9589 17.0217 14.0689 17.0523 14.1712L19.0025 20.6721C19.2814 21.6031 18.2113 22.3267 17.4576 21.7708L17.3863 21.7122L12.1656 17.1448C12.0714 17.0624 11.9298 17.0624 11.8355 17.1448L6.61479 21.7122C5.85947 22.3729 4.71032 21.6334 4.99858 20.6721L6.94878 14.1712C6.97164 14.0946 6.95624 14.0134 6.91069 13.9514L6.85503 13.8968L2.5396 10.8137C1.74837 10.2483 2.14816 9.00057 3.12065 9.00027H8.81987C8.90047 9.00013 8.97486 8.96112 9.02104 8.89871L9.05717 8.82937L11.0523 2.84597ZM10.481 9.30398C10.2428 10.0183 9.57285 10.5001 8.81987 10.5003H4.6812L7.7271 12.6761C8.33583 13.1113 8.60133 13.886 8.38628 14.6028L6.9351 19.4387L10.8482 16.0159L10.9751 15.9143C11.586 15.472 12.4151 15.472 13.0259 15.9143L13.1529 16.0159L17.065 19.4387L15.6148 14.6028C15.3997 13.8858 15.6649 13.1113 16.274 12.6761L19.3199 10.5003H15.1812C14.4281 10.5003 13.7584 10.0183 13.5201 9.30398L12.0005 4.74441L10.481 9.30398Z" fill="white"/>
</svg>
