<svg width="74" height="64" viewBox="0 0 74 64" fill="none" xmlns="http://www.w3.org/2000/svg">
<path d="M19 11C19 7.68629 21.6863 5 25 5H49C52.3137 5 55 7.68629 55 11V35C55 38.3137 52.3137 41 49 41H25C21.6863 41 19 38.3137 19 35V11Z" fill="#002B21"/>
<path fill-rule="evenodd" clip-rule="evenodd" d="M33 25C34.3976 25 35.569 25.9565 35.9023 27.25H46C46.4142 27.25 46.75 27.5858 46.75 28C46.75 28.4142 46.4142 28.75 46 28.75H35.9023C35.569 30.0435 34.3976 31 33 31C31.6024 31 30.431 30.0435 30.0977 28.75H28C27.5858 28.75 27.25 28.4142 27.25 28C27.25 27.5858 27.5858 27.25 28 27.25H30.0977C30.431 25.9565 31.6024 25 33 25ZM33 26.5C32.1716 26.5 31.5 27.1716 31.5 28C31.5 28.8284 32.1716 29.5 33 29.5C33.8284 29.5 34.5 28.8284 34.5 28C34.5 27.1716 33.8284 26.5 33 26.5Z" fill="white"/>
<path fill-rule="evenodd" clip-rule="evenodd" d="M41 15C42.3976 15 43.569 15.9565 43.9023 17.25H46C46.4142 17.25 46.75 17.5858 46.75 18C46.75 18.4142 46.4142 18.75 46 18.75H43.9023C43.569 20.0435 42.3976 21 41 21C39.6024 21 38.431 20.0435 38.0977 18.75H28C27.5858 18.75 27.25 18.4142 27.25 18C27.25 17.5858 27.5858 17.25 28 17.25H38.0977C38.431 15.9565 39.6024 15 41 15ZM41 16.5C40.1716 16.5 39.5 17.1716 39.5 18C39.5 18.8284 40.1716 19.5 41 19.5C41.8284 19.5 42.5 18.8284 42.5 18C42.5 17.1716 41.8284 16.5 41 16.5Z" fill="white"/>
<path d="M15.8997 47.584L14.7477 48.496C14.3037 47.884 13.4997 47.62 12.8157 47.62C11.0637 47.62 9.87569 48.976 9.87569 50.728C9.87569 52.576 11.0037 53.86 12.7557 53.86C13.6677 53.86 14.3877 53.464 14.8197 52.876L16.0317 53.728C15.2877 54.664 14.1837 55.216 12.7437 55.216C10.0917 55.216 8.20769 53.38 8.20769 50.728C8.20769 48.004 10.1997 46.288 12.8157 46.288C13.9197 46.288 15.2277 46.696 15.8997 47.584ZM22.1552 49.24V55H20.7872V54.076H20.7632C20.5112 54.652 19.8272 55.168 18.9752 55.168C17.4752 55.168 16.8512 54.016 16.8512 52.84V49.24H18.2912V52.432C18.2912 53.116 18.4472 53.968 19.3712 53.968C20.2832 53.968 20.7152 53.176 20.7152 52.408V49.24H22.1552ZM27.9755 49.948L27.0395 50.776C26.7875 50.44 26.3075 50.152 25.7795 50.152C25.3235 50.152 24.8555 50.32 24.8555 50.776C24.8555 51.22 25.2995 51.34 26.1035 51.532C26.9555 51.736 27.9635 52.12 27.9635 53.248C27.9635 54.652 26.8235 55.168 25.5635 55.168C24.6755 55.168 23.7515 54.832 23.1995 54.22L24.1475 53.332C24.4595 53.74 24.9995 54.052 25.6235 54.052C26.0435 54.052 26.5475 53.884 26.5475 53.368C26.5475 52.888 26.1035 52.744 25.2275 52.54C24.3755 52.336 23.5235 51.988 23.5235 50.908C23.5235 49.624 24.6755 49.072 25.8155 49.072C26.6435 49.072 27.5075 49.36 27.9755 49.948ZM29.3956 50.392H28.3876V49.24H29.3956V47.572H30.8116V49.24H32.2516V50.392H30.8116V53.068C30.8116 53.584 30.9316 53.956 31.5676 53.956C31.7596 53.956 32.0116 53.92 32.1796 53.836L32.2276 54.964C31.9756 55.06 31.5916 55.12 31.2676 55.12C29.7436 55.12 29.3956 54.184 29.3956 53.08V50.392ZM32.9577 52.096C32.9577 50.284 34.3497 49.072 36.0897 49.072C37.8297 49.072 39.2217 50.284 39.2217 52.096C39.2217 53.908 37.8297 55.168 36.0897 55.168C34.3497 55.168 32.9577 53.908 32.9577 52.096ZM34.4217 52.096C34.4217 52.996 34.9497 53.968 36.0897 53.968C37.2297 53.968 37.7577 52.996 37.7577 52.096C37.7577 51.196 37.2297 50.248 36.0897 50.248C34.9497 50.248 34.4217 51.196 34.4217 52.096ZM47.4939 49.072C48.9939 49.072 49.6179 50.224 49.6179 51.4V55H48.1779V51.808C48.1779 51.124 48.0219 50.272 47.0979 50.272C46.1979 50.272 45.8259 51.112 45.8259 51.856V55H44.3859V51.52C44.3859 50.812 44.0499 50.272 43.3179 50.272C42.4539 50.272 42.0579 51.064 42.0579 51.832V55H40.6179V49.24H41.9859V50.164H42.0099C42.2619 49.6 42.8739 49.072 43.7979 49.072C44.6859 49.072 45.2739 49.516 45.5979 50.164C45.9819 49.468 46.6299 49.072 47.4939 49.072ZM51.3177 55V49.24H52.7577V55H51.3177ZM51.1137 47.284C51.1137 46.828 51.4977 46.42 52.0257 46.42C52.5537 46.42 52.9617 46.792 52.9617 47.284C52.9617 47.776 52.5537 48.148 52.0257 48.148C51.4977 48.148 51.1137 47.74 51.1137 47.284ZM54.0486 55V53.728L57.1566 50.392H54.1926V49.24H58.8726V50.512L55.7526 53.824H59.0166V55H54.0486ZM61.3977 51.544H64.3497C64.3497 50.8 63.9297 50.152 62.9937 50.152C62.1417 50.152 61.4577 50.74 61.3977 51.544ZM65.7897 52.192C65.7897 52.324 65.7897 52.444 65.7777 52.576H61.3977C61.4577 53.392 62.2017 53.992 63.0417 53.992C63.7617 53.992 64.2417 53.704 64.5657 53.248L65.5257 54.016C64.9617 54.784 64.1457 55.168 63.0537 55.168C61.2777 55.168 59.9577 54.028 59.9577 52.156C59.9577 50.296 61.2657 49.072 63.0057 49.072C64.6137 49.072 65.7897 50.116 65.7897 52.192Z" fill="#21262A"/>
</svg>
