<svg width="74" height="64" viewBox="0 0 74 64" fill="none" xmlns="http://www.w3.org/2000/svg">
<path d="M19 11C19 7.68629 21.6863 5 25 5H49C52.3137 5 55 7.68629 55 11V35C55 38.3137 52.3137 41 49 41H25C21.6863 41 19 38.3137 19 35V11Z" fill="#005244"/>
<path fill-rule="evenodd" clip-rule="evenodd" d="M33 25C34.3976 25 35.569 25.9565 35.9023 27.25H46C46.4142 27.25 46.75 27.5858 46.75 28C46.75 28.4142 46.4142 28.75 46 28.75H35.9023C35.569 30.0435 34.3976 31 33 31C31.6024 31 30.431 30.0435 30.0977 28.75H28C27.5858 28.75 27.25 28.4142 27.25 28C27.25 27.5858 27.5858 27.25 28 27.25H30.0977C30.431 25.9565 31.6024 25 33 25ZM33 26.5C32.1716 26.5 31.5 27.1716 31.5 28C31.5 28.8284 32.1716 29.5 33 29.5C33.8284 29.5 34.5 28.8284 34.5 28C34.5 27.1716 33.8284 26.5 33 26.5Z" fill="white"/>
<path fill-rule="evenodd" clip-rule="evenodd" d="M41 15C42.3976 15 43.569 15.9565 43.9023 17.25H46C46.4142 17.25 46.75 17.5858 46.75 18C46.75 18.4142 46.4142 18.75 46 18.75H43.9023C43.569 20.0435 42.3976 21 41 21C39.6024 21 38.431 20.0435 38.0977 18.75H28C27.5858 18.75 27.25 18.4142 27.25 18C27.25 17.5858 27.5858 17.25 28 17.25H38.0977C38.431 15.9565 39.6024 15 41 15ZM41 16.5C40.1716 16.5 39.5 17.1716 39.5 18C39.5 18.8284 40.1716 19.5 41 19.5C41.8284 19.5 42.5 18.8284 42.5 18C42.5 17.1716 41.8284 16.5 41 16.5Z" fill="white"/>
<path d="M15.241 53.032L16.189 53.68C15.529 54.58 14.437 55.216 12.949 55.216C10.345 55.216 8.47305 53.356 8.47305 50.74C8.47305 48.088 10.417 46.288 12.997 46.288C14.161 46.288 15.421 46.744 16.045 47.608L15.109 48.328C14.701 47.752 13.873 47.332 12.997 47.332C11.029 47.332 9.76905 48.88 9.76905 50.74C9.76905 52.648 11.005 54.16 12.961 54.16C13.909 54.16 14.737 53.764 15.241 53.032ZM22.4171 55H21.3491C21.3251 54.712 21.3011 54.304 21.3011 54.064H21.2771C20.9891 54.664 20.2451 55.156 19.4171 55.156C17.9531 55.156 17.2931 54.112 17.2931 52.84V49.312H18.4211V52.456C18.4211 53.392 18.6731 54.208 19.7171 54.208C20.6171 54.208 21.2411 53.464 21.2411 52.336V49.312H22.3691V53.776C22.3691 54.076 22.3811 54.628 22.4171 55ZM28.1775 50.092L27.3975 50.752C27.1455 50.344 26.6535 50.044 26.0775 50.044C25.5615 50.044 25.0215 50.248 25.0215 50.788C25.0215 51.268 25.4535 51.448 26.3175 51.64C27.3975 51.88 28.2255 52.324 28.2255 53.32C28.2255 54.664 27.1095 55.156 25.9575 55.156C25.0935 55.156 24.2055 54.82 23.6655 54.136L24.4695 53.452C24.7695 53.896 25.3455 54.244 25.9815 54.244C26.5455 54.244 27.1095 54.04 27.1095 53.416C27.1095 52.888 26.5935 52.696 25.6215 52.468C24.8655 52.288 23.9655 51.964 23.9655 50.896C23.9655 49.672 25.0335 49.156 26.1135 49.156C26.9175 49.156 27.7695 49.48 28.1775 50.092ZM32.4415 49.312V50.236H30.9295V53.2C30.9295 53.884 31.1695 54.16 31.7335 54.16C31.9375 54.16 32.2015 54.112 32.3935 54.016L32.4295 54.94C32.1655 55.036 31.8175 55.096 31.4695 55.096C30.4015 55.096 29.8135 54.496 29.8135 53.32V50.236H28.7215V49.312H29.8135V47.68H30.9295V49.312H32.4415ZM39.3668 52.144C39.3668 53.896 38.0348 55.156 36.2948 55.156C34.5548 55.156 33.2348 53.896 33.2348 52.144C33.2348 50.392 34.5548 49.156 36.2948 49.156C38.0348 49.156 39.3668 50.392 39.3668 52.144ZM38.1908 52.144C38.1908 51.064 37.5188 50.092 36.2948 50.092C35.0828 50.092 34.3988 51.064 34.3988 52.144C34.3988 53.224 35.0828 54.208 36.2948 54.208C37.5188 54.208 38.1908 53.224 38.1908 52.144ZM42.035 50.248C42.323 49.648 42.983 49.156 43.847 49.156C44.603 49.156 45.263 49.492 45.611 50.296C45.995 49.564 46.739 49.156 47.543 49.156C49.007 49.156 49.667 50.2 49.667 51.472V55H48.539V51.844C48.539 50.92 48.263 50.104 47.279 50.104C46.247 50.104 45.839 51.04 45.839 51.928V55H44.711V51.616C44.711 50.728 44.411 50.104 43.511 50.104C42.683 50.104 42.059 50.848 42.059 51.976V55H40.931V50.536C40.931 50.236 40.919 49.684 40.883 49.312H41.951C41.975 49.6 41.999 50.008 41.999 50.248H42.035ZM52.7116 49.312V55H51.5836V49.312H52.7116ZM52.9036 47.26C52.9036 47.668 52.5556 47.98 52.1476 47.98C51.7396 47.98 51.4036 47.656 51.4036 47.26C51.4036 46.852 51.7396 46.528 52.1476 46.528C52.5556 46.528 52.9036 46.84 52.9036 47.26ZM58.7331 49.312V50.236L55.4931 54.052H58.8651V55H54.1011V54.076L57.3171 50.236H54.2571V49.312H58.7331ZM61 51.652H64.384C64.36 50.752 63.832 50.044 62.788 50.044C61.816 50.044 61.072 50.764 61 51.652ZM65.524 52.108C65.524 52.228 65.524 52.36 65.512 52.492H61C61.036 53.464 61.852 54.22 62.848 54.22C63.616 54.22 64.18 53.836 64.504 53.356L65.296 53.992C64.684 54.784 63.856 55.156 62.848 55.156C61.12 55.156 59.848 53.956 59.848 52.168C59.848 50.392 61.12 49.156 62.788 49.156C64.468 49.156 65.524 50.296 65.524 52.108Z" fill="#21262A"/>
</svg>
