<svg width="56" height="46" viewBox="0 0 56 46" fill="none" xmlns="http://www.w3.org/2000/svg">
<path d="M10 11C10 7.68629 12.6863 5 16 5H40C43.3137 5 46 7.68629 46 11V35C46 38.3137 43.3137 41 40 41H16C12.6863 41 10 38.3137 10 35V11Z" fill="#005244"/>
<path fill-rule="evenodd" clip-rule="evenodd" d="M24 25C25.3976 25 26.569 25.9565 26.9023 27.25H37C37.4142 27.25 37.75 27.5858 37.75 28C37.75 28.4142 37.4142 28.75 37 28.75H26.9023C26.569 30.0435 25.3976 31 24 31C22.6024 31 21.431 30.0435 21.0977 28.75H19C18.5858 28.75 18.25 28.4142 18.25 28C18.25 27.5858 18.5858 27.25 19 27.25H21.0977C21.431 25.9565 22.6024 25 24 25ZM24 26.5C23.1716 26.5 22.5 27.1716 22.5 28C22.5 28.8284 23.1716 29.5 24 29.5C24.8284 29.5 25.5 28.8284 25.5 28C25.5 27.1716 24.8284 26.5 24 26.5Z" fill="white"/>
<path fill-rule="evenodd" clip-rule="evenodd" d="M32 15C33.3976 15 34.569 15.9565 34.9023 17.25H37C37.4142 17.25 37.75 17.5858 37.75 18C37.75 18.4142 37.4142 18.75 37 18.75H34.9023C34.569 20.0435 33.3976 21 32 21C30.6024 21 29.431 20.0435 29.0977 18.75H19C18.5858 18.75 18.25 18.4142 18.25 18C18.25 17.5858 18.5858 17.25 19 17.25H29.0977C29.431 15.9565 30.6024 15 32 15ZM32 16.5C31.1716 16.5 30.5 17.1716 30.5 18C30.5 18.8284 31.1716 19.5 32 19.5C32.8284 19.5 33.5 18.8284 33.5 18C33.5 17.1716 32.8284 16.5 32 16.5Z" fill="white"/>
</svg>
