<svg width="74" height="64" viewBox="0 0 74 64" fill="none" xmlns="http://www.w3.org/2000/svg">
<path d="M19 11C19 7.68629 21.6863 5 25 5H49C52.3137 5 55 7.68629 55 11V35C55 38.3137 52.3137 41 49 41H25C21.6863 41 19 38.3137 19 35V11Z" fill="#002B21"/>
<path fill-rule="evenodd" clip-rule="evenodd" d="M36.4268 13.4014C36.771 13.1605 37.229 13.1605 37.5732 13.4014L46.5732 19.7012C46.8405 19.8883 47 20.1943 47 20.5205V32.1114L46.9951 32.2022C46.9526 32.6204 46.6203 32.9526 46.2021 32.9952L46.1113 33H39.5928L39.4736 32.9883C39.2033 32.9333 39 32.6938 39 32.4073V27C39 25.8955 38.1046 25 37 25C35.8954 25 35 25.8955 35 27V32.4073C35 32.7345 34.7345 33 34.4072 33H27.8887C27.4286 32.9999 27.0505 32.6503 27.0049 32.2022L27 32.1114V20.5205C27 20.1943 27.1595 19.8883 27.4268 19.7012L36.4268 13.4014ZM28.5 20.7813V31.5H33.5V27C33.5 25.067 35.067 23.5 37 23.5C38.933 23.5 40.5 25.067 40.5 27V31.5H45.5V20.7813L37 14.8301L28.5 20.7813Z" fill="white"/>
<path d="M21.0551 55V46.504H22.5671V49.936H26.5391V46.504H28.0511V55H26.5391V51.232H22.5671V55H21.0551ZM29.5182 52.096C29.5182 50.284 30.9102 49.072 32.6502 49.072C34.3902 49.072 35.7822 50.284 35.7822 52.096C35.7822 53.908 34.3902 55.168 32.6502 55.168C30.9102 55.168 29.5182 53.908 29.5182 52.096ZM30.9822 52.096C30.9822 52.996 31.5102 53.968 32.6502 53.968C33.7902 53.968 34.3182 52.996 34.3182 52.096C34.3182 51.196 33.7902 50.248 32.6502 50.248C31.5102 50.248 30.9822 51.196 30.9822 52.096ZM44.0545 49.072C45.5545 49.072 46.1785 50.224 46.1785 51.4V55H44.7385V51.808C44.7385 51.124 44.5825 50.272 43.6585 50.272C42.7585 50.272 42.3865 51.112 42.3865 51.856V55H40.9465V51.52C40.9465 50.812 40.6105 50.272 39.8785 50.272C39.0145 50.272 38.6185 51.064 38.6185 51.832V55H37.1785V49.24H38.5465V50.164H38.5705C38.8225 49.6 39.4345 49.072 40.3585 49.072C41.2465 49.072 41.8345 49.516 42.1585 50.164C42.5425 49.468 43.1905 49.072 44.0545 49.072ZM48.9582 51.544H51.9102C51.9102 50.8 51.4902 50.152 50.5542 50.152C49.7022 50.152 49.0182 50.74 48.9582 51.544ZM53.3502 52.192C53.3502 52.324 53.3502 52.444 53.3382 52.576H48.9582C49.0182 53.392 49.7622 53.992 50.6022 53.992C51.3222 53.992 51.8022 53.704 52.1262 53.248L53.0862 54.016C52.5222 54.784 51.7062 55.168 50.6142 55.168C48.8382 55.168 47.5182 54.028 47.5182 52.156C47.5182 50.296 48.8262 49.072 50.5662 49.072C52.1742 49.072 53.3502 50.116 53.3502 52.192Z" fill="#21262A"/>
</svg>
