<svg width="74" height="64" viewBox="0 0 74 64" fill="none" xmlns="http://www.w3.org/2000/svg">
<path d="M19 11C19 7.68629 21.6863 5 25 5H49C52.3137 5 55 7.68629 55 11V35C55 38.3137 52.3137 41 49 41H25C21.6863 41 19 38.3137 19 35V11Z" fill="#005244"/>
<path fill-rule="evenodd" clip-rule="evenodd" d="M36.4268 13.4014C36.771 13.1605 37.229 13.1605 37.5732 13.4014L46.5732 19.7012C46.8405 19.8883 47 20.1943 47 20.5205V32.1114L46.9951 32.2022C46.9526 32.6204 46.6203 32.9526 46.2021 32.9952L46.1113 33H39.5928L39.4736 32.9883C39.2033 32.9333 39 32.6938 39 32.4073V27C39 25.8955 38.1046 25 37 25C35.8954 25 35 25.8955 35 27V32.4073C35 32.7345 34.7345 33 34.4072 33H27.8887C27.4286 32.9999 27.0505 32.6503 27.0049 32.2022L27 32.1114V20.5205C27 20.1943 27.1595 19.8883 27.4268 19.7012L36.4268 13.4014ZM28.5 20.7813V31.5H33.5V27C33.5 25.067 35.067 23.5 37 23.5C38.933 23.5 40.5 25.067 40.5 27V31.5H45.5V20.7813L37 14.8301L28.5 20.7813Z" fill="white"/>
<path d="M21.239 55V46.504H22.427V50.056H26.723V46.504H27.923V55H26.723V51.112H22.427V55H21.239ZM35.6812 52.144C35.6812 53.896 34.3492 55.156 32.6092 55.156C30.8692 55.156 29.5492 53.896 29.5492 52.144C29.5492 50.392 30.8692 49.156 32.6092 49.156C34.3492 49.156 35.6812 50.392 35.6812 52.144ZM34.5052 52.144C34.5052 51.064 33.8332 50.092 32.6092 50.092C31.3972 50.092 30.7132 51.064 30.7132 52.144C30.7132 53.224 31.3972 54.208 32.6092 54.208C33.8332 54.208 34.5052 53.224 34.5052 52.144ZM38.3494 50.248C38.6374 49.648 39.2974 49.156 40.1614 49.156C40.9174 49.156 41.5774 49.492 41.9254 50.296C42.3094 49.564 43.0534 49.156 43.8574 49.156C45.3214 49.156 45.9814 50.2 45.9814 51.472V55H44.8534V51.844C44.8534 50.92 44.5774 50.104 43.5934 50.104C42.5614 50.104 42.1534 51.04 42.1534 51.928V55H41.0254V51.616C41.0254 50.728 40.7254 50.104 39.8254 50.104C38.9974 50.104 38.3734 50.848 38.3734 51.976V55H37.2454V50.536C37.2454 50.236 37.2334 49.684 37.1974 49.312H38.2654C38.2894 49.6 38.3134 50.008 38.3134 50.248H38.3494ZM48.6661 51.652H52.0501C52.0261 50.752 51.4981 50.044 50.4541 50.044C49.4821 50.044 48.7381 50.764 48.6661 51.652ZM53.1901 52.108C53.1901 52.228 53.1901 52.36 53.1781 52.492H48.6661C48.7021 53.464 49.5181 54.22 50.5141 54.22C51.2821 54.22 51.8461 53.836 52.1701 53.356L52.9621 53.992C52.3501 54.784 51.5221 55.156 50.5141 55.156C48.7861 55.156 47.5141 53.956 47.5141 52.168C47.5141 50.392 48.7861 49.156 50.4541 49.156C52.1341 49.156 53.1901 50.296 53.1901 52.108Z" fill="#21262A"/>
</svg>
