<svg width="16" height="16" viewBox="0 0 16 16" fill="none" xmlns="http://www.w3.org/2000/svg">
<path d="M7.9941 15.9882C12.4097 15.9882 15.9882 12.4087 15.9882 7.9941C15.9882 3.57853 12.4087 1.97977e-07 7.9941 1.97977e-07C3.57951 -0.000971965 0 3.57853 0 7.99313C0 12.4087 3.57951 15.9882 7.9941 15.9882Z" fill="white"/>
<path d="M7.55139 4.88395V13.2339C6.91385 13.2337 6.39701 12.7169 6.3969 12.0794V6.03907H5.32938C4.25125 6.03907 3.37518 6.91514 3.37518 7.99327C3.37524 9.07135 4.25129 9.94746 5.32938 9.94746H5.77366V11.102H5.32938C3.6116 11.102 2.22012 9.71103 2.22006 7.99327C2.22006 6.2774 3.61157 4.88395 5.32938 4.88395H7.55139Z" fill="#003E31"/>
<path d="M8.43807 2.75204C9.07581 2.75204 9.5932 3.26942 9.5932 3.90716V9.94746H10.6607C11.7388 9.94745 12.6148 9.07133 12.6149 7.99327C12.6149 6.91514 11.7388 6.03908 10.6607 6.03907H10.2164V4.88395H10.6607C12.3785 4.88396 13.7694 6.27546 13.7694 7.99327C13.7693 9.70907 12.3785 11.1019 10.6607 11.102H8.43807V2.75204Z" fill="#003E31"/>
</svg>
