<svg width="411" height="79" viewBox="0 0 411.254 79.0554" fill="none" xmlns="http://www.w3.org/2000/svg" aria-hidden="true">
  <path d="M134.662 51.9678C128.158 51.9678 124.879 46.1566 124.879 40.538C124.879 34.9196 128.437 29.3556 134.35 29.3556C137.119 29.3556 140.62 30.7444 141.993 32.6972L148.879 25.8372C145.546 22.3256 140.234 20.2294 134.35 20.2294C122.375 20.2294 113.685 28.8226 113.685 40.6616C113.685 52.6924 122.278 61.0942 134.583 61.0942C140.439 61.0942 145.85 59.3804 149.058 55.9314L142.361 48.7446C140.814 50.6282 137.571 51.9678 134.662 51.9678ZM96.1558 60.005H106.838V21.3184H96.1558V60.005ZM76.7306 42.5286C76.7306 47.0746 73.7674 51.9678 68.2444 51.9678C63.9866 51.9678 61.713 48.9312 61.713 42.6846V21.3184H51.0306V45.329C51.0306 53.318 55.0172 61.0942 65.6776 61.0942C70.705 61.0942 74.916 57.1368 77.0378 54.2158H77.1976V60.005H87.413V21.3184H76.7306V42.5286V42.5286ZM31.7584 26.2302H31.5218C30.0126 24.5612 25.924 20.2294 19.2854 20.2294C8.3934 20.2294 0 28.757 0 40.5064C0 52.4358 7.74521 61.0942 18.7732 61.0942C23.7804 61.0942 28.4836 58.441 31.2102 55.3546H31.3688V79.0554H42.0512V21.3184H31.7584V26.2302V26.2302ZM21.386 51.9678C14.7806 51.9678 11.025 46.2018 11.025 40.5064C11.025 35.061 14.4734 29.2 21.386 29.2C27.7446 29.2 31.6798 35.1494 31.6798 40.6616C31.6798 46.219 27.8298 51.9678 21.386 51.9678ZM264.716 20.2294C252.56 20.2294 243.739 28.757 243.739 40.5064C243.739 52.6646 252.757 61.1982 264.716 61.1982C276.674 61.1982 285.692 52.583 285.692 40.5064C285.692 28.757 276.87 20.2294 264.716 20.2294ZM264.716 51.9678C257.75 51.9678 254.576 46.0266 254.576 40.5064C254.576 35.061 257.75 29.2 264.716 29.2C271.682 29.2 274.855 35.061 274.855 40.5064C274.855 46.0266 271.682 51.9678 264.716 51.9678ZM398.271 36.194C392.774 34.882 390.836 34.1756 390.836 31.9492C390.836 28.8792 394.726 28.2056 396.487 28.2056C399.802 28.2056 403.546 30.1852 404.954 32.0642L411.254 26.0208C408.34 22.3616 402.612 20.2294 396.564 20.2294C388.833 20.2294 380.715 24.1178 380.715 32.8048C380.715 40.2642 386.561 42.515 392.282 43.8856C398.311 45.2894 400.463 46.3158 400.463 48.7446C400.463 52.325 396.4 52.9096 395.002 52.9096C391.508 52.9096 387.457 50.9088 385.273 48.316L378.788 54.89C382.331 58.8188 388.395 61.183 394.613 61.183C405.057 61.183 411.254 56.2044 411.254 47.9892C411.254 40.1292 403.669 37.487 398.271 36.194ZM378.076 21.3184H364.299L350.506 37.3712H350.269V0H339.586V60.005H350.269V40.9238H350.506L364.816 60.005H378.874L362.243 38.863L378.076 21.3184ZM219.665 20.2294C214.779 20.2294 211.18 22.365 207.782 25.55H207.581V0H196.9V60.005H207.115V54.5366H207.275C209.684 58.4872 214.469 61.0942 219.432 61.0942C230.46 61.0942 238.819 52.4358 238.819 40.5064C238.819 28.757 230.558 20.2294 219.665 20.2294ZM217.565 51.9678C211.121 51.9678 207.27 46.219 207.27 40.6616C207.27 35.1494 211.206 29.2 217.565 29.2C224.478 29.2 227.916 35.061 227.916 40.5064C227.916 46.2018 224.171 51.9678 217.565 51.9678ZM192.881 21.3184H179.104L165.311 37.3712H165.074V0H154.391V60.005H165.074V40.9238H165.312L179.621 60.005H193.679L177.048 38.863L192.881 21.3184ZM311.658 20.2294C299.502 20.2294 290.681 28.757 290.681 40.5064C290.681 52.6646 299.699 61.1982 311.658 61.1982C323.616 61.1982 332.634 52.583 332.634 40.5064C332.634 28.757 323.812 20.2294 311.658 20.2294ZM311.658 51.9678C304.691 51.9678 301.518 46.0266 301.518 40.5064C301.518 35.061 304.691 29.2 311.658 29.2C318.624 29.2 321.797 35.061 321.797 40.5064C321.797 46.0266 318.624 51.9678 311.658 51.9678Z" fill="#16587A"/>
</svg>
