<svg width="74" height="64" viewBox="0 0 74 64" fill="none" xmlns="http://www.w3.org/2000/svg">
<path d="M19 11C19 7.68629 21.6863 5 25 5H49C52.3137 5 55 7.68629 55 11V35C55 38.3137 52.3137 41 49 41H25C21.6863 41 19 38.3137 19 35V11Z" fill="#002B21"/>
<path d="M37 19.25C37.4142 19.25 37.75 19.5858 37.75 20V22.25H40C40.4142 22.25 40.75 22.5858 40.75 23C40.75 23.4142 40.4142 23.75 40 23.75H37.75V26C37.75 26.4142 37.4142 26.75 37 26.75C36.5858 26.75 36.25 26.4142 36.25 26V23.75H34C33.5858 23.75 33.25 23.4142 33.25 23C33.25 22.5858 33.5858 22.25 34 22.25H36.25V20C36.25 19.5858 36.5858 19.25 37 19.25Z" fill="white"/>
<path fill-rule="evenodd" clip-rule="evenodd" d="M37 13C42.5228 13 47 17.4771 47 23C47 28.5228 42.5228 33 37 33C31.4771 33 27 28.5228 27 23C27 17.4771 31.4771 13 37 13ZM37 14.5C32.3056 14.5 28.5 18.3056 28.5 23C28.5 27.6944 32.3056 31.5 37 31.5C41.6944 31.5 45.5 27.6944 45.5 23C45.5 18.3056 41.6944 14.5 37 14.5Z" fill="white"/>
<path d="M26.8274 47.584L25.6754 48.496C25.2314 47.884 24.4274 47.62 23.7434 47.62C21.9914 47.62 20.8034 48.976 20.8034 50.728C20.8034 52.576 21.9314 53.86 23.6834 53.86C24.5954 53.86 25.3154 53.464 25.7474 52.876L26.9594 53.728C26.2154 54.664 25.1114 55.216 23.6714 55.216C21.0194 55.216 19.1354 53.38 19.1354 50.728C19.1354 48.004 21.1274 46.288 23.7434 46.288C24.8474 46.288 26.1554 46.696 26.8274 47.584ZM27.8269 55V49.24H29.2069V50.2H29.2309C29.5429 49.54 30.1549 49.072 30.9109 49.072C31.0189 49.072 31.1629 49.084 31.2589 49.108V50.428C31.0669 50.38 30.9469 50.368 30.8149 50.368C29.5189 50.368 29.2669 51.496 29.2669 51.916V55H27.8269ZM33.091 51.544H36.043C36.043 50.8 35.623 50.152 34.687 50.152C33.835 50.152 33.151 50.74 33.091 51.544ZM37.483 52.192C37.483 52.324 37.483 52.444 37.471 52.576H33.091C33.151 53.392 33.895 53.992 34.735 53.992C35.455 53.992 35.935 53.704 36.259 53.248L37.219 54.016C36.655 54.784 35.839 55.168 34.747 55.168C32.971 55.168 31.651 54.028 31.651 52.156C31.651 50.296 32.959 49.072 34.699 49.072C36.307 49.072 37.483 50.116 37.483 52.192ZM42.3834 55V54.268H42.3474C42.0594 54.772 41.3754 55.144 40.5594 55.144C39.6354 55.144 38.3994 54.7 38.3994 53.356C38.3994 51.64 40.5594 51.4 42.3594 51.4V51.256C42.3594 50.548 41.7594 50.2 41.0394 50.2C40.4274 50.2 39.8394 50.488 39.4674 50.86L38.7234 49.984C39.3714 49.384 40.2834 49.072 41.1594 49.072C43.2234 49.072 43.7274 50.344 43.7274 51.496V55H42.3834ZM42.3594 52.576V52.372H42.0354C41.1234 52.372 39.8394 52.48 39.8394 53.332C39.8394 53.884 40.3554 54.052 40.8474 54.052C41.8314 54.052 42.3594 53.488 42.3594 52.576ZM45.4678 50.392H44.4598V49.24H45.4678V47.572H46.8838V49.24H48.3238V50.392H46.8838V53.068C46.8838 53.584 47.0038 53.956 47.6398 53.956C47.8318 53.956 48.0838 53.92 48.2518 53.836L48.2998 54.964C48.0478 55.06 47.6638 55.12 47.3398 55.12C45.8158 55.12 45.4678 54.184 45.4678 53.08V50.392ZM50.47 51.544H53.422C53.422 50.8 53.002 50.152 52.066 50.152C51.214 50.152 50.53 50.74 50.47 51.544ZM54.862 52.192C54.862 52.324 54.862 52.444 54.85 52.576H50.47C50.53 53.392 51.274 53.992 52.114 53.992C52.834 53.992 53.314 53.704 53.638 53.248L54.598 54.016C54.034 54.784 53.218 55.168 52.126 55.168C50.35 55.168 49.03 54.028 49.03 52.156C49.03 50.296 50.338 49.072 52.078 49.072C53.686 49.072 54.862 50.116 54.862 52.192Z" fill="#21262A"/>
</svg>
