<svg width="24" height="24" viewBox="0 0 24 24" fill="none" xmlns="http://www.w3.org/2000/svg">
<path fill-rule="evenodd" clip-rule="evenodd" d="M19.438 2.0127C19.801 2.07112 20.1079 2.32664 20.2271 2.68359L22.561 9.68359C22.7769 10.3311 22.2944 11 21.6118 11H20.9995V21C20.9995 21.5523 20.5518 22 19.9995 22H12.5923L12.4732 21.9883C12.203 21.9331 11.9995 21.6937 11.9995 21.4072V16C11.9995 14.8954 11.1041 14 9.99952 14C8.89509 14.0002 7.99952 14.8955 7.99952 16V21.4072C7.99952 21.7345 7.73403 22 7.40674 22H3.55518L3.44288 21.9883C3.19002 21.9362 2.99952 21.7126 2.99952 21.4443V11H2.38721L2.26124 10.9922C1.64698 10.9161 1.23577 10.2905 1.43799 9.68359L3.77198 2.68359C3.90814 2.27552 4.29003 2.00015 4.72022 2H19.2788L19.438 2.0127ZM4.49952 20.5H6.49952V16C6.49952 14.0671 8.06666 12.5002 9.99952 12.5C11.9325 12.5 13.4995 14.067 13.4995 16V20.5H19.4995V11H4.49952V20.5ZM16.6597 9.5H20.9185L18.9185 3.5H15.3735L16.6597 9.5ZM8.87354 9.5H15.1255L13.8394 3.5H10.1597L8.87354 9.5ZM3.08057 9.5H7.33936L8.62549 3.5H5.08057L3.08057 9.5Z" fill="#21262A"/>
<path d="M4 21L3.5 10L20 10.5V21H13C13 19.3333 12.9 15.9 12.5 15.5C12 15 12.5 14 12 14C11.5 14 11.5 13.5 11 13.5C10.6 13.5 9.5 13.1667 9 13L8 13.5L7.5 15.5V21H4Z" fill="#21262A"/>
</svg>
