<svg width="24" height="24" viewBox="0 0 24 24" fill="none" xmlns="http://www.w3.org/2000/svg">
<path d="M19.4382 2.0127C19.8012 2.07112 20.1081 2.32668 20.2273 2.68359L22.5612 9.68359C22.7771 10.3311 22.2946 11 21.612 11H20.9997V21C20.9997 21.5523 20.552 22 19.9997 22H12.5925L12.4734 21.9883C12.2033 21.933 11.9997 21.6936 11.9997 21.4072V16C11.9997 14.8954 11.1043 14 9.99972 14C8.89541 14.0003 7.99972 14.8956 7.99972 16V21.4072C7.99972 21.7345 7.73422 22 7.40694 22H3.55538L3.44308 21.9883C3.19034 21.9362 2.99972 21.7125 2.99972 21.4443V11H2.38741L2.26144 10.9922C1.64735 10.9159 1.23606 10.2903 1.43819 9.68359L3.77218 2.68359C3.90831 2.2756 4.29034 2.00026 4.72042 2H19.279L19.4382 2.0127ZM3.08077 9.5H7.33956L8.62569 3.5H5.08077L3.08077 9.5ZM8.87374 9.5H15.1257L13.8396 3.5H10.1599L8.87374 9.5ZM16.6599 9.5H20.9187L18.9187 3.5H15.3737L16.6599 9.5Z" fill="white"/>
</svg>
