<svg width="24" height="24" viewBox="0 0 24 24" fill="none" xmlns="http://www.w3.org/2000/svg">
<path d="M12.0149 2H11.9999C10.6867 1.99902 9.38616 2.2567 8.17253 2.75834C6.9589 3.25997 5.85595 3.99574 4.92667 4.92363C3.0499 6.79759 1.99442 9.34034 1.99243 11.9925C1.99045 14.6447 3.04211 17.189 4.91606 19.0658C6.79002 20.9425 9.33277 21.998 11.9849 22H11.9999C14.6521 22.002 17.1964 20.9503 19.0732 19.0764C20.95 17.2024 22.0054 14.6597 22.0074 12.0075C22.0094 9.35534 20.9578 6.81101 19.0838 4.93424C17.2098 3.05747 14.6671 2.00199 12.0149 2V2ZM14.9999 13H12.9999V15C12.9999 15.2652 12.8946 15.5196 12.707 15.7071C12.5195 15.8946 12.2652 16 11.9999 16C11.7347 16 11.4804 15.8946 11.2928 15.7071C11.1053 15.5196 10.9999 15.2652 10.9999 15V13H8.99993C8.73472 13 8.48036 12.8946 8.29283 12.7071C8.10529 12.5196 7.99993 12.2652 7.99993 12C7.99993 11.7348 8.10529 11.4804 8.29283 11.2929C8.48036 11.1054 8.73472 11 8.99993 11V11H10.9999V9C10.9999 8.73479 11.1053 8.48043 11.2928 8.2929C11.4804 8.10536 11.7347 8 11.9999 8V8C12.2652 8 12.5195 8.10536 12.707 8.2929C12.8946 8.48043 12.9999 8.73479 12.9999 9V11H14.9999C15.2652 11 15.5195 11.1054 15.707 11.2929C15.8946 11.4804 15.9999 11.7348 15.9999 12C15.9999 12.2652 15.8946 12.5196 15.707 12.7071C15.5195 12.8946 15.2652 13 14.9999 13Z" fill="#21262A"/>
</svg>
