<svg width="24" height="24" viewBox="0 0 24 24" fill="none" xmlns="http://www.w3.org/2000/svg">
<path d="M11.4268 2.40136C11.771 2.1605 12.229 2.1605 12.5732 2.40136L21.5732 8.70117C21.8405 8.88828 22 9.19427 22 9.5205V21.1113L21.9951 21.2021C21.9526 21.6203 21.6203 21.9525 21.2021 21.9951L21.1113 22H14.5928L14.4736 21.9883C14.2033 21.9333 14 21.6937 14 21.4072V16C14 14.8955 13.1046 14 12 14C10.8954 14 10 14.8955 10 16V21.4072C9.99999 21.7344 9.7345 22 9.40723 22H2.88867C2.4286 21.9999 2.05049 21.6502 2.00488 21.2021L2 21.1113V9.5205C2.00006 9.19426 2.15948 8.88827 2.42676 8.70117L11.4268 2.40136Z" fill="white"/>
</svg>
