<svg width="24" height="24" viewBox="0 0 24 24" fill="none" xmlns="http://www.w3.org/2000/svg">
<path d="M11.0523 2.84622C11.3564 1.93511 12.6446 1.93511 12.9487 2.84622L14.9439 8.82961C14.9695 8.9058 15.0295 8.96372 15.103 8.98782L15.1812 9.00051H20.8804C21.8525 9.00119 22.2523 10.2486 21.4614 10.814L17.146 13.897C17.0593 13.9592 17.0217 14.0692 17.0523 14.1714L19.0025 20.6724C19.2812 21.6032 18.2112 22.3268 17.4575 21.771L17.3862 21.7124L12.1655 17.145C12.0713 17.0626 11.9297 17.0627 11.8355 17.145L6.61476 21.7124C5.8595 22.3729 4.71058 21.6335 4.99855 20.6724L6.94875 14.1714C6.9716 14.0949 6.95615 14.0137 6.91066 13.9517L6.855 13.897L2.53957 10.814C1.74836 10.2485 2.1482 9.00089 3.12062 9.00051H8.81984C8.90036 9.00037 8.97483 8.96125 9.02101 8.89895L9.05715 8.82961L11.0523 2.84622Z" fill="white"/>
</svg>
