<svg width="24" height="24" viewBox="0 0 24 24" fill="none" xmlns="http://www.w3.org/2000/svg">
<path d="M11.0522 2.84621C11.3564 1.9351 12.6446 1.9351 12.9487 2.84621L14.9438 8.82961C14.9695 8.90579 15.0294 8.96371 15.103 8.98781L15.1812 9.0005H20.8804C21.8525 9.00118 22.2523 10.2485 21.4614 10.814L17.146 13.897C17.0593 13.9592 17.0217 14.0692 17.0522 14.1714L19.0024 20.6724C19.2812 21.6032 18.2112 22.3268 17.4575 21.771L17.3862 21.7124L12.1655 17.145C12.0713 17.0626 11.9297 17.0627 11.8354 17.145L6.61475 21.7124C5.85948 22.3729 4.71056 21.6335 4.99854 20.6724L6.94873 14.1714C6.97158 14.0949 6.95613 14.0137 6.91064 13.9517L6.85498 13.897L2.53955 10.814C1.74835 10.2485 2.14818 9.00088 3.12061 9.0005H8.81982C8.90034 9.00036 8.97481 8.96124 9.021 8.89894L9.05713 8.82961L11.0522 2.84621Z" fill="#21262A"/>
</svg>
