<svg width="24" height="24" viewBox="0 0 24 24" fill="none" xmlns="http://www.w3.org/2000/svg">
<path d="M12 14.9167C12.3451 14.9167 12.625 15.1965 12.625 15.5417C12.625 15.8868 12.3451 16.1667 12 16.1667C11.6548 16.1667 11.375 15.8868 11.375 15.5417C11.375 15.1965 11.6548 14.9167 12 14.9167Z" fill="#21262A"/>
<path d="M12 8.04166C13.2656 8.04166 14.2916 9.06767 14.2916 10.3333C14.2916 11.2016 13.8085 11.956 13.0994 12.3442C12.9401 12.4315 12.8079 12.5328 12.7226 12.6323C12.6402 12.7285 12.625 12.7934 12.625 12.8333V13.6667C12.625 14.0118 12.3451 14.2917 12 14.2917C11.6548 14.2917 11.375 14.0118 11.375 13.6667V12.8333C11.375 12.4132 11.5577 12.0704 11.7737 11.8185C11.9871 11.5698 12.2545 11.3818 12.4988 11.248C12.8235 11.0703 13.0416 10.7268 13.0416 10.3333C13.0416 9.75802 12.5753 9.29166 12 9.29166C11.4246 9.29166 10.9583 9.75802 10.9583 10.3333C10.9583 10.6785 10.6785 10.9583 10.3333 10.9583C9.98812 10.9583 9.70829 10.6785 9.70829 10.3333C9.70829 9.06767 10.7343 8.04166 12 8.04166Z" fill="#21262A"/>
<path fill-rule="evenodd" clip-rule="evenodd" d="M12 3.66666C16.6023 3.66666 20.3333 7.39761 20.3333 12C20.3333 16.6023 16.6023 20.3333 12 20.3333C7.39758 20.3333 3.66663 16.6023 3.66663 12C3.66663 7.39761 7.39758 3.66666 12 3.66666ZM12 4.91666C8.08794 4.91666 4.91663 8.08797 4.91663 12C4.91663 15.912 8.08794 19.0833 12 19.0833C15.912 19.0833 19.0833 15.912 19.0833 12C19.0833 8.08797 15.912 4.91666 12 4.91666Z" fill="#21262A"/>
</svg>
