<svg width="24" height="24" viewBox="0 0 24 24" fill="none" xmlns="http://www.w3.org/2000/svg">
<path fill-rule="evenodd" clip-rule="evenodd" d="M11.1666 3.66666C12.0871 3.66666 12.8333 4.41285 12.8333 5.33332V11.1667C12.8333 12.0872 12.0871 12.8333 11.1666 12.8333H8.87496V15.75C8.87496 16.3253 9.34133 16.7917 9.91663 16.7917H12V16.1667C12 15.2462 12.7461 14.5 13.6666 14.5H18.6666C19.5871 14.5 20.3333 15.2462 20.3333 16.1667V18.6667C20.3333 19.5872 19.5871 20.3333 18.6666 20.3333H13.6666L13.4965 20.3244C12.7119 20.2448 12.0885 19.6214 12.0089 18.8367L12 18.6667V18.0417H9.91663C8.65098 18.0417 7.62496 17.0157 7.62496 15.75V12.8333H5.33329C4.41282 12.8333 3.66663 12.0872 3.66663 11.1667V5.33332C3.66663 4.41285 4.41282 3.66666 5.33329 3.66666H11.1666ZM13.6666 15.75C13.4365 15.75 13.25 15.9366 13.25 16.1667V18.6667C13.25 18.8967 13.4365 19.0833 13.6666 19.0833H18.6666C18.8967 19.0833 19.0833 18.8967 19.0833 18.6667V16.1667C19.0833 15.9366 18.8967 15.75 18.6666 15.75H13.6666ZM5.33329 4.91666C5.10318 4.91666 4.91663 5.10321 4.91663 5.33332V11.1667C4.91663 11.3967 5.10318 11.5833 5.33329 11.5833H11.1666C11.3967 11.5833 11.5833 11.3967 11.5833 11.1667V5.33332C11.5833 5.10321 11.3967 4.91666 11.1666 4.91666H5.33329Z" fill="#21262A"/>
<path fill-rule="evenodd" clip-rule="evenodd" d="M18.6666 5.33332C19.5871 5.33332 20.3333 6.07951 20.3333 6.99999V11.1667C20.3333 12.0297 19.6773 12.7391 18.8367 12.8244L18.6666 12.8333H16.1666L15.9965 12.8244C15.2119 12.7448 14.5885 12.1214 14.5089 11.3367L14.5 11.1667V6.99999C14.5 6.07951 15.2461 5.33332 16.1666 5.33332H18.6666ZM16.1666 6.58332C15.9365 6.58332 15.75 6.76987 15.75 6.99999V11.1667C15.75 11.3967 15.9365 11.5833 16.1666 11.5833H18.6666C18.8967 11.5833 19.0833 11.3967 19.0833 11.1667V6.99999C19.0833 6.76987 18.8967 6.58332 18.6666 6.58332H16.1666Z" fill="#21262A"/>
</svg>
