<svg width="25" height="34" viewBox="0 0 25 34" fill="none" xmlns="http://www.w3.org/2000/svg">
<path d="M0 16.8424C0 10.215 5.37258 4.84238 12 4.84238V4.84238C18.6274 4.84238 24 10.215 24 16.8424V16.8424C24 23.4698 18.6274 28.8424 12 28.8424V28.8424C5.37258 28.8424 0 23.4698 0 16.8424V16.8424Z" fill="white"/>
<path d="M13.2433 17.2483L13.3236 24.6233H10.6757L10.7559 17.2483H13.2433Z" fill="#1C0265"/>
<path d="M12.8788 16.3594L18.0944 21.5182L16.2197 23.4099L11.1208 18.1368L12.8788 16.3594Z" fill="#4988F0"/>
<path d="M12.0001 15.9919L19.2947 15.9145V18.5879L12.0001 18.5068V15.9919Z" fill="#98C2F5"/>
<path d="M11.1208 16.3595L16.2234 11.09L18.0944 12.9817L12.8788 18.1369L11.1208 16.3595Z" fill="#C0DDF6"/>
<path d="M12 18.5057L4.70544 18.5869V15.9097L12 15.9909V18.5057Z" fill="#1B4BE7"/>
<path d="M12.8786 18.1368L7.77606 23.4099L5.90503 21.5182L11.1206 16.3594L12.8786 18.1368Z" fill="#1E27BE"/>
<circle cx="11.9981" cy="11.0742" r="1.85052" fill="#1C0265"/>
<path d="M12.8619 16.3431C13.0967 16.5718 13.2436 16.8923 13.2436 17.248C13.2435 17.9424 12.6867 18.5052 12 18.5052C11.6566 18.5052 11.3458 18.3643 11.1208 18.1368L11.1204 18.1375L5.90479 12.9785L7.77979 11.0866L12.8619 16.3431Z" fill="#236CFF"/>
</svg>
