<svg width="14" height="15" viewBox="0 0 14 15" fill="none" xmlns="http://www.w3.org/2000/svg">
<path d="M6.99902 5.79395L11.3457 1.44727L12.5537 2.65527L9.07031 6.13867H14V7.84863H9.05273L12.5537 11.3506L11.3457 12.5586L7.85742 9.06738V14H6.14844V9.05566L2.64844 12.5586L1.44141 11.3506L4.93457 7.85449H0V6.14453H4.93457L1.44141 2.64941L2.64844 1.44141L6.99902 5.79395ZM7 0C7.80525 0.000154018 8.45801 0.653328 8.45801 1.45898C8.45783 2.26449 7.80514 2.91781 7 2.91797C6.19473 2.91797 5.5412 2.26458 5.54102 1.45898C5.54102 0.653233 6.19462 0 7 0Z" fill="#236CFF"/>
</svg>
