<svg width="24" height="24" viewBox="0 0 24 24" fill="none" xmlns="http://www.w3.org/2000/svg">
<path fill-rule="evenodd" clip-rule="evenodd" d="M11.9999 8.66666C13.8409 8.66666 15.3333 10.159 15.3333 12C15.3333 13.8409 13.8409 15.3333 11.9999 15.3333C10.159 15.3333 8.66661 13.8409 8.66661 12C8.66661 10.1591 10.159 8.66672 11.9999 8.66666ZM11.9999 9.91666C10.8494 9.91672 9.91661 10.8494 9.91661 12C9.91661 13.1505 10.8494 14.0833 11.9999 14.0833C13.1505 14.0833 14.0833 13.1506 14.0833 12C14.0833 10.8494 13.1505 9.91666 11.9999 9.91666Z" fill="#21262A"/>
<path fill-rule="evenodd" clip-rule="evenodd" d="M12.8333 3.66666C13.7536 3.66683 14.4999 4.41295 14.4999 5.33332V5.81591C15.0744 6.04834 15.609 6.35825 16.0909 6.73306L16.5084 6.49299C17.3055 6.03291 18.3252 6.30638 18.7854 7.10334L19.6188 8.54703C20.0784 9.34404 19.8052 10.3631 19.0084 10.8232L18.6015 11.0576C18.6451 11.3657 18.6699 11.6807 18.6699 12.0008L18.6617 12.3434C18.652 12.5348 18.6327 12.7239 18.6072 12.9106L19.0084 13.1426C19.8054 13.6029 20.0781 14.6225 19.6179 15.4196L18.7846 16.8625C18.3243 17.6592 17.3054 17.9327 16.5084 17.4728L16.1161 17.2466C15.6274 17.6305 15.084 17.9475 14.4991 18.1841V18.6325C14.4989 19.5528 13.7528 20.2991 12.8325 20.2991H11.1658C10.2459 20.2986 9.4993 19.5525 9.49913 18.6325V18.1833C8.91433 17.9464 8.37068 17.6299 7.8821 17.2458L7.49066 17.472C6.69367 17.9319 5.67471 17.6592 5.21446 16.8625L4.38113 15.4188C3.92133 14.6218 4.19393 13.602 4.99066 13.1418L5.39268 12.909C5.36731 12.7228 5.34864 12.5342 5.33897 12.3434L5.33002 12.0008C5.33002 11.6805 5.35389 11.3651 5.39756 11.0568L4.99148 10.8224C4.19467 10.3621 3.92118 9.34322 4.38113 8.54621L5.21446 7.10253C5.67475 6.3058 6.6945 6.03309 7.49148 6.49299L7.90814 6.73306C8.39014 6.35805 8.92534 6.04848 9.49994 5.81591V5.33332C9.49994 4.41299 10.2463 3.66689 11.1666 3.66666H12.8333ZM11.1666 4.91666C10.9367 4.91689 10.7499 5.10335 10.7499 5.33332V5.90054C10.7499 6.38361 10.413 6.79384 9.96543 6.97558C9.50552 7.16233 9.06925 7.41361 8.67719 7.71858C8.29716 8.01421 7.77502 8.10003 7.35801 7.85936L6.86648 7.57535C6.66734 7.46061 6.4119 7.5286 6.29682 7.72753L5.46348 9.17121C5.34878 9.37034 5.41756 9.62498 5.61648 9.74006L6.09662 10.0176C6.51515 10.2596 6.70141 10.7571 6.63373 11.2358C6.56348 11.7329 6.56279 12.2407 6.63047 12.7381C6.69531 13.215 6.50839 13.7091 6.09174 13.9499L5.61566 14.2249C5.41701 14.3401 5.34891 14.5948 5.46348 14.7938L6.29682 16.2375C6.41185 16.4364 6.66652 16.5043 6.86566 16.3896L7.35394 16.1081C7.76279 15.8721 8.27219 15.9494 8.63975 16.2456C8.84156 16.4082 9.05408 16.5576 9.28184 16.6899L9.49913 16.8096C9.65019 16.8883 9.80556 16.96 9.96462 17.0244C10.4123 17.2057 10.7491 17.6156 10.7491 18.0986V18.6325C10.7493 18.8621 10.9362 19.0486 11.1658 19.0491H12.8325C13.0625 19.0491 13.2489 18.8624 13.2491 18.6325V18.0994C13.2492 17.6163 13.5867 17.2066 14.0344 17.0252C14.1933 16.9609 14.3483 16.8889 14.4991 16.8104L14.7172 16.6899C14.9355 16.5632 15.1452 16.4209 15.3439 16.2651C15.7246 15.9667 16.249 15.88 16.6679 16.1219L17.1334 16.3905C17.3325 16.5051 17.5871 16.4363 17.7023 16.2375L18.5356 14.7946C18.6506 14.5954 18.5826 14.34 18.3834 14.2249L17.909 13.9507C17.492 13.71 17.3047 13.2159 17.3694 12.7389C17.4371 12.2415 17.4364 11.7337 17.3661 11.2366C17.2984 10.758 17.4848 10.2604 17.9033 10.0184L18.3834 9.74088C18.5825 9.62589 18.6503 9.37124 18.5356 9.17203L17.7023 7.72834C17.5871 7.52925 17.3326 7.46115 17.1334 7.57616L16.6427 7.85936C16.2256 8.10025 15.7037 8.01508 15.3235 7.71939C14.9311 7.41418 14.4983 7.16343 14.0344 6.97558C13.5868 6.79419 13.2499 6.38433 13.2499 5.90136V5.33332C13.2499 5.10331 13.0632 4.91683 12.8333 4.91666H11.1666Z" fill="#21262A"/>
</svg>
