<svg width="24" height="24" viewBox="0 0 24 24" fill="none" xmlns="http://www.w3.org/2000/svg">
<path d="M13.4266 11.213C13.6707 10.969 14.0663 10.9691 14.3104 11.213C14.5545 11.4571 14.5545 11.8527 14.3104 12.0968L11.9537 14.4536C11.8365 14.5709 11.6775 14.6367 11.5118 14.6367C11.346 14.6365 11.187 14.5708 11.0699 14.4536L9.89148 13.2752C9.6475 13.0311 9.64747 12.6355 9.89148 12.3914C10.1355 12.1474 10.5312 12.1474 10.7753 12.3914L11.5118 13.1279L13.4266 11.213Z" fill="#21262A"/>
<path fill-rule="evenodd" clip-rule="evenodd" d="M12 3.66666C13.1666 3.66666 14.1727 4.35182 14.6392 5.34146L17 5.33332C17.9205 5.33332 18.6667 6.07951 18.6667 6.99999V18.6667C18.6667 19.5872 17.9205 20.3333 17 20.3333H7.00004C6.07957 20.3333 5.33337 19.5872 5.33337 18.6667V6.99999C5.33337 6.13711 5.98885 5.42772 6.82914 5.34227L7.00004 5.33332L9.36007 5.34146C9.82649 4.35165 10.8333 3.66666 12 3.66666ZM14.9167 7.13915L14.9135 7.20995C14.8802 7.53676 14.6201 7.79687 14.2933 7.83007L14.2225 7.83332H9.77755C9.41812 7.83319 9.1222 7.56002 9.08663 7.20995L9.08337 7.13915V6.58983L7.00004 6.58332C6.77023 6.58332 6.58337 6.76956 6.58337 6.99999V18.6667C6.58337 18.8967 6.76992 19.0833 7.00004 19.0833H17C17.2301 19.0833 17.4167 18.8967 17.4167 18.6667V6.99999C17.4167 6.79821 17.2737 6.63009 17.0839 6.59146L17 6.58332H14.9167V7.13915ZM12 4.91666C11.0795 4.91666 10.3334 5.66285 10.3334 6.58332H13.6667C13.6667 5.66285 12.9205 4.91666 12 4.91666Z" fill="#21262A"/>
</svg>
