<svg width="24" height="24" viewBox="0 0 24 24" fill="none" xmlns="http://www.w3.org/2000/svg">
<path fill-rule="evenodd" clip-rule="evenodd" d="M14.3496 3.66666C14.8644 3.66678 15.256 4.12894 15.1715 4.63671L14.5001 8.66666H17.0303C17.7111 8.66681 18.1045 9.43916 17.7041 9.9899L10.4311 19.9915L10.3823 20.0517C9.86754 20.6482 8.85585 20.244 8.92644 19.4292L9.50016 12.8333H7.16537L7.06934 12.8277C6.59824 12.774 6.258 12.3305 6.34505 11.8511L7.70899 4.35106C7.77655 3.97952 8.08431 3.70291 8.45443 3.66991L8.5293 3.66666H14.3496ZM7.66504 11.5833H10.8633L10.3009 18.0433L16.2124 9.91666H13.0247L13.858 4.91666H8.87679L7.66504 11.5833Z" fill="#21262A"/>
</svg>
