<svg width="56" height="46" viewBox="0 0 56 46" fill="none" xmlns="http://www.w3.org/2000/svg">
<path d="M10 11C10 7.68629 12.6863 5 16 5H40C43.3137 5 46 7.68629 46 11V35C46 38.3137 43.3137 41 40 41H16C12.6863 41 10 38.3137 10 35V11Z" fill="#005244"/>
<path d="M28 19.25C28.4142 19.25 28.75 19.5858 28.75 20V22.25H31C31.4142 22.25 31.75 22.5858 31.75 23C31.75 23.4142 31.4142 23.75 31 23.75H28.75V26C28.75 26.4142 28.4142 26.75 28 26.75C27.5858 26.75 27.25 26.4142 27.25 26V23.75H25C24.5858 23.75 24.25 23.4142 24.25 23C24.25 22.5858 24.5858 22.25 25 22.25H27.25V20C27.25 19.5858 27.5858 19.25 28 19.25Z" fill="white"/>
<path fill-rule="evenodd" clip-rule="evenodd" d="M28 13C33.5228 13 38 17.4771 38 23C38 28.5228 33.5228 33 28 33C22.4771 33 18 28.5228 18 23C18 17.4771 22.4771 13 28 13ZM28 14.5C23.3056 14.5 19.5 18.3056 19.5 23C19.5 27.6944 23.3056 31.5 28 31.5C32.6944 31.5 36.5 27.6944 36.5 23C36.5 18.3056 32.6944 14.5 28 14.5Z" fill="white"/>
</svg>
