<svg width="74" height="64" viewBox="0 0 74 64" fill="none" xmlns="http://www.w3.org/2000/svg">
<path d="M19 20C19 16.6863 21.6863 14 25 14H49C52.3137 14 55 16.6863 55 20V44C55 47.3137 52.3137 50 49 50H25C21.6863 50 19 47.3137 19 44V20Z" fill="#002B21"/>
<path fill-rule="evenodd" clip-rule="evenodd" d="M36.0523 22.846C36.3564 21.9349 37.6447 21.9349 37.9488 22.846L39.9439 28.8294C39.9695 28.9056 40.0294 28.9635 40.1031 28.9876L40.1812 29.0003H45.8804C46.8525 29.0009 47.2524 30.2483 46.4615 30.8137L42.146 33.8968C42.0592 33.9589 42.0217 34.0689 42.0523 34.1712L44.0025 40.6721C44.2814 41.6031 43.2113 42.3267 42.4576 41.7708L42.3863 41.7122L37.1656 37.1448C37.0714 37.0624 36.9298 37.0624 36.8355 37.1448L31.6148 41.7122C30.8595 42.3729 29.7103 41.6334 29.9986 40.6721L31.9488 34.1712C31.9716 34.0946 31.9562 34.0134 31.9107 33.9514L31.855 33.8968L27.5396 30.8137C26.7484 30.2483 27.1482 29.0006 28.1207 29.0003H33.8199C33.9005 29.0001 33.9749 28.9611 34.021 28.8987L34.0572 28.8294L36.0523 22.846ZM35.481 29.304C35.2428 30.0183 34.5729 30.5001 33.8199 30.5003H29.6812L32.7271 32.6761C33.3358 33.1113 33.6013 33.886 33.3863 34.6028L31.9351 39.4387L35.8482 36.0159L35.9751 35.9143C36.586 35.472 37.4151 35.472 38.0259 35.9143L38.1529 36.0159L42.065 39.4387L40.6148 34.6028C40.3997 33.8858 40.6649 33.1113 41.274 32.6761L44.3199 30.5003H40.1812C39.4281 30.5003 38.7584 30.0183 38.5201 29.304L37.0005 24.7444L35.481 29.304Z" fill="white"/>
</svg>
