<svg width="20" height="20" viewBox="0 0 20 20" fill="none" xmlns="http://www.w3.org/2000/svg">
<path d="M15.3333 8C15.1565 8 14.987 7.92976 14.8619 7.80474C14.7369 7.67971 14.6667 7.51014 14.6667 7.33333V5.33333H12.6667C12.4899 5.33333 12.3203 5.2631 12.1953 5.13807C12.0702 5.01305 12 4.84348 12 4.66667C12 4.48986 12.0702 4.32029 12.1953 4.19526C12.3203 4.07024 12.4899 4 12.6667 4H15.3333C15.5101 4 15.6797 4.07024 15.8047 4.19526C15.9298 4.32029 16 4.48986 16 4.66667V7.33333C16 7.51014 15.9298 7.67971 15.8047 7.80474C15.6797 7.92976 15.5101 8 15.3333 8Z" fill="#4C555B"/>
<path d="M7.33333 16H4.66667C4.48986 16 4.32029 15.9298 4.19526 15.8047C4.07024 15.6797 4 15.5101 4 15.3333V12.6667C4 12.4899 4.07024 12.3203 4.19526 12.1953C4.32029 12.0702 4.48986 12 4.66667 12C4.84348 12 5.01305 12.0702 5.13807 12.1953C5.2631 12.3203 5.33333 12.4899 5.33333 12.6667V14.6667H7.33333C7.51014 14.6667 7.67971 14.7369 7.80474 14.8619C7.92976 14.987 8 15.1565 8 15.3333C8 15.5101 7.92976 15.6797 7.80474 15.8047C7.67971 15.9298 7.51014 16 7.33333 16Z" fill="#4C555B"/>
<path d="M15.3333 16H12.6667C12.4899 16 12.3203 15.9298 12.1953 15.8047C12.0702 15.6797 12 15.5101 12 15.3333C12 15.1565 12.0702 14.987 12.1953 14.8619C12.3203 14.7369 12.4899 14.6667 12.6667 14.6667H14.6667V12.6667C14.6667 12.4899 14.7369 12.3203 14.8619 12.1953C14.987 12.0702 15.1565 12 15.3333 12C15.5101 12 15.6797 12.0702 15.8047 12.1953C15.9298 12.3203 16 12.4899 16 12.6667V15.3333C16 15.5101 15.9298 15.6797 15.8047 15.8047C15.6797 15.9298 15.5101 16 15.3333 16Z" fill="#4C555B"/>
<path d="M4.66667 8C4.48986 8 4.32029 7.92976 4.19526 7.80474C4.07024 7.67971 4 7.51014 4 7.33333V4.66667C4 4.48986 4.07024 4.32029 4.19526 4.19526C4.32029 4.07024 4.48986 4 4.66667 4H7.33333C7.51014 4 7.67971 4.07024 7.80474 4.19526C7.92976 4.32029 8 4.48986 8 4.66667C8 4.84348 7.92976 5.01305 7.80474 5.13807C7.67971 5.2631 7.51014 5.33333 7.33333 5.33333H5.33333V7.33333C5.33333 7.51014 5.2631 7.67971 5.13807 7.80474C5.01305 7.92976 4.84348 8 4.66667 8Z" fill="#4C555B"/>
</svg>
