<svg width="24" height="24" viewBox="0 0 24 24" fill="none" xmlns="http://www.w3.org/2000/svg">
<path d="M14.011 8.0059L4.011 7.9939C3.74578 7.9939 3.49143 7.88854 3.30389 7.701C3.11636 7.51347 3.011 7.25911 3.011 6.9939C3.011 6.72868 3.11636 6.47433 3.30389 6.28679C3.49143 6.09925 3.74578 5.9939 4.011 5.9939L14.011 6.0059C14.2762 6.0059 14.5306 6.11125 14.7181 6.29879C14.9056 6.48633 15.011 6.74068 15.011 7.0059C15.011 7.27111 14.9056 7.52547 14.7181 7.713C14.5306 7.90054 14.2762 8.0059 14.011 8.0059Z" fill="#21262A"/>
<path d="M14 12.9997L4 12.9887C3.73478 12.9887 3.48043 12.8833 3.29289 12.6958C3.10536 12.5082 3 12.2539 3 11.9887C3 11.7234 3.10536 11.4691 3.29289 11.2816C3.48043 11.094 3.73478 10.9887 4 10.9887L14 10.9997C14.2652 10.9997 14.5196 11.105 14.7071 11.2926C14.8946 11.4801 15 11.7344 15 11.9997C15 12.2649 14.8946 12.5192 14.7071 12.7068C14.5196 12.8943 14.2652 12.9997 14 12.9997Z" fill="#21262A"/>
<path d="M14 18.0059L4 17.9939C3.73478 17.9939 3.48043 17.8885 3.29289 17.701C3.10536 17.5135 3 17.2591 3 16.9939C3 16.7287 3.10536 16.4743 3.29289 16.2868C3.48043 16.0993 3.73478 15.9939 4 15.9939L14 16.0059C14.2652 16.0059 14.5196 16.1113 14.7071 16.2988C14.8946 16.4863 15 16.7407 15 17.0059C15 17.2711 14.8946 17.5255 14.7071 17.713C14.5196 17.9005 14.2652 18.0059 14 18.0059Z" fill="#21262A"/>
<path d="M20.985 9.9999C20.9842 9.80212 20.9247 9.60904 20.8142 9.44505C20.7036 9.28107 20.5469 9.15355 20.3639 9.07863C20.1808 9.0037 19.9797 8.98473 19.7859 9.02412C19.5921 9.0635 19.4143 9.15947 19.275 9.2999L17.285 11.3089C17.0983 11.4972 16.9941 11.752 16.9952 12.0171C16.9963 12.2823 17.1027 12.5362 17.291 12.7229L19.3 14.7139C19.4406 14.8517 19.6188 14.945 19.8122 14.982C20.0057 15.0189 20.2057 14.998 20.3872 14.9217C20.5688 14.8455 20.7238 14.7173 20.8328 14.5533C20.9418 14.3893 21 14.1968 21 13.9999L20.985 9.9999Z" fill="#21262A"/>
</svg>
