<svg width="24" height="24" viewBox="0 0 24 24" fill="none" xmlns="http://www.w3.org/2000/svg">
<path d="M14.008 8.00008L4.008 7.98608C3.74279 7.98608 3.48843 7.88073 3.3009 7.69319C3.11336 7.50565 3.008 7.2513 3.008 6.98608C3.008 6.72087 3.11336 6.46651 3.3009 6.27898C3.48843 6.09144 3.74279 5.98608 4.008 5.98608L14.008 6.00008C14.2732 6.00008 14.5276 6.10544 14.7151 6.29298C14.9026 6.48051 15.008 6.73487 15.008 7.00008C15.008 7.2653 14.9026 7.51965 14.7151 7.70719C14.5276 7.89473 14.2732 8.00008 14.008 8.00008Z" fill="#21262A"/>
<path d="M14 13.0001L4 12.9891C3.73479 12.9891 3.48043 12.8837 3.2929 12.6962C3.10536 12.5087 3 12.2543 3 11.9891C3 11.7239 3.10536 11.4695 3.2929 11.282C3.48043 11.0944 3.73479 10.9891 4 10.9891L14 11.0001C14.2652 11.0001 14.5196 11.1054 14.7071 11.293C14.8946 11.4805 15 11.7349 15 12.0001C15 12.2653 14.8946 12.5197 14.7071 12.7072C14.5196 12.8947 14.2652 13.0001 14 13.0001Z" fill="#21262A"/>
<path d="M13.992 18.0001L3.992 17.9861C3.72679 17.9861 3.47243 17.8807 3.2849 17.6932C3.09736 17.5057 2.992 17.2513 2.992 16.9861C2.992 16.7209 3.09736 16.4665 3.2849 16.279C3.47243 16.0914 3.72679 15.9861 3.992 15.9861L13.992 16.0001C14.2572 16.0001 14.5116 16.1054 14.6991 16.293C14.8866 16.4805 14.992 16.7349 14.992 17.0001C14.992 17.2653 14.8866 17.5197 14.6991 17.7072C14.5116 17.8947 14.2572 18.0001 13.992 18.0001Z" fill="#21262A"/>
<path d="M20.71 11.3051L18.719 9.30008C18.5797 9.15966 18.402 9.06369 18.2081 9.02431C18.0143 8.98492 17.8132 9.00389 17.6302 9.07882C17.4471 9.15374 17.2904 9.28126 17.1799 9.44524C17.0693 9.60923 17.0098 9.80231 17.009 10.0001L16.991 14.0001C16.991 14.197 17.0492 14.3895 17.1582 14.5535C17.2672 14.7175 17.4222 14.8457 17.6038 14.9219C17.7853 14.9982 17.9854 15.0191 18.1788 14.9822C18.3722 14.9452 18.5504 14.8519 18.691 14.7141L20.7 12.7191C20.8883 12.5324 20.9947 12.2785 20.9958 12.0133C20.9969 11.7482 20.8927 11.4934 20.706 11.3051H20.71Z" fill="#21262A"/>
</svg>
