<svg width="20" height="20" viewBox="0 0 20 20" fill="none" xmlns="http://www.w3.org/2000/svg">
<path d="M15.3333 9.35331C15.1565 9.35331 14.9869 9.42355 14.8619 9.54858C14.7369 9.6736 14.6666 9.84317 14.6666 10.02L14.6606 13.83C14.6596 14.0574 14.5684 14.275 14.407 14.4353C14.2457 14.5955 14.0274 14.6852 13.8 14.6846L6.1833 14.6726C6.0708 14.6725 5.95943 14.6501 5.85557 14.6069C5.7517 14.5637 5.65736 14.5005 5.57793 14.4208C5.49851 14.3411 5.43555 14.2466 5.39266 14.1426C5.34977 14.0386 5.32779 13.9271 5.32796 13.8146L5.3393 6.19532C5.3393 6.08285 5.36146 5.97148 5.40452 5.86758C5.44758 5.76369 5.51069 5.66929 5.59025 5.5898C5.66981 5.5103 5.76425 5.44726 5.86818 5.40428C5.97211 5.3613 6.0835 5.33923 6.19596 5.33931L10.0053 5.34532C10.1821 5.34532 10.3517 5.27508 10.4767 5.15005C10.6017 5.02503 10.672 4.85546 10.672 4.67865C10.672 4.50184 10.6017 4.33227 10.4767 4.20724C10.3517 4.08222 10.1821 4.01198 10.0053 4.01198L6.19996 4.00598H6.19596C5.61555 4.0058 5.05881 4.23611 4.64815 4.64628C4.23748 5.05645 4.00649 5.6129 4.00596 6.19331L3.99463 13.812C3.9941 14.3928 4.22407 14.95 4.63406 15.3614C5.04404 15.7727 5.60052 16.0046 6.1813 16.006L13.8006 16.018C14.381 16.0175 14.9374 15.787 15.3481 15.377C15.7589 14.967 15.9904 14.411 15.992 13.8306L16 10.0213C16.0001 9.93365 15.983 9.84682 15.9496 9.76578C15.9162 9.68475 15.8671 9.6111 15.8052 9.54905C15.7433 9.487 15.6697 9.43778 15.5887 9.40419C15.5078 9.3706 15.421 9.35331 15.3333 9.35331Z" fill="#4C555B"/>
<path d="M15.342 4.01998L12.6753 4.01598C12.4985 4.01598 12.3289 4.08622 12.2039 4.21124C12.0789 4.33627 12.0086 4.50584 12.0086 4.68265C12.0086 4.85946 12.0789 5.02903 12.2039 5.15405C12.3289 5.27908 12.4985 5.34932 12.6753 5.34932H13.7326L10.8666 8.20865C10.8029 8.27006 10.752 8.34355 10.7169 8.42483C10.6819 8.50612 10.6634 8.59357 10.6625 8.68209C10.6616 8.7706 10.6783 8.85841 10.7117 8.94038C10.7451 9.02236 10.7945 9.09686 10.857 9.15954C10.9196 9.22222 10.9939 9.27183 11.0758 9.30546C11.1577 9.3391 11.2454 9.35609 11.334 9.35545C11.4225 9.35481 11.51 9.33655 11.5914 9.30173C11.6727 9.26691 11.7464 9.21623 11.808 9.15265L14.6746 6.29465V7.35198C14.6746 7.52879 14.7449 7.69836 14.8699 7.82339C14.9949 7.94841 15.1645 8.01865 15.3413 8.01865C15.5181 8.01865 15.6877 7.94841 15.8127 7.82339C15.9377 7.69836 16.008 7.52879 16.008 7.35198L16.012 4.68531C16.0118 4.5976 15.9943 4.51078 15.9605 4.42983C15.9267 4.34888 15.8773 4.2754 15.8151 4.21359C15.7528 4.15178 15.679 4.10287 15.5978 4.06964C15.5166 4.03642 15.4297 4.01954 15.342 4.01998Z" fill="#4C555B"/>
</svg>
