<svg width="24" height="24" viewBox="0 0 24 24" fill="none" xmlns="http://www.w3.org/2000/svg">
<path fill-rule="evenodd" clip-rule="evenodd" d="M17 2C17.5523 2 18 2.44772 18 3C18 3.55228 17.5523 4 17 4H16V7.33301C17.8179 8.23079 18.9999 10.0926 19 12.1621V13C19 13.5523 18.5523 14 18 14H13.4375C13.2918 16.3332 13.1453 18.6668 13 21C12.9842 21.2491 12.8649 21.5484 12.6777 21.7246C12.4899 21.9007 12.2494 22 12 22C11.7506 22 11.5101 21.9007 11.3223 21.7246C11.1351 21.5484 11.0158 21.2491 11 21C10.8547 18.6668 10.7082 16.3332 10.5625 14H6C5.44772 14 5 13.5523 5 13L5.00391 11.9453C5.08325 9.96328 6.2457 8.19932 8 7.33301V4H7C6.44772 4 6 3.55228 6 3C6 2.44772 6.44772 2 7 2H17ZM10 8C10 8.22479 9.91957 8.44962 9.7793 8.625C9.66029 8.77305 9.49664 8.88811 9.31641 8.94824C7.98477 9.39212 7.07319 10.609 7.00684 12H16.9932C16.9268 10.609 16.0152 9.39212 14.6836 8.94824C14.428 8.8631 14.2118 8.67131 14.0967 8.42773C14.0397 8.30762 14.0058 8.174 14.001 8.03418C13.9537 6.69314 14 5.34198 14 4H10V8Z" fill="#21262A"/>
</svg>
