<svg width="24" height="24" viewBox="0 0 24 24" fill="none" xmlns="http://www.w3.org/2000/svg">
<path fill-rule="evenodd" clip-rule="evenodd" d="M4.29305 4.29297C4.68357 3.90251 5.31661 3.90247 5.70711 4.29297L19.7071 18.293C20.0975 18.6835 20.0976 19.3166 19.7071 19.707C19.3167 20.0975 18.6837 20.0974 18.293 19.707L13.3868 14.8008C13.2662 16.7337 13.1463 18.6668 13.0255 20.5996C13.0171 20.7328 13.0084 20.8668 13.0001 21C12.9842 21.249 12.8649 21.5485 12.6778 21.7246C12.4901 21.9007 12.2494 21.9999 12.0001 22C11.7507 21.9999 11.5101 21.9006 11.3223 21.7246C11.1353 21.5485 11.0159 21.249 11.0001 21C10.9918 20.8668 10.983 20.7328 10.9747 20.5996C10.8372 18.3999 10.7 16.1997 10.5626 14H6.00008C5.44793 14 5.00024 13.5522 5.00008 13L5.00399 11.9453C5.06281 10.4775 5.71646 9.13032 6.76375 8.17773L4.29305 5.70703C3.90252 5.31651 3.90252 4.68349 4.29305 4.29297ZM8.18172 9.5957C7.48886 10.1915 7.05208 11.0545 7.00692 12H10.586L8.18172 9.5957Z" fill="#21262A"/>
<path d="M17.0001 2C17.5523 2.00007 18.0001 2.44776 18.0001 3C18.0001 3.55224 17.5523 3.99993 17.0001 4H16.0001V7.33398C17.8177 8.23186 18.9999 10.0929 19.0001 12.1621V13C19 13.5521 18.5522 13.9999 18.0001 14H17.0001C16.4479 14 16.0002 13.5522 16.0001 13C16.0002 12.4501 16.4442 12.0037 16.9932 12C16.931 10.696 16.1254 9.54551 14.9278 9.04102C14.756 8.9757 14.5757 8.92348 14.4239 8.81641C14.1704 8.63709 14.0114 8.34403 14.0011 8.0332C13.9524 6.69271 14.0001 5.34149 14.0001 4H10.0001V5C10.0001 5.55223 9.5523 5.99992 9.00008 6C8.44779 6 8.00008 5.55228 8.00008 5V4H7.00008C6.44779 4 6.00008 3.55228 6.00008 3C6.00008 2.44772 6.44779 2 7.00008 2H17.0001Z" fill="#21262A"/>
</svg>
