<svg width="44" height="44" viewBox="0 0 44 44" fill="none" xmlns="http://www.w3.org/2000/svg">
<path d="M24.9902 5C33.0201 5.00017 39.5596 11.5404 39.5596 19.5703C39.5595 22.8803 38.4469 25.9358 36.5781 28.3857L43.9902 33.4102L38.8105 38.5898L33.7842 31.1748C31.3379 33.0337 28.2905 34.1396 24.9902 34.1396C16.9603 34.1396 10.4201 27.6002 10.4199 19.5703C10.4199 11.5403 16.9602 5 24.9902 5Z" fill="#5BEF76"/>
<path fill-rule="evenodd" clip-rule="evenodd" d="M22.999 14.5C25.9092 14.5003 28.2683 16.8594 28.2686 19.7695C28.2686 22.6799 25.9093 25.0398 22.999 25.04C20.0885 25.04 17.7285 22.6801 17.7285 19.7695C17.7288 16.8592 20.0886 14.5 22.999 14.5ZM22.999 15.5C20.6409 15.5 18.7288 17.4115 18.7285 19.7695C18.7285 22.1278 20.6408 24.04 22.999 24.04C25.3571 24.0398 27.2686 22.1276 27.2686 19.7695C27.2683 17.4117 25.3569 15.5003 22.999 15.5Z" fill="#00254A"/>
<path d="M4.2998 16.5C6.12228 16.5 7.5995 17.9774 7.59961 19.7998C7.59961 21.6223 6.12234 23.0996 4.2998 23.0996C2.47735 23.0995 1 21.6223 1 19.7998C1.00011 17.9774 2.47742 16.5001 4.2998 16.5Z" fill="#00254A"/>
<path d="M12.3701 16.5C14.1926 16.5 15.6698 17.9773 15.6699 19.7998C15.6699 21.6223 14.1927 23.0996 12.3701 23.0996C10.5477 23.0995 9.07031 21.6223 9.07031 19.7998C9.07041 17.9774 10.5477 16.5001 12.3701 16.5Z" fill="#00254A"/>
</svg>
