<svg width="600" height="400" viewBox="0 0 600 400" fill="none" xmlns="http://www.w3.org/2000/svg">
<rect x="0.5" y="0.5" width="599" height="399" rx="7.5" fill="#F8FAFB"/>
<rect x="0.5" y="0.5" width="599" height="399" rx="7.5" stroke="#C3CED5"/>
<rect x="105" y="32" width="487" height="360" rx="6" fill="white"/>
<rect x="117.5" y="44.5" width="462" height="335" rx="5.5" fill="#E0EDFF" stroke="#205EA3" stroke-dasharray="6 6"/>
<circle cx="16" cy="52" r="8" fill="#2B3135" fill-opacity="0.15"/>
<rect x="29" y="44" width="68" height="16" rx="4" fill="#2B3135" fill-opacity="0.15"/>
<circle cx="581" cy="16" r="8" fill="#2B3135" fill-opacity="0.15"/>
<circle cx="525" cy="16" r="8" fill="#2B3135" fill-opacity="0.15"/>
<circle cx="553" cy="16" r="8" fill="#2B3135" fill-opacity="0.15"/>
<circle cx="497" cy="16" r="8" fill="#2B3135" fill-opacity="0.15"/>
<circle cx="16" cy="16" r="8" fill="#2B3135" fill-opacity="0.15"/>
<circle cx="16" cy="88" r="8" fill="#2B3135" fill-opacity="0.15"/>
<rect x="29" y="80" width="68" height="16" rx="4" fill="#2B3135" fill-opacity="0.15"/>
<rect x="241" y="8" width="118" height="16" rx="4" fill="#2B3135" fill-opacity="0.1"/>
<circle cx="16" cy="190" r="8" fill="#2B3135" fill-opacity="0.15"/>
<rect x="29" y="182" width="68" height="16" rx="4" fill="#2B3135" fill-opacity="0.15"/>
<circle cx="16" cy="132" r="8" fill="#2B3135" fill-opacity="0.15"/>
<rect x="29" y="124" width="68" height="16" rx="4" fill="#2B3135" fill-opacity="0.15"/>
<circle cx="16" cy="234" r="8" fill="#2B3135" fill-opacity="0.15"/>
<rect x="29" y="226" width="68" height="16" rx="4" fill="#2B3135" fill-opacity="0.15"/>
<circle cx="16" cy="110" r="8" fill="#2B3135" fill-opacity="0.15"/>
<rect x="29" y="102" width="68" height="16" rx="4" fill="#2B3135" fill-opacity="0.15"/>
<circle cx="16" cy="212" r="8" fill="#2B3135" fill-opacity="0.15"/>
<rect x="29" y="204" width="68" height="16" rx="4" fill="#2B3135" fill-opacity="0.15"/>
<circle cx="16" cy="154" r="8" fill="#2B3135" fill-opacity="0.15"/>
<rect x="29" y="146" width="68" height="16" rx="4" fill="#2B3135" fill-opacity="0.15"/>
<circle cx="16" cy="256" r="8" fill="#2B3135" fill-opacity="0.15"/>
<rect x="29" y="248" width="68" height="16" rx="4" fill="#2B3135" fill-opacity="0.15"/>
<circle cx="16" cy="278" r="8" fill="#2B3135" fill-opacity="0.15"/>
<rect x="29" y="270" width="68" height="16" rx="4" fill="#2B3135" fill-opacity="0.15"/>
<circle cx="16" cy="384" r="8" fill="#2B3135" fill-opacity="0.15"/>
<rect x="29" y="376" width="68" height="16" rx="4" fill="#2B3135" fill-opacity="0.15"/>
</svg>
