<svg width="160" height="160" viewBox="0 0 160 160" fill="none" xmlns="http://www.w3.org/2000/svg">
<path d="M115.278 128.204L148.796 121.153L147.646 116.848C146.948 114.229 148.742 111.604 151.433 111.297L153.848 110C153.848 110 155.333 110.333 155.667 111.667C156 113 155.136 114.476 155.136 114.476C154.016 114.512 153.324 115.71 153.848 116.704L156.238 121.195C157.797 124.121 155.883 127.698 152.583 128.023L118.572 135.627L115.272 128.21L115.278 128.204Z" fill="#5BEF76"/>
<path d="M117.793 135.995C118.914 135.583 119.201 133.562 118.436 131.48C117.67 129.399 116.142 128.045 115.021 128.457C113.901 128.869 113.613 130.891 114.379 132.972C115.144 135.054 116.673 136.407 117.793 135.995Z" fill="#00254A"/>
<path d="M150.446 127.95C152.589 122.044 148.796 121.147 148.796 121.147C148.796 121.147 153.125 117.848 155.804 121.972" stroke="#00254A" stroke-width="0.584922" stroke-miterlimit="10"/>
<path d="M79.424 38.1023C79.424 38.1023 85.228 37.422 84.3429 36.9524C78.9784 34.1045 60.0913 35.4472 57.1772 37.6568C54.9254 39.3607 60.2839 40.0169 70.0677 40.2337C85.1738 40.5648 79.424 38.1083 79.424 38.1083V38.1023Z" fill="#4A2411"/>
<path d="M28.0687 133.911C28.0687 133.911 13.6549 135.404 13.9861 137.722C14.3172 140.04 33.0358 138.715 33.0358 138.715C33.0358 138.715 30.3024 140.244 32.6204 141.238C34.9384 142.231 80.0821 142.231 85.3804 141.238C90.6786 140.244 81.4066 131.924 56.3904 133.08C56.3904 133.08 48.6055 131.093 40.3209 131.424C32.0364 131.755 28.0626 133.911 28.0626 133.911H28.0687Z" fill="#4A2411"/>
<path d="M83.8268 119.961L87.0961 124.813C78.366 130.238 77.4268 137.318 77.4268 137.318L81.6714 138.264C81.6714 138.264 86.4338 129.732 96.639 127.342L91.2143 112.796" fill="#F9DCB2"/>
<path d="M64.7231 99.1232C64.7231 99.1232 76.879 79.8025 99.8904 70.2536C122.902 60.7046 133.534 61.3549 135.491 69.1698C137.448 76.9848 133.974 87.8402 133.757 94.3487C133.54 100.857 137.231 106.721 142.873 104.987L151.988 139.071H142.222L132.89 116.71C132.89 116.71 120.951 122.135 109.445 102.82L103.587 105.644C103.587 105.644 95.8143 123.375 77.752 123.881" fill="#D2854A"/>
<path d="M134.612 114.963C117.399 118.744 113.196 96.6299 113.196 96.6299L105.821 102.079L107.067 103.963L109.445 102.819C117.399 119.587 130.271 117.63 130.271 117.63L139.369 138.908L143.565 139.185L134.606 114.969L134.612 114.963Z" fill="#F9DCB2"/>
<path d="M113.372 95.2393C105.743 95.5584 85.5979 99.2491 78.7523 106.673C72.6894 113.241 76.6571 119.804 76.6571 119.804L74.1705 117.065L77.7529 123.874C97.8803 122.76 98.952 107.841 103.588 105.637C108.224 103.434 114.997 100.736 115.039 100.802C113.763 96.6842 113.378 95.2393 113.378 95.2393H113.372Z" fill="#F9DCB2"/>
<path d="M82.8818 123.844C82.8818 123.844 92.1418 123.652 99.8243 109.575C101.251 106.962 108.524 101.778 115.033 100.803" stroke="#00254A" stroke-width="0.666667" stroke-linecap="round" stroke-linejoin="round"/>
<path d="M64.7228 99.123C64.7228 99.123 60.5986 101.947 56.9079 108.022C51.8083 116.421 48.2259 130.6 62.9889 131.9L62.3025 141.238H68.6243L70.8038 131.25L71.3216 141.238H73.5734C74.2778 139.233 77.4929 129.45 78.8355 123.218C81.2258 112.146 75.1448 100.207 64.7228 99.123Z" fill="#D2854A"/>
<path d="M135.353 74.1426C153.325 69.91 154.716 54.9544 146.757 48.7229L146.221 50.3305C146.221 50.3305 145.878 45.6524 139.514 44.9961L139.718 46.3989C139.718 46.3989 134.035 43.8943 128.327 48.5002L129.555 49.3792C129.555 49.3792 125.696 50.9145 125.257 57.4952L126.575 56.9654C126.575 56.9654 124.751 68.5794 136.75 65.7677C136.75 65.7677 133.686 63.2992 134.462 60.1263C135.444 56.1345 141.741 56.8269 141.741 61.4328C141.741 63.8652 138.996 67.9111 133.674 70.7168C133.132 70.9998 132.698 72.0655 132.999 72.6013L133.71 73.4382C134.035 74.0102 134.697 74.2931 135.341 74.1426H135.353Z" fill="#D2854A"/>
<path d="M67.1133 104.114L48.4429 93.042C48.4429 93.042 48.2262 103.681 56.0411 106.932C63.8561 110.183 67.1133 104.108 67.1133 104.108V104.114Z" fill="#D2854A"/>
<path d="M48.7083 95.4385L48.907 97.2026C49.6234 100.556 51.4417 105.024 56.0356 106.938C56.5955 107.173 57.1253 107.348 57.6371 107.492L61.4241 105.746C56.6677 101.249 48.7023 95.4385 48.7023 95.4385H48.7083Z" fill="#F9DCB2"/>
<path d="M65.6266 130.009L64.6031 141.238H68.6249L70.7924 131.25L71.3102 141.238H73.58C74.1941 139.486 76.6024 131.984 78.0835 126.313C77.5236 113.513 67.5291 121.803 67.5291 121.803C65.1931 116.276 57.1072 115.951 56.4208 121.99C55.4756 130.244 65.6206 130.009 65.6206 130.009H65.6266Z" fill="#F9DCB2"/>
<path d="M39.1113 101.724C39.1113 101.724 44.3192 115.614 55.8249 114.964C67.3306 114.314 70.3711 105.415 70.3711 105.415L39.1113 101.724Z" fill="#D2854A"/>
<path d="M63.2721 124.856C63.5972 125.686 63.4708 126.511 62.9771 126.704C62.4834 126.897 61.8271 126.379 61.502 125.554C61.1769 124.729 61.3033 123.88 61.797 123.706C62.2907 123.531 62.947 124.031 63.2721 124.856Z" fill="#00254A"/>
<path d="M100.734 83.9688C100.734 83.9688 99.9754 115.867 115.082 119.148L104.479 139.065H97.8802L103.275 123.658C103.275 123.658 87.7051 118.444 86.5912 104.62C85.4774 90.7963 100.734 83.9688 100.734 83.9688Z" fill="#D2854A"/>
<path d="M17.2375 138.535L14.0947 131.527C13.7394 130.906 13.5528 130.208 13.5528 129.492L10.5424 128.691L9.5249 126.848L24.059 122.357L24.4624 124.392L25.215 125.385C25.5642 125.849 28.8275 126.686 28.9599 127.252L31.296 138.535C31.296 138.535 23.2523 139.354 17.2495 138.535H17.2375Z" fill="#DB334D"/>
<path d="M17.3177 126.431C21.3916 125.246 24.4274 123.368 24.0984 122.238C23.7694 121.108 20.2002 121.153 16.1263 122.339C12.0525 123.525 9.0167 125.402 9.3457 126.532C9.67469 127.662 13.2439 127.617 17.3177 126.431Z" fill="#C3CED5"/>
<path d="M12.7698 126.24C12.1376 126.439 11.7403 126.204 11.8968 125.729C12.0534 125.253 12.6976 124.717 13.3358 124.542L15.7742 123.886C16.4124 123.712 17.2071 123.802 17.5323 124.079C17.8574 124.356 17.6105 124.741 16.9783 124.94L12.7758 126.24H12.7698Z" fill="#00254A"/>
<path d="M15.6962 129.251C15.8166 129.613 23.8543 130.094 26.6178 127.09L22.2949 134.839L27.3343 133.881L27.4547 137.241" stroke="black" stroke-width="0.666667" stroke-linecap="round" stroke-linejoin="round"/>
<path d="M43.2953 128.276C43.0605 127.577 35.1191 107.829 35.1191 107.829" stroke="#00254A" stroke-width="0.666667" stroke-linecap="round" stroke-linejoin="round"/>
<path d="M45.4986 127.962L43.608 114.439" stroke="#00254A" stroke-width="0.666667" stroke-linecap="round" stroke-linejoin="round"/>
<path d="M45.8846 133.296C46.1375 132.538 51.1769 128.763 51.1769 128.763L55.7105 131.532L52.6881 136.572L45.8846 133.296Z" fill="#727E85"/>
<path d="M5.3703 120.443L7.99536 117.041L9.90394 118.986L9.42228 121.412L6.08677 122.387L5.3703 120.443Z" fill="#727E85"/>
<path d="M65.4645 98.3038C65.2718 97.7197 82.0999 105.655 78.3971 123.982L80.679 123.729C80.679 123.729 84.737 105.715 66.8312 96.353L65.4645 98.3038Z" fill="#00254A"/>
<path d="M81.8159 127.577C83.2158 127.577 84.3507 126.326 84.3507 124.783C84.3507 123.24 83.2158 121.989 81.8159 121.989C80.416 121.989 79.2812 123.24 79.2812 124.783C79.2812 126.326 80.416 127.577 81.8159 127.577Z" fill="#236CFF"/>
<path d="M93.7549 119.202L97.6082 127.3C97.6082 127.3 89.3598 129.738 85.356 136.62" stroke="#00254A" stroke-width="0.666667" stroke-linecap="round" stroke-linejoin="round"/>
<path d="M65.8073 102.104C65.8073 102.104 77.4153 103.434 79.5106 116.945" stroke="#00254A" stroke-width="0.666667" stroke-linecap="round" stroke-linejoin="round"/>
<path d="M29.5621 100.978H32.1571L33.9874 102.164L32.2173 104.903L29.237 103.952L29.5621 100.978Z" fill="#727E85"/>
<path d="M32.6934 113.724C30.8691 118.859 32.2238 126.036 35.6737 123.664C38.3228 121.84 35.9747 118.558 34.1805 123.164C33.0185 126.144 36.6671 130.618 40.1471 128.631" stroke="#00254A" stroke-width="0.666667" stroke-linecap="round" stroke-linejoin="round"/>
<path d="M56.0801 67.8169C53.2262 65.5531 42.8163 64.4934 42.8163 64.4934C42.8163 64.4934 37.9275 59.3035 27.2406 59.3336C16.1564 59.3637 15.3917 62.049 15.3556 62.621C13.2182 62.8317 5.57185 64.0479 3.23579 66.402C-1.03895 70.7008 20.0518 72.5372 23.7124 72.1398C27.373 71.7424 29.9138 68.9729 34.4595 68.9789C39.6072 68.9849 40.2153 71.7244 46.3324 72.1097C49.114 72.2843 58.5365 69.7616 56.0801 67.8109V67.8169Z" fill="#4A2411"/>
<path d="M147.178 50.0776C149.833 56.1827 146.383 59.1028 146.383 59.1028" stroke="black" stroke-width="0.666667" stroke-linecap="round" stroke-linejoin="round"/>
<path d="M125.816 56.3152C125.816 56.3152 130.061 52.203 134.311 55.2555" stroke="black" stroke-width="0.666667" stroke-linecap="round" stroke-linejoin="round"/>
<path d="M130.06 48.2235C130.06 48.2235 136.695 45.8333 139.748 49.9515" stroke="black" stroke-width="0.666667" stroke-linecap="round" stroke-linejoin="round"/>
<path d="M131.939 61.4326C131.939 61.4326 131.668 65.334 135.166 67.2185C135.166 67.2185 127.628 67.7544 126.689 58.3379" stroke="black" stroke-width="0.666667" stroke-linecap="round" stroke-linejoin="round"/>
<path d="M89.0837 135.524C89.0837 135.524 89.8363 132.785 93.9966 131.821" stroke="#00254A" stroke-width="0.666667" stroke-linecap="round" stroke-linejoin="round"/>
<path d="M83.1266 123.333C83.6137 124.549 83.3259 126.667 81.3334 126.667" stroke="black" stroke-width="0.666667"/>
</svg>
